<svg width="338" height="319" viewBox="0 0 338 319" fill="none" xmlns="http://www.w3.org/2000/svg">
<g clip-path="url(#clip0_30_1809)">
<path opacity="0.1" d="M123.038 316.796C190.989 316.796 246.075 314.415 246.075 311.479C246.075 308.542 190.989 306.161 123.038 306.161C55.0858 306.161 0 308.542 0 311.479C0 314.415 55.0858 316.796 123.038 316.796Z" fill="#409DFE"/>
<path opacity="0.1" d="M90.6917 9.65398C98.5301 1.18358 110.834 -0.542733 122.033 0.132007C157.211 2.25135 188.965 22.8457 216.432 46.1402C226.376 54.5731 236.166 63.6613 242.62 75.2742C255.759 98.9143 251.862 131.664 233.591 151.139C227.375 157.765 219.84 162.844 212.104 167.347C198.348 175.353 183.507 181.781 167.895 183.61C156.762 184.914 145.492 183.854 134.424 182.034C103.501 176.948 73.1486 165.703 47.7085 146.463C36.5505 138.025 26.0336 127.534 21.4345 113.883C16.8354 100.232 19.7787 82.9331 31.1721 74.8529C35.8843 71.511 41.5183 70.0017 47.0343 68.5845C55.1534 66.4984 63.4028 64.4419 70.7297 60.2009C78.2975 55.8205 87.2584 47.3496 85.7601 37.654C84.1523 27.2509 82.8624 18.1145 90.6917 9.65398Z" fill="#409DFE"/>
<path opacity="0.1" d="M305.094 319C323.267 319 338 317.419 338 315.469C338 313.52 323.267 311.939 305.094 311.939C286.92 311.939 272.188 313.52 272.188 315.469C272.188 317.419 286.92 319 305.094 319Z" fill="#409DFE"/>
<path d="M171.622 120.141C171.086 118.884 168.254 111.068 168.254 111.068L163.508 96.1564C163.508 96.1564 160.14 89.8683 160.14 88.7005C160.14 87.5327 154.017 82.8616 154.017 82.8616C154.017 82.8616 149.042 81.065 148.659 80.8853C148.276 80.7056 142.382 78.3413 142.382 78.3413C142.382 78.3413 140.061 74.6403 139.731 75.6069L139.731 75.6093C139.718 75.5849 139.706 75.5637 139.694 75.5386C139.22 74.4641 138.92 73.2896 138.809 72.0783C138.797 71.9707 138.786 71.8571 138.775 71.7449C140.303 70.4885 141.556 68.799 142.425 66.8228C143.294 64.8466 143.752 62.6434 143.76 60.404C143.759 59.8144 143.726 59.2256 143.662 58.6411C143.704 58.6093 143.748 58.5812 143.794 58.5571C143.889 58.5069 143.865 58.4661 143.795 58.4235C143.819 58.4083 143.843 58.3921 143.867 58.3797C143.994 58.3129 143.909 58.2623 143.786 58.2023L143.794 58.1978C143.966 58.1068 143.748 58.0465 143.573 57.9503C143.563 57.8881 143.554 57.8258 143.544 57.7639C143.583 57.6456 143.607 57.5207 143.615 57.3937C143.63 57.4031 143.644 57.4132 143.661 57.422C143.703 57.1905 143.702 56.9502 143.658 56.7193C143.647 56.7662 143.633 56.8123 143.618 56.8573C143.629 56.6479 143.593 56.4388 143.515 56.2518C143.436 56.0648 143.318 55.9066 143.172 55.7939C143.163 55.7846 143.154 55.7746 143.145 55.7652L143.469 51.7352C148.256 51.4609 149.096 41.5858 148.004 41.0372C146.912 40.4886 148.004 39.2999 148.004 36.9225C148.004 34.5452 144.393 31.8935 144.393 31.8935C144.393 31.8935 142.882 32.8079 140.53 28.2361C138.179 23.6643 129.53 22.9328 128.942 24.1215C128.354 25.3101 124.491 26.8646 119.453 28.6018C114.414 30.3391 115.338 37.5626 116.178 39.117C116.87 40.4021 117.275 41.8828 117.353 43.4145C117.353 44.3289 118.949 48.1692 118.949 48.1692C118.446 49.4999 119.726 56.79 120.106 58.8619C120.1 58.9256 120.093 58.989 120.088 59.053C120.085 59.0593 120.081 59.0646 120.077 59.0709C120.059 59.1044 120.043 59.1392 120.028 59.1751C119.947 59.3898 119.92 59.629 119.951 59.8624C119.923 60.1174 119.953 60.3768 120.036 60.6134C120.065 62.5654 120.437 64.4873 121.128 66.2506C121.82 68.0139 122.813 69.5777 124.043 70.8374C124.049 70.9621 124.055 71.0876 124.061 71.216C124.131 72.9084 124.171 74.9098 124.098 76.825C124.094 76.9229 124.088 77.0189 124.083 77.1164C123.806 77.1845 123.545 77.3309 123.322 77.5436C123.1 77.7564 122.922 78.0297 122.802 78.3413C122.328 79.448 119.572 81.1548 119.572 81.1548C119.572 81.1548 114.75 81.4243 114.291 82.5023C113.832 83.5802 106.866 87.1734 106.866 87.1734C106.866 87.1734 103.192 89.7785 103.728 92.7429C104.008 94.2919 103.222 96.6983 102.408 98.6441C100.704 97.8609 98.9306 97.3246 97.1235 97.0464L101.026 101.573C100.944 101.728 100.896 101.816 100.896 101.816L98.6759 111.338C98.6759 111.338 97.9105 114.661 97.1451 115.47C96.3796 116.278 97.834 123.644 97.834 123.644C97.834 123.644 96.992 128.855 96.3031 130.202C95.6142 131.55 97.3747 134.873 97.3747 134.873L100.896 144.575L110.234 147.45C110.234 147.45 110.856 147.609 111.862 147.87C111.83 148.102 111.798 148.333 111.765 148.563C111.315 151.654 110.724 154.496 110.004 155.265C108.244 157.151 108.32 165.595 108.32 165.595L108.397 177.543C108.397 177.543 109.009 192.275 108.703 192.814C108.51 193.154 108.898 193.709 109.921 194.207C109.892 194.429 109.863 194.654 109.836 194.883C109.548 197.327 109.42 200.115 110.081 201.348C110.368 202.014 110.525 202.752 110.54 203.504C110.54 204.671 111.995 207.097 111.995 207.097C111.995 207.097 110.846 217.068 112.76 220.481C114.674 223.895 116.281 230.093 115.362 231.531C115.362 231.531 113.755 235.753 114.52 237.639C115.286 239.525 114.52 240.603 113.525 241.053C112.53 241.502 112.616 245.185 112.616 245.185L114.444 262.702C114.444 262.702 115.439 266.295 114.597 267.553C113.755 268.81 113.755 275.098 115.056 277.254C116.357 279.41 113.219 283.363 113.219 283.363C113.219 283.363 111.306 286.686 114.367 287.764C114.367 287.764 114.98 287.944 113.832 289.381C112.683 290.819 112.454 292.615 113.219 293.244C113.378 293.359 113.544 293.459 113.716 293.543C113.687 293.756 113.656 293.977 113.62 294.211C113.326 296.086 112.772 298.53 111.765 299.712C109.813 302.137 108.128 304.86 106.753 307.811C105.703 310.225 105.243 312.486 106.407 313.546C109.162 316.061 112.683 316.869 114.75 315.881C116.817 314.893 119.725 311.839 119.725 311.839L120.414 308.335C120.414 308.335 119.955 306.18 122.251 305.371C124.548 304.563 126.691 301.688 126.691 301.688V297.031C127.247 296.646 127.784 296.221 128.298 295.759C128.298 295.759 129.37 291.178 128.298 289.651C127.227 288.124 126.844 287.585 128.222 286.597C129.599 285.608 129.786 283.453 128.776 281.566C127.762 279.68 126.155 276.895 127.533 272.942C128.911 268.99 129.416 256.863 129.416 256.863C129.416 256.863 128.773 248.598 129.416 246.712C130.059 244.826 128.681 241.053 128.681 241.053C128.681 241.053 129.14 236.381 129.982 234.226C130.824 232.07 131.513 220.661 131.513 220.661C131.513 220.661 133.044 215.81 133.044 212.666C133.044 209.522 130.671 201.977 134.192 200C134.192 200 135.723 201.617 135.111 208.085C135.111 208.085 136.871 215.631 136.871 217.966C136.871 220.302 138.172 228.746 138.172 228.746C138.172 228.746 138.325 231.441 138.861 232.429C139.397 233.417 138.861 236.112 138.861 236.112C138.861 236.112 140.851 238.358 140.316 239.795C139.78 241.232 140.407 244.473 140.407 244.473L139.933 264.588C139.933 264.588 138.555 273.212 141.77 278.422C141.77 278.422 140.622 286.058 139.933 286.597C139.244 287.136 142.459 291.807 142.459 291.807C142.459 291.807 141.568 294.833 143.377 294.981V299.981C144.006 301.328 144.867 302.492 145.903 303.395C147.587 304.832 146.898 309.773 146.898 309.773C146.898 309.773 149.042 316.061 154.706 314.713C160.37 313.366 161.135 312.737 160.829 310.491C160.719 309.672 160.474 308.21 160.122 306.55C159.513 303.664 158.579 300.183 157.461 298.465C155.701 295.759 154.246 290.1 154.246 290.1C154.246 290.1 153.558 288.214 154.246 287.585C154.935 286.956 154.629 285.788 154.629 285.788C154.629 285.788 155.3 283.453 154.697 282.015C154.093 280.578 155.854 277.614 155.854 277.614L155.318 263.78L155.854 243.658C155.854 243.658 153.481 240.334 154.476 238.358C155.471 236.382 153.328 233.597 153.328 233.597C153.328 233.597 153.098 233.507 153.711 231.261C154.077 229.938 154.023 228.496 153.558 227.219C153.558 227.219 152.256 221.649 154.553 217.427C154.553 217.427 155.548 211.858 155.854 208.983C156.065 206.986 157.388 199.522 158.175 195.157C158.219 194.91 158.262 194.674 158.303 194.448C159.436 194.523 160.293 194.61 160.293 194.61C160.293 194.61 158.533 179.788 160.293 176.734C162.054 173.68 158.916 150.324 158.916 150.324C158.916 150.324 158.166 146.242 157.703 142.078C157.677 141.84 157.653 141.603 157.628 141.366C159.05 141.229 160.476 141.19 161.901 141.251C165.575 141.521 169.172 139.814 169.249 138.107C169.326 136.4 171.316 129.663 171.622 128.136C171.928 126.609 172.158 121.399 171.622 120.141Z" fill="url(#paint0_linear_30_1809)"/>
<path d="M126.959 293.434V301.752C126.959 301.752 124.894 304.614 122.681 305.419C120.468 306.224 120.911 308.37 120.911 308.37L120.247 311.858C120.247 311.858 117.444 314.899 115.453 315.883C113.462 316.867 110.069 316.062 107.414 313.558C106.293 312.502 106.735 310.252 107.747 307.848C109.065 304.92 110.689 302.21 112.577 299.784C113.547 298.607 114.081 296.174 114.364 294.307C114.574 292.908 114.642 291.824 114.642 291.824L126.959 293.434Z" fill="#4C495A"/>
<path opacity="0.1" d="M126.959 299.641V301.752C126.959 301.752 124.894 304.614 122.681 305.419C120.468 306.224 120.911 308.37 120.911 308.37L120.247 311.858C120.247 311.858 117.444 314.899 115.453 315.883C113.462 316.867 110.069 316.062 107.414 313.558C106.293 312.502 106.735 310.252 107.747 307.848C107.7 310.374 108.316 313.211 111.323 313.11C114.567 312.986 117.694 311.607 120.247 309.175C120.247 309.175 120.173 303.272 123.566 301.931C124.806 301.434 125.957 300.657 126.959 299.641Z" fill="black"/>
<path d="M153.953 314.72C148.495 316.062 146.43 309.801 146.43 309.801C146.43 309.801 147.094 304.882 145.471 303.451C144.468 302.544 143.638 301.384 143.037 300.052V291.824L149.675 286.1L153.268 289.957L153.51 290.214C153.51 290.214 154.912 295.849 156.608 298.543C157.685 300.253 158.585 303.719 159.172 306.592C159.511 308.245 159.747 309.701 159.853 310.517C160.148 312.753 159.411 313.379 153.953 314.72Z" fill="#4C495A"/>
<path opacity="0.1" d="M153.953 314.72C148.495 316.062 146.43 309.801 146.43 309.801C146.43 309.801 147.094 304.882 145.471 303.451C144.468 302.544 143.638 301.384 143.037 300.052V296.865C144.09 298.213 146.076 300.825 146.504 301.931C147.094 303.451 147.168 308.996 149.896 309.98C152.625 310.964 157.936 311.858 158.378 309.354C158.562 308.402 158.828 307.476 159.172 306.592C159.511 308.245 159.747 309.701 159.853 310.517C160.148 312.753 159.411 313.379 153.953 314.72Z" fill="black"/>
<path opacity="0.1" d="M114.642 291.824L126.959 293.434V297.831C125.569 298.829 123.578 299.888 122.46 298.8C120.808 297.198 115.896 295.162 114.364 294.307C114.574 292.908 114.642 291.824 114.642 291.824Z" fill="black"/>
<path opacity="0.1" d="M153.51 290.93C151.814 290.214 148.79 293.345 144.807 295.312C144.254 295.628 143.649 295.792 143.037 295.792V291.824L149.675 286.1L153.269 289.957C153.324 290.289 153.405 290.615 153.51 290.93Z" fill="black"/>
<path d="M157.862 192.458C157.862 192.458 157.629 193.774 157.296 195.685C156.537 200.031 155.263 207.462 155.059 209.451C154.764 212.313 153.805 217.858 153.805 217.858C151.593 222.062 152.847 227.607 152.847 227.607C153.295 228.883 153.347 230.313 152.994 231.632C152.404 233.868 152.625 233.957 152.625 233.957C152.625 233.957 154.69 236.73 153.732 238.698C152.773 240.665 155.059 243.974 155.059 243.974L154.543 264.009L155.059 277.782C155.059 277.782 153.363 280.734 153.944 282.165C154.525 283.596 153.879 285.921 153.879 285.921C153.879 285.921 154.174 287.084 153.51 287.71C152.847 288.336 153.51 290.214 153.51 290.214C151.814 289.499 148.79 292.629 144.807 294.597C140.825 296.564 142.152 291.914 142.152 291.914C142.152 291.914 139.054 287.263 139.718 286.726C140.382 286.189 141.488 278.587 141.488 278.587C138.391 273.4 139.718 264.814 139.718 264.814L140.176 244.787C140.176 244.787 139.571 241.56 140.087 240.129C140.603 238.698 138.686 236.462 138.686 236.462C138.686 236.462 139.202 233.778 138.686 232.795C138.169 231.811 138.022 229.128 138.022 229.128C138.022 229.128 136.768 220.72 136.768 218.395C136.768 216.07 135.072 208.557 135.072 208.557C135.662 202.117 134.187 200.507 134.187 200.507C130.794 202.475 133.08 209.988 133.08 213.118C133.08 216.248 131.605 221.078 131.605 221.078C131.605 221.078 130.941 232.437 130.13 234.583C129.319 236.73 128.876 241.381 128.876 241.381C128.876 241.381 130.204 245.137 129.584 247.015C128.965 248.894 129.584 257.122 129.584 257.122C129.584 257.122 129.098 269.196 127.77 273.131C126.442 277.067 127.991 279.839 128.968 281.718C129.941 283.596 129.761 285.742 128.434 286.726C127.106 287.71 127.475 288.247 128.508 289.767C129.54 291.287 128.508 295.849 128.508 295.849C128.508 295.849 124.304 299.874 122.46 298.085C120.616 296.296 114.715 293.971 113.978 293.345C113.24 292.718 113.462 290.93 114.568 289.499C115.674 288.068 115.084 287.889 115.084 287.889C112.134 286.816 113.978 283.506 113.978 283.506C113.978 283.506 117.002 279.571 115.748 277.424C114.494 275.278 114.494 269.017 115.305 267.765C116.117 266.513 115.158 262.935 115.158 262.935L113.397 245.495C113.397 245.495 113.314 241.828 114.273 241.381C115.232 240.933 115.969 239.86 115.232 237.982C114.494 236.104 116.043 231.9 116.043 231.9C116.928 230.469 115.379 224.298 113.535 220.899C111.691 217.501 112.798 207.573 112.798 207.573C112.798 207.573 111.396 205.158 111.396 203.995C111.383 203.249 111.231 202.515 110.954 201.849C110.317 200.622 110.441 197.846 110.718 195.413C110.986 193.059 111.396 191.027 111.396 191.027L157.862 192.458Z" fill="#FDD51F"/>
<path d="M143.406 91.1238L128.876 95.238C128.876 95.238 121.722 87.904 123.492 83.9687C124.1 82.6164 124.368 80.3089 124.46 77.869C124.531 75.9622 124.492 73.9695 124.424 72.2844C124.321 69.8481 124.156 68.0486 124.156 68.0486C124.156 68.0486 139.055 57.8526 138.538 68.0486C138.433 69.7466 138.466 71.4529 138.636 73.1431C138.741 74.3457 139.03 75.514 139.488 76.5882C140.285 78.309 141.267 78.3341 141.267 78.3341L143.406 91.1238Z" fill="#FDC2CC"/>
<path opacity="0.1" d="M138.636 73.1431C136.536 74.9696 133.987 75.8791 131.406 75.7232C128.825 75.5673 126.364 74.3551 124.424 72.2844C124.321 69.8481 124.156 68.0486 124.156 68.0486C124.156 68.0486 139.055 57.8526 138.538 68.0486C138.433 69.7466 138.466 71.4529 138.636 73.1431Z" fill="black"/>
<path d="M131.974 75.3827C138.288 75.3827 143.406 69.176 143.406 61.5197C143.406 53.8634 138.288 47.6567 131.974 47.6567C125.66 47.6567 120.542 53.8634 120.542 61.5197C120.542 69.176 125.66 75.3827 131.974 75.3827Z" fill="#FDC2CC"/>
<path opacity="0.1" d="M143.406 91.1238L128.876 95.238C128.876 95.238 121.722 87.904 123.492 83.9687C124.1 82.6164 124.368 80.3089 124.46 77.869C124.781 79.9907 125.72 81.9017 127.106 83.2532C130.425 85.9364 129.909 89.2456 129.909 89.2456L135.883 88.9773C135.514 86.0258 137.727 84.4159 138.464 84.0582C139.202 83.7004 138.833 82.0905 138.833 82.0905L139.488 76.5883C140.285 78.3091 141.267 78.3341 141.267 78.3341L143.406 91.1238Z" fill="black"/>
<path opacity="0.1" d="M157.862 192.458C157.862 192.458 157.629 193.774 157.296 195.685C155.691 195.581 153.569 195.506 152.625 195.767C151.003 196.214 144.512 196.393 144.512 196.393L128.434 197.084V196.482C126.584 196.501 124.737 196.65 122.902 196.93C120.173 197.377 115.896 196.751 113.167 196.214C112.327 196.068 111.504 195.799 110.718 195.413C110.986 193.059 111.396 191.027 111.396 191.027L157.862 192.458Z" fill="black"/>
<path d="M156.608 135.664C156.375 137.335 156.546 140.104 156.841 142.837C157.287 146.984 158.009 151.048 158.009 151.048C158.009 151.048 161.033 174.302 159.337 177.343C157.641 180.384 159.337 195.141 159.337 195.141C159.337 195.141 154.248 194.604 152.625 195.052C151.003 195.499 144.512 195.678 144.512 195.678L128.434 196.368V195.767C126.584 195.785 124.737 195.934 122.902 196.214C120.173 196.661 115.896 196.035 113.167 195.499C110.438 194.962 109.331 193.889 109.626 193.352C109.921 192.816 109.331 178.148 109.331 178.148L109.258 166.252C109.258 166.252 109.184 157.845 110.88 155.967C111.573 155.201 112.143 152.371 112.577 149.295C113.199 144.841 113.535 139.868 113.535 139.868L102.325 103.466L102.103 102.751C102.103 102.751 105.349 96.6691 104.832 93.7176C104.316 90.7661 107.856 88.1724 107.856 88.1724C107.856 88.1724 114.568 84.5948 115.01 83.5216C115.453 82.4483 120.1 82.18 120.1 82.18C120.1 82.18 122.755 80.4807 123.212 79.3788C123.323 79.071 123.493 78.7998 123.708 78.5876C123.923 78.3755 124.177 78.2285 124.448 78.1588C124.761 80.3065 125.705 82.2438 127.106 83.611C130.425 86.2942 129.909 89.6034 129.909 89.6034L135.883 89.3351C135.514 86.3836 137.727 84.7737 138.464 84.416C139.202 84.0582 138.833 82.4483 138.833 82.4483L139.524 76.6563C139.842 75.6939 142.078 79.3788 142.078 79.3788C142.078 79.3788 147.758 81.7328 148.126 81.9117C148.495 82.0906 153.289 83.8793 153.289 83.8793C153.289 83.8793 159.19 88.5302 159.19 89.6929C159.19 90.8556 162.435 97.1163 162.435 97.1163C162.435 97.1163 162.396 97.3667 162.326 97.8246C161.576 102.754 157.148 131.818 156.608 135.664Z" fill="#409DFE"/>
<path d="M133.007 121.175C133.007 121.175 120.247 117.061 118.993 116.077C117.739 115.093 110.364 120.817 119.362 128.599C119.362 128.599 130.365 131.371 133.308 128.599C136.252 125.826 133.007 121.175 133.007 121.175Z" fill="#FDC2CC"/>
<path opacity="0.1" d="M160.591 96.6691L162.14 96.7585L166.713 111.605C166.713 111.605 169.441 119.386 169.958 120.639C170.474 121.891 170.253 127.078 169.958 128.599C169.663 130.119 167.745 136.827 167.671 138.526C167.598 140.226 164.131 141.925 160.591 141.657C157.051 141.388 148.79 142.73 148.79 142.73C148.79 142.73 139.968 141.612 134.555 144.966C134.555 144.966 131.089 136.29 131.458 120.102C131.458 120.102 137.579 119.655 139.128 120.37C140.677 121.086 148.2 123.143 149.159 122.07C150.118 120.996 154.469 124.037 154.469 124.037C154.691 123.448 154.805 122.807 154.805 122.159C154.805 121.511 154.691 120.871 154.469 120.281C153.732 118.134 152.478 111.426 154.101 109.28C155.723 107.133 160.591 96.6691 160.591 96.6691Z" fill="black"/>
<path opacity="0.1" d="M156.841 142.837C153.18 143.138 149.085 143.803 149.085 143.803C149.085 143.803 140.264 142.683 134.85 146.039C134.85 146.039 131.384 137.364 131.753 121.175C131.753 121.175 137.874 120.728 139.423 121.444C140.972 122.159 148.495 124.216 149.454 123.143C150.413 122.07 154.764 125.111 154.764 125.111C154.986 124.521 155.1 123.88 155.1 123.232C155.1 122.584 154.986 121.944 154.764 121.354C154.027 119.208 152.773 112.5 154.395 110.353C156.018 108.207 160.886 97.7423 160.886 97.7423L162.326 97.8246C161.576 102.754 157.148 131.818 156.608 135.664C156.375 137.335 156.546 140.104 156.841 142.837Z" fill="black"/>
<path d="M160.886 97.0269L162.435 97.1163L167.008 111.963C167.008 111.963 169.736 119.744 170.253 120.996C170.769 122.249 170.548 127.436 170.253 128.956C169.958 130.477 168.04 137.185 167.966 138.884C167.893 140.583 164.426 142.283 160.886 142.014C157.346 141.746 149.085 143.088 149.085 143.088C149.085 143.088 140.263 141.97 134.85 145.324C134.85 145.324 131.384 136.648 131.753 120.46C131.753 120.46 137.874 120.013 139.423 120.728C140.972 121.444 148.495 123.501 149.454 122.427C150.413 121.354 154.764 124.395 154.764 124.395C154.986 123.805 155.1 123.165 155.1 122.517C155.1 121.869 154.986 121.228 154.764 120.639C154.027 118.492 152.773 111.784 154.395 109.638C156.018 107.491 160.886 97.0269 160.886 97.0269Z" fill="#409DFE"/>
<path d="M145.304 129.879L147.144 131.26L157.399 111.175L155.559 109.794L145.304 129.879Z" fill="#DFE6F5"/>
<path d="M162.658 108.455C164.471 104.906 164.276 100.778 162.222 99.2369C160.169 97.6953 157.036 99.3232 155.223 102.873C153.411 106.422 153.606 110.55 155.659 112.091C157.712 113.633 160.846 112.005 162.658 108.455Z" fill="#DFE6F5"/>
<path opacity="0.1" d="M161.609 107.668C162.91 105.12 162.77 102.157 161.296 101.051C159.823 99.944 157.573 101.113 156.272 103.66C154.971 106.208 155.111 109.171 156.585 110.278C158.059 111.384 160.308 110.216 161.609 107.668Z" fill="black"/>
<path d="M140.062 140.144L141.902 141.526L148.283 129.029L146.443 127.647L140.062 140.144Z" fill="#53526B"/>
<path d="M129.245 141.031L133.744 139.51C133.744 139.51 155.944 140.226 148.495 129.135C148.495 129.135 144.586 124.574 136.399 128.241C128.213 131.908 125.926 132.355 125.926 132.355L129.245 141.031Z" fill="#FDC2CC"/>
<path opacity="0.1" d="M125.926 94.2542C126.415 94.2542 126.811 93.7737 126.811 93.1809C126.811 92.5882 126.415 92.1077 125.926 92.1077C125.437 92.1077 125.041 92.5882 125.041 93.1809C125.041 93.7737 125.437 94.2542 125.926 94.2542Z" fill="black"/>
<path opacity="0.1" d="M141.12 93.6281C141.608 93.6281 142.005 93.1476 142.005 92.5548C142.005 91.9621 141.608 91.4816 141.12 91.4816C140.631 91.4816 140.235 91.9621 140.235 92.5548C140.235 93.1476 140.631 93.6281 141.12 93.6281Z" fill="black"/>
<path d="M125.926 93.8964C126.415 93.8964 126.811 93.4159 126.811 92.8231C126.811 92.2304 126.415 91.7499 125.926 91.7499C125.437 91.7499 125.041 92.2304 125.041 92.8231C125.041 93.4159 125.437 93.8964 125.926 93.8964Z" fill="white"/>
<path opacity="0.1" d="M127.18 109.101C127.669 109.101 128.065 108.62 128.065 108.028C128.065 107.435 127.669 106.954 127.18 106.954C126.691 106.954 126.295 107.435 126.295 108.028C126.295 108.62 126.691 109.101 127.18 109.101Z" fill="black"/>
<path opacity="0.1" d="M141.562 108.028C142.051 108.028 142.447 107.547 142.447 106.954C142.447 106.362 142.051 105.881 141.562 105.881C141.073 105.881 140.677 106.362 140.677 106.954C140.677 107.547 141.073 108.028 141.562 108.028Z" fill="black"/>
<path d="M127.18 108.743C127.669 108.743 128.065 108.263 128.065 107.67C128.065 107.077 127.669 106.597 127.18 106.597C126.691 106.597 126.295 107.077 126.295 107.67C126.295 108.263 126.691 108.743 127.18 108.743Z" fill="white"/>
<path opacity="0.1" d="M141.193 159.819C141.682 159.819 142.078 159.338 142.078 158.746C142.078 158.153 141.682 157.672 141.193 157.672C140.705 157.672 140.308 158.153 140.308 158.746C140.308 159.338 140.705 159.819 141.193 159.819Z" fill="black"/>
<path opacity="0.1" d="M129.545 159.819C130.034 159.819 130.43 159.338 130.43 158.746C130.43 158.153 130.034 157.672 129.545 157.672C129.056 157.672 128.66 158.153 128.66 158.746C128.66 159.338 129.056 159.819 129.545 159.819Z" fill="black"/>
<path d="M141.193 159.461C141.682 159.461 142.078 158.98 142.078 158.388C142.078 157.795 141.682 157.314 141.193 157.314C140.705 157.314 140.308 157.795 140.308 158.388C140.308 158.98 140.705 159.461 141.193 159.461Z" fill="white"/>
<path opacity="0.1" d="M130.43 177.79C130.919 177.79 131.315 177.309 131.315 176.717C131.315 176.124 130.919 175.643 130.43 175.643C129.941 175.643 129.545 176.124 129.545 176.717C129.545 177.309 129.941 177.79 130.43 177.79Z" fill="black"/>
<path opacity="0.1" d="M141.562 176.717C142.051 176.717 142.447 176.236 142.447 175.643C142.447 175.051 142.051 174.57 141.562 174.57C141.073 174.57 140.677 175.051 140.677 175.643C140.677 176.236 141.073 176.717 141.562 176.717Z" fill="black"/>
<path d="M130.43 177.432C130.919 177.432 131.315 176.952 131.315 176.359C131.315 175.766 130.919 175.286 130.43 175.286C129.941 175.286 129.545 175.766 129.545 176.359C129.545 176.952 129.941 177.432 130.43 177.432Z" fill="white"/>
<path d="M129.545 159.461C130.034 159.461 130.43 158.98 130.43 158.388C130.43 157.795 130.034 157.314 129.545 157.314C129.056 157.314 128.66 157.795 128.66 158.388C128.66 158.98 129.056 159.461 129.545 159.461Z" fill="white"/>
<path d="M141.562 176.359C142.051 176.359 142.447 175.878 142.447 175.286C142.447 174.693 142.051 174.212 141.562 174.212C141.073 174.212 140.677 174.693 140.677 175.286C140.677 175.878 141.073 176.359 141.562 176.359Z" fill="white"/>
<path d="M141.12 93.2704C141.608 93.2704 142.005 92.7899 142.005 92.1972C142.005 91.6044 141.608 91.1239 141.12 91.1239C140.631 91.1239 140.235 91.6044 140.235 92.1972C140.235 92.7899 140.631 93.2704 141.12 93.2704Z" fill="white"/>
<path d="M141.562 107.67C142.051 107.67 142.447 107.189 142.447 106.597C142.447 106.004 142.051 105.523 141.562 105.523C141.073 105.523 140.677 106.004 140.677 106.597C140.677 107.189 141.073 107.67 141.562 107.67Z" fill="white"/>
<path opacity="0.1" d="M142.89 144.25C142.89 144.25 143.037 168.757 143.48 173.139C143.48 173.139 143.64 145.406 142.89 144.25Z" fill="black"/>
<path opacity="0.1" d="M146.651 155.609C146.347 155.609 152.699 184.319 152.994 186.376C153.289 188.433 148.421 155.609 146.651 155.609Z" fill="black"/>
<path opacity="0.1" d="M151.667 150.958C151.667 151.227 155.207 166.521 156.977 167.326C158.747 168.13 151.667 150.958 151.667 150.958Z" fill="black"/>
<path opacity="0.1" d="M165.606 121.175C165.606 121.175 158.083 121.582 157.862 122.899C157.641 124.216 165.606 121.175 165.606 121.175Z" fill="black"/>
<path opacity="0.1" d="M152.33 237.803C152.33 237.803 146.946 240.576 147.758 240.755C148.569 240.934 152.33 237.803 152.33 237.803Z" fill="black"/>
<path opacity="0.1" d="M141.193 233.689C140.984 233.117 144.807 236.014 144.807 236.372C144.807 236.73 141.488 234.494 141.193 233.689Z" fill="black"/>
<path opacity="0.1" d="M146.209 243.08C146.209 243.08 150.413 242.823 150.708 244.785C151.003 246.747 146.209 243.08 146.209 243.08Z" fill="black"/>
<path opacity="0.1" d="M115.969 243.069C115.969 243.069 120.542 241.985 120.911 243.069C121.28 244.153 115.969 243.069 115.969 243.069Z" fill="black"/>
<path opacity="0.1" d="M117.666 276.798C117.666 276.798 117.965 281.36 116.857 282.433C115.748 283.506 117.666 276.798 117.666 276.798Z" fill="black"/>
<path opacity="0.1" d="M117.107 286.458C118.551 286.637 126.147 285.027 126.074 286.458C126 287.889 117.107 286.458 117.107 286.458Z" fill="black"/>
<path opacity="0.1" d="M151.962 280.913C151.962 280.913 149.371 280.43 150.002 282.549L151.962 280.913Z" fill="black"/>
<path opacity="0.1" d="M103.8 102.393H102.398L100.259 111.874C100.259 111.874 99.5219 115.183 98.7844 115.988C98.0468 116.793 99.4482 124.127 99.4482 124.127C99.4482 124.127 98.6369 129.314 97.9731 130.656C97.3093 131.997 99.0057 135.307 99.0057 135.307L102.398 144.966L111.396 147.828C111.396 147.828 127.254 152.032 127.991 152.658C128.729 153.284 129.393 152.389 129.909 146.576C130.425 140.762 131.827 129.493 132.933 128.956C132.933 128.956 124.082 130.119 123.345 129.94C122.607 129.761 119.067 130.03 119.067 130.03C119.067 130.03 114.42 129.672 113.683 130.209C112.945 130.745 114.642 127.611 114.642 127.611C114.952 126.176 114.952 124.668 114.642 123.232C114.125 120.818 113.83 93.4493 103.8 102.393Z" fill="black"/>
<path opacity="0.1" d="M132.638 130.03C131.532 130.566 130.13 141.836 129.614 147.649C129.098 153.463 128.434 154.357 127.696 153.731C127.097 153.223 116.527 150.354 112.577 149.295C113.199 144.841 113.535 139.868 113.535 139.868L102.325 103.466H103.505C113.535 94.5225 113.83 121.891 114.347 124.306C114.657 125.741 114.657 127.249 114.347 128.685C114.347 128.685 112.65 131.818 113.388 131.282C114.125 130.745 118.772 131.103 118.772 131.103C118.772 131.103 122.312 130.835 123.05 131.013C123.787 131.192 132.638 130.03 132.638 130.03Z" fill="black"/>
<path d="M103.505 102.751H102.103L99.9645 112.231C99.9645 112.231 99.2269 115.541 98.4894 116.345C97.7518 117.15 99.1532 124.484 99.1532 124.484C99.1532 124.484 98.3419 129.672 97.6781 131.013C97.0143 132.355 98.7106 135.664 98.7106 135.664L102.103 145.324L111.101 148.186C111.101 148.186 126.959 152.389 127.696 153.015C128.434 153.641 129.098 152.747 129.614 146.934C130.13 141.12 131.532 129.851 132.638 129.314C132.638 129.314 123.787 130.477 123.05 130.298C122.312 130.119 118.772 130.387 118.772 130.387C118.772 130.387 114.125 130.03 113.388 130.566C112.65 131.103 114.347 127.969 114.347 127.969C114.657 126.533 114.657 125.025 114.347 123.59C113.83 121.175 113.535 93.807 103.505 102.751Z" fill="#409DFE"/>
<path opacity="0.1" d="M108.299 135.128C108.299 135.128 104.242 144.429 103.505 143.356C102.767 142.283 108.299 135.128 108.299 135.128Z" fill="black"/>
<path opacity="0.1" d="M104.095 129.831C104.095 129.831 100.333 133.607 102.103 134.591C103.873 135.575 104.095 129.831 104.095 129.831Z" fill="black"/>
<path opacity="0.1" d="M107.635 125.2C107.93 125.289 113.093 126.533 113.167 127.074C113.24 127.615 107.635 125.2 107.635 125.2Z" fill="black"/>
<path opacity="0.1" d="M143.438 59.6808C143.278 59.7493 143.141 59.8809 143.05 60.0547C142.958 60.2285 142.918 60.4344 142.934 60.6396C142.633 60.9616 142.211 60.5824 141.966 60.171C141.719 59.7631 141.438 59.2587 141.064 59.3159C140.886 59.3848 140.713 59.4722 140.547 59.5771C139.957 59.806 139.459 58.9653 139.128 58.2284C138.553 56.9369 137.978 55.6466 137.402 54.3575C136.249 55.1696 134.886 54.3181 133.741 53.4774C132.597 52.6366 131.234 51.7816 130.077 52.5937C128.381 53.7815 128.319 57.7418 126.56 58.7185C125.994 59.0333 125.336 58.9653 124.811 59.3982C124.292 59.8275 124.011 60.6539 123.778 61.4446C123.692 61.8946 123.49 62.2995 123.2 62.6001C123.016 62.7167 122.812 62.7769 122.604 62.7754C122.083 62.8828 121.547 62.7916 121.07 62.5142C120.82 62.3238 120.631 62.0356 120.535 61.6974C120.438 61.3591 120.44 60.991 120.539 60.6539C120.553 60.6182 120.569 60.5836 120.586 60.5502C120.775 60.2731 120.945 59.9776 121.094 59.6665C121.271 59.0977 121.017 58.4359 121.073 57.8205C121.165 56.7687 122.082 56.2142 122.238 55.1803C122.303 54.776 122.235 54.3432 122.297 53.9353C122.306 53.8819 122.318 53.8293 122.333 53.7779L121.793 54.2287C122.398 53.3736 122.702 52.1859 123.144 51.1484C123.636 50.0124 124.312 49.0092 125.133 48.1994C125.953 47.3895 126.901 46.7899 127.918 46.4367C129.841 45.7571 131.874 45.9431 133.815 46.5191C135.661 47.0767 137.429 47.9603 139.063 49.1414C139.647 49.521 140.166 50.0322 140.592 50.6475C140.948 51.2855 141.252 51.965 141.497 52.676C142.07 54.1142 143.633 55.445 142.388 55.6453C141.353 55.8135 142.297 56.6936 142.84 57.2874C142.962 57.4039 143.068 57.5441 143.152 57.7024C143.242 57.9287 143.284 58.179 143.272 58.4299C143.261 58.6808 143.197 58.9241 143.087 59.137C142.878 59.459 143.728 59.5234 143.438 59.6808Z" fill="black"/>
<path d="M143.438 59.3231C143.278 59.3915 143.141 59.5231 143.05 59.6969C142.958 59.8707 142.918 60.0767 142.934 60.2818C142.633 60.6038 142.211 60.2246 141.966 59.8132C141.719 59.4053 141.438 58.9009 141.064 58.9581C140.886 59.027 140.713 59.1144 140.547 59.2193C139.957 59.4483 139.459 58.6076 139.128 57.8706C138.553 56.5791 137.978 55.2888 137.402 53.9997C136.249 54.8118 134.886 53.9603 133.741 53.1196C132.597 52.2789 131.234 51.4238 130.077 52.2359C128.381 53.4237 128.319 57.384 126.56 58.3607C125.994 58.6755 125.336 58.6076 124.811 59.0404C124.292 59.4697 124.011 60.2961 123.778 61.0868C123.692 61.5369 123.49 61.9417 123.2 62.2423C123.016 62.3589 122.812 62.4191 122.604 62.4177C122.083 62.5251 121.547 62.4338 121.07 62.1565C120.82 61.966 120.631 61.6778 120.535 61.3396C120.438 61.0013 120.44 60.6332 120.539 60.2961C120.553 60.2604 120.569 60.2258 120.586 60.1924C120.775 59.9154 120.945 59.6198 121.094 59.3088C121.271 58.7399 121.017 58.0781 121.073 57.4627C121.165 56.411 122.082 55.8564 122.238 54.8225C122.303 54.4182 122.235 53.9854 122.297 53.5775C122.306 53.5241 122.318 53.4715 122.333 53.4201L121.793 53.8709C122.398 53.0159 122.702 51.8281 123.144 50.7906C123.636 49.6547 124.312 48.6514 125.133 47.8416C125.953 47.0317 126.9 46.4321 127.918 46.079C129.841 45.3993 131.874 45.5853 133.815 46.1613C135.661 46.7189 137.429 47.6025 139.063 48.7836C139.647 49.1632 140.166 49.6744 140.592 50.2898C140.948 50.9277 141.252 51.6072 141.497 52.3182C142.07 53.7564 143.633 55.0872 142.388 55.2876C141.353 55.4557 142.297 56.3358 142.84 56.9297C142.962 57.0461 143.068 57.1863 143.152 57.3447C143.242 57.5709 143.284 57.8212 143.272 58.0721C143.261 58.323 143.197 58.5663 143.087 58.7793C142.878 59.1013 143.728 59.1657 143.438 59.3231Z" fill="#FDD51F"/>
<path opacity="0.1" d="M142.84 56.9297L142.722 58.4358C142.722 58.4358 130.343 39.4105 120.713 60.8936C120.713 60.8936 120.666 60.6324 120.586 60.1924C120.775 59.9154 120.945 59.6198 121.094 59.3088C121.271 58.7399 121.017 58.0781 121.073 57.4627C121.165 56.411 122.082 55.8564 122.238 54.8225C122.303 54.4182 122.235 53.9854 122.297 53.5775C122.306 53.5241 122.318 53.4715 122.333 53.4201L121.793 53.8709C122.398 53.0159 122.702 51.8281 123.144 50.7906C123.636 49.6547 124.312 48.6514 125.133 47.8416C125.953 47.0317 126.901 46.4321 127.918 46.079C129.841 45.3993 131.874 45.5853 133.815 46.1613C135.661 46.7189 137.429 47.6025 139.063 48.7836C139.647 49.1632 140.166 49.6744 140.592 50.2898C140.948 50.9277 141.252 51.6072 141.497 52.3182C142.07 53.7564 143.633 55.0872 142.388 55.2876C141.353 55.4557 142.297 56.3358 142.84 56.9297Z" fill="black"/>
<g opacity="0.1">
<path d="M143.145 59.1282C143.084 59.2114 143.039 59.3106 143.015 59.418C142.991 59.5254 142.987 59.6381 143.005 59.7474C142.704 60.0694 142.282 59.6902 142.037 59.2788C141.789 58.8709 141.509 58.3665 141.134 58.4238C140.956 58.4926 140.783 58.58 140.618 58.6849C140.028 58.9139 139.529 58.0732 139.199 57.3362C138.623 56.0447 138.048 54.7544 137.473 53.4653C136.319 54.2774 134.956 53.4259 133.812 52.5852C132.667 51.7445 131.304 50.8894 130.148 51.7016C128.451 52.8893 128.389 56.8496 126.631 57.8263C126.065 58.1411 125.407 58.0731 124.881 58.506C124.362 58.9353 124.082 59.7617 123.849 60.5524C123.763 61.0025 123.56 61.4073 123.271 61.7079C123.087 61.8245 122.882 61.8847 122.675 61.8832C122.153 61.9907 121.617 61.8994 121.141 61.6221C120.855 61.3923 120.65 61.0417 120.566 60.6386C120.507 60.9591 120.531 61.2937 120.634 61.5974C120.736 61.9011 120.913 62.1594 121.141 62.3376C121.617 62.6149 122.153 62.7062 122.675 62.5988C122.882 62.6002 123.087 62.54 123.271 62.4234C123.56 62.1228 123.763 61.718 123.849 61.2679C124.082 60.4773 124.362 59.6508 124.881 59.2216C125.407 58.7887 126.064 58.8566 126.631 58.5418C128.389 57.5651 128.451 53.6048 130.148 52.4171C131.304 51.6049 132.667 52.46 133.812 53.3007C134.956 54.1414 136.319 54.9929 137.473 54.1808C138.048 55.4687 138.623 56.759 139.199 58.0517C139.529 58.7887 140.028 59.6294 140.618 59.4004C140.783 59.2955 140.956 59.2081 141.134 59.1393C141.509 59.082 141.789 59.5865 142.037 59.9943C142.282 60.4057 142.704 60.7849 143.005 60.463C142.988 60.2578 143.029 60.0518 143.12 59.878C143.212 59.7042 143.349 59.5726 143.509 59.5042C143.739 59.379 143.25 59.3122 143.145 59.1282Z" fill="black"/>
<path d="M142.18 55.5539C142.269 55.5104 142.363 55.4817 142.459 55.4687C143.008 55.3803 143.01 55.0719 142.793 54.6317C142.689 54.6993 142.576 54.7406 142.459 54.7531C141.866 54.8493 141.923 55.1786 142.18 55.5539Z" fill="black"/>
<path d="M143.31 58.5507C143.351 58.32 143.35 58.0812 143.307 57.8511C143.281 57.9937 143.23 58.1279 143.158 58.2449C143.065 58.3869 143.179 58.4788 143.31 58.5507Z" fill="black"/>
<path d="M121.16 57.5201C121.154 57.561 121.147 57.6014 121.144 57.6439C121.132 57.9661 121.151 58.2889 121.2 58.6056C121.235 58.2435 121.221 57.8769 121.16 57.5201Z" fill="black"/>
<path d="M122.358 53.1553C122.22 53.4742 122.054 53.7747 121.863 54.052L122.34 53.6544C122.337 53.4877 122.344 53.321 122.358 53.1553Z" fill="black"/>
</g>
<path d="M120.713 60.5358C120.713 60.5358 118.932 50.8858 119.499 49.3382C119.499 49.3382 117.961 45.5146 117.961 44.6042C117.887 43.0851 117.497 41.6133 116.829 40.3254C116.019 38.7778 115.129 31.5858 119.984 29.8561C124.839 28.1264 128.561 26.5787 129.128 25.3953C129.694 24.2118 138.028 24.9401 140.294 29.492C142.56 34.0438 144.016 33.1335 144.016 33.1335C144.016 33.1335 147.495 35.7736 147.495 38.1405C147.495 40.5075 146.444 41.691 147.495 42.2372C148.547 42.7835 147.738 52.6155 143.126 52.8886L142.721 58.0778C142.721 58.0778 130.341 39.0509 120.713 60.5358Z" fill="#409DFE"/>
<path opacity="0.1" d="M121.243 31.7366C121.243 31.7366 120.173 39.3389 122.128 41.8879L121.243 31.7366Z" fill="black"/>
<path opacity="0.1" d="M126.258 29.9926C126.258 29.9926 123.529 38.1315 124.193 39.6966L126.258 29.9926Z" fill="black"/>
<path opacity="0.1" d="M128.618 27.3988C128.618 27.3988 126.774 37.9973 127.659 38.8469L128.618 27.3988Z" fill="black"/>
<path opacity="0.1" d="M131.79 30.2609C131.79 30.2609 129.503 37.0582 130.425 37.9973L131.79 30.2609Z" fill="black"/>
<path opacity="0.1" d="M136.104 31.0658C136.104 31.0658 133.412 36.611 133.965 37.5948L136.104 31.0658Z" fill="black"/>
<path opacity="0.1" d="M141.636 36.4769C141.636 36.4769 138.759 37.416 139.35 38.534L141.636 36.4769Z" fill="black"/>
<path opacity="0.1" d="M144.365 42.2457C144.365 42.2457 141.783 43.7662 142.263 44.5711L144.365 42.2457Z" fill="black"/>
<path opacity="0.1" d="M119.499 49.3382C119.499 49.3382 135.987 41.2168 143.126 52.8887C143.126 52.8887 134.46 43.9541 119.499 49.3382Z" fill="black"/>
<path d="M113.541 116.069L115.838 113.251L122.334 121.037L120.036 123.856L114.062 116.695L113.541 116.069Z" fill="#53526B"/>
<path d="M98.4686 98.0023C98.4686 98.0023 108.524 99.0399 117.883 111.814L113.982 116.599L98.4686 98.0023Z" fill="#DFE6F5"/>
<path d="M128.629 120.842C128.629 120.842 118.964 116.57 118.015 115.548C117.065 114.527 111.478 120.471 118.294 128.551C118.294 128.551 126.628 131.43 128.858 128.551C131.087 125.672 128.629 120.842 128.629 120.842Z" fill="#FDC2CC"/>
<path d="M307.527 202.499H305.562V256.117H307.527V202.499Z" fill="#535461"/>
<path d="M319.87 255.954L319.746 258.369L319.572 261.777L319.5 263.199L319.326 266.611L319.251 268.033L319.077 271.44L317.096 310.208C317.011 311.876 316.404 313.442 315.4 314.587C314.396 315.731 313.07 316.369 311.692 316.369H301.398C300.02 316.368 298.694 315.731 297.691 314.586C296.687 313.442 296.081 311.876 295.997 310.208L294.012 271.44L293.838 268.033L293.766 266.611L293.589 263.199L293.517 261.777L293.344 258.369L293.219 255.954C293.196 255.491 293.251 255.027 293.381 254.59C293.511 254.153 293.713 253.753 293.976 253.415C294.238 253.077 294.555 252.807 294.906 252.623C295.258 252.439 295.637 252.344 296.02 252.344H317.073C317.456 252.344 317.835 252.439 318.186 252.623C318.537 252.808 318.854 253.077 319.116 253.416C319.378 253.754 319.58 254.154 319.71 254.59C319.839 255.027 319.894 255.491 319.87 255.954Z" fill="#FDD51F"/>
<path d="M319.746 258.369L319.572 261.777H293.517L293.344 258.369H319.746Z" fill="#9D9CB5"/>
<path d="M319.5 263.199L319.326 266.611H293.766L293.589 263.199H319.5Z" fill="#9D9CB5"/>
<path d="M319.251 268.032L319.078 271.44H294.012L293.839 268.032H319.251Z" fill="#9D9CB5"/>
<path d="M290.344 222.596C301.782 232.63 306.545 248.324 306.545 248.324C306.545 248.324 292.762 247.751 281.324 237.717C269.886 227.684 265.124 211.99 265.124 211.99C265.124 211.99 278.906 212.563 290.344 222.596Z" fill="#409DFE"/>
<path d="M265.124 211.99C265.124 211.99 279.429 221.619 284.019 229.591C288.608 237.563 306.545 248.324 306.545 248.324" stroke="#535461" stroke-width="2" stroke-miterlimit="10"/>
<path d="M297.727 202.38C303.953 207.841 306.545 216.384 306.545 216.384C306.545 216.384 299.043 216.072 292.817 210.611C286.592 205.15 284 196.607 284 196.607C284 196.607 291.501 196.919 297.727 202.38Z" fill="#409DFE"/>
<path d="M284 196.607C284 196.607 291.786 201.849 294.284 206.188C296.782 210.527 306.545 216.384 306.545 216.384" stroke="#535461" stroke-width="2" stroke-miterlimit="10"/>
<path d="M315.592 215.949C308.441 225.48 306.928 237.933 306.928 237.933C306.928 237.933 317.009 234.933 324.16 225.402C331.311 215.872 332.823 203.419 332.823 203.419C332.823 203.419 322.742 206.418 315.592 215.949Z" fill="#409DFE"/>
<path d="M332.823 203.419C332.823 203.419 323.509 213.188 321.142 219.919C318.774 226.651 306.928 237.933 306.928 237.933" stroke="#535461" stroke-width="2" stroke-miterlimit="10"/>
</g>
<defs>
<linearGradient id="paint0_linear_30_1809" x1="134.043" y1="316.291" x2="134.043" y2="23.6163" gradientUnits="userSpaceOnUse">
<stop stop-color="#808080" stop-opacity="0.25"/>
<stop offset="0.53514" stop-color="#808080" stop-opacity="0.12"/>
<stop offset="1" stop-color="#808080" stop-opacity="0.1"/>
</linearGradient>
<clipPath id="clip0_30_1809">
<rect width="338" height="319" fill="white"/>
</clipPath>
</defs>
</svg>
