<svg width="337" height="316" viewBox="0 0 337 316" fill="none" xmlns="http://www.w3.org/2000/svg">
<g clip-path="url(#clip0_29_1419)">
<path d="M74.6762 31.6541H53.185C51.1189 31.6565 49.1379 32.7498 47.6769 34.6939C46.2159 36.638 45.3943 39.2741 45.3924 42.0235V73.0281C45.1177 73.0063 44.8429 72.9735 44.5722 72.9299C39.4807 72.2171 34.6402 69.6257 30.5963 65.4481C26.5524 61.2704 23.4659 55.6726 21.6849 49.2856C19.9039 42.8987 19.4992 35.9767 20.5164 29.3001C21.5336 22.6235 23.9323 16.4577 27.442 11.4981C30.9517 6.53842 35.4328 2.98208 40.3801 1.23C45.3275 -0.522074 50.5442 -0.400199 55.4423 1.58189C60.3403 3.56399 64.7249 7.32747 68.1016 12.448C71.4782 17.5686 73.7128 23.8425 74.5532 30.5625C74.5983 30.9227 74.6394 31.2884 74.6762 31.6541Z" fill="#F2F2F2"/>
<path d="M328.387 30.5625H53.1851C50.9016 30.5658 48.7123 31.7744 47.0976 33.923C45.4829 36.0716 44.5747 38.9848 44.5722 42.0235V235.222C44.5747 238.261 45.4829 241.174 47.0976 243.323C48.7123 245.471 50.9016 246.68 53.1851 246.683H328.387C330.671 246.68 332.86 245.471 334.475 243.323C336.089 241.174 336.998 238.261 337 235.222V42.0235C336.998 38.9848 336.089 36.0716 334.475 33.923C332.86 31.7744 330.671 30.5658 328.387 30.5625ZM336.18 235.222C336.178 237.972 335.356 240.608 333.895 242.552C332.434 244.496 330.453 245.589 328.387 245.592H53.1851C51.1189 245.589 49.1379 244.496 47.6769 242.552C46.216 240.608 45.3943 237.972 45.3925 235.222V42.0235C45.3943 39.2741 46.216 36.638 47.6769 34.6939C49.1379 32.7498 51.1189 31.6565 53.1851 31.654H328.387C330.453 31.6565 332.434 32.7498 333.895 34.6939C335.356 36.638 336.178 39.2741 336.18 42.0235V235.222Z" fill="#3F3D56"/>
<path d="M314.853 61.8725H66.7196C66.6108 61.8725 66.5065 61.815 66.4296 61.7127C66.3527 61.6103 66.3094 61.4715 66.3094 61.3268C66.3094 61.182 66.3527 61.0432 66.4296 60.9409C66.5065 60.8385 66.6108 60.781 66.7196 60.781H314.853C314.961 60.781 315.066 60.8385 315.143 60.9409C315.219 61.0432 315.263 61.182 315.263 61.3268C315.263 61.4715 315.219 61.6103 315.143 61.7127C315.066 61.815 314.961 61.8725 314.853 61.8725Z" fill="#3F3D56"/>
<path d="M136.853 223.216C136.744 223.216 136.64 223.158 136.563 223.056C136.486 222.953 136.443 222.815 136.443 222.67V43.115C136.443 42.9702 136.486 42.8314 136.563 42.7291C136.64 42.6267 136.744 42.5692 136.853 42.5692C136.962 42.5692 137.066 42.6267 137.143 42.7291C137.22 42.8314 137.263 42.9702 137.263 43.115V222.67C137.263 222.815 137.22 222.953 137.143 223.056C137.066 223.158 136.962 223.216 136.853 223.216Z" fill="#3F3D56"/>
<path d="M198.784 223.216C198.675 223.216 198.571 223.158 198.494 223.056C198.417 222.953 198.374 222.815 198.374 222.67V43.115C198.374 42.9702 198.417 42.8314 198.494 42.7291C198.571 42.6267 198.675 42.5692 198.784 42.5692C198.893 42.5692 198.997 42.6267 199.074 42.7291C199.151 42.8314 199.194 42.9702 199.194 43.115V222.67C199.194 222.815 199.151 222.953 199.074 223.056C198.997 223.158 198.893 223.216 198.784 223.216Z" fill="#3F3D56"/>
<path d="M260.714 223.216C260.606 223.216 260.501 223.158 260.424 223.056C260.348 222.953 260.304 222.815 260.304 222.67V43.115C260.304 42.9702 260.348 42.8314 260.424 42.7291C260.501 42.6267 260.606 42.5692 260.714 42.5692C260.823 42.5692 260.928 42.6267 261.004 42.7291C261.081 42.8314 261.125 42.9702 261.125 43.115V222.67C261.125 222.815 261.081 222.953 261.004 223.056C260.928 223.158 260.823 223.216 260.714 223.216Z" fill="#3F3D56"/>
<path d="M97.0352 118.205H82.0487C81.5594 118.204 81.0903 117.945 80.7443 117.485C80.3983 117.024 80.2037 116.4 80.2031 115.749V92.2158C80.2037 91.5647 80.3983 90.9404 80.7443 90.48C81.0903 90.0196 81.5594 89.7606 82.0487 89.7599H97.0352C97.5245 89.7606 97.9936 90.0196 98.3396 90.48C98.6856 90.9404 98.8802 91.5647 98.8808 92.2158V115.749C98.8802 116.4 98.6856 117.024 98.3396 117.485C97.9936 117.945 97.5245 118.204 97.0352 118.205Z" fill="#409DFE"/>
<path d="M118.362 185.333H103.376C102.887 185.332 102.417 185.073 102.071 184.613C101.725 184.153 101.531 183.528 101.53 182.877V159.344C101.531 158.693 101.725 158.069 102.071 157.608C102.417 157.148 102.887 156.889 103.376 156.888H118.362C118.852 156.889 119.321 157.148 119.667 157.608C120.013 158.069 120.207 158.693 120.208 159.344V182.877C120.207 183.528 120.013 184.153 119.667 184.613C119.321 185.073 118.852 185.332 118.362 185.333Z" fill="#409DFE"/>
<path d="M166.759 132.394H151.772C151.283 132.394 150.814 132.135 150.468 131.674C150.122 131.214 149.927 130.59 149.927 129.938V106.406C149.927 105.754 150.122 105.13 150.468 104.67C150.814 104.209 151.283 103.95 151.772 103.95H166.759C167.248 103.95 167.717 104.209 168.063 104.67C168.409 105.13 168.604 105.754 168.604 106.406V129.938C168.604 130.59 168.409 131.214 168.063 131.674C167.717 132.135 167.248 132.394 166.759 132.394Z" fill="#409DFE"/>
<path d="M229.51 106.744H214.523C214.034 106.743 213.565 106.484 213.219 106.024C212.873 105.563 212.678 104.939 212.677 104.288V80.7549C212.678 80.1037 212.873 79.4795 213.219 79.0191C213.565 78.5587 214.034 78.2997 214.523 78.299H229.51C229.999 78.2997 230.468 78.5587 230.814 79.0191C231.16 79.4795 231.355 80.1037 231.355 80.7549V104.288C231.355 104.939 231.16 105.563 230.814 106.024C230.468 106.484 229.999 106.743 229.51 106.744Z" fill="#409DFE"/>
<path d="M287.339 106.744H272.352C271.863 106.743 271.394 106.484 271.048 106.024C270.702 105.563 270.507 104.939 270.507 104.288V80.7549C270.507 80.1037 270.702 79.4795 271.048 79.0191C271.394 78.5587 271.863 78.2997 272.352 78.299H287.339C287.828 78.2997 288.297 78.5587 288.643 79.0191C288.989 79.4795 289.184 80.1037 289.184 80.7549V104.288C289.184 104.939 288.989 105.563 288.643 106.024C288.297 106.484 287.828 106.743 287.339 106.744Z" fill="#409DFE"/>
<path d="M313.998 113.293H299.011C298.522 113.292 298.053 113.033 297.707 112.573C297.361 112.112 297.166 111.488 297.166 110.837V87.3039C297.166 86.6528 297.361 86.0286 297.707 85.5681C298.053 85.1077 298.522 84.8488 299.011 84.848H313.998C314.487 84.8488 314.956 85.1077 315.302 85.5681C315.648 86.0286 315.843 86.6528 315.843 87.3039V110.837C315.843 111.488 315.648 112.112 315.302 112.573C314.956 113.033 314.487 113.292 313.998 113.293Z" fill="#E6E6E6"/>
<path d="M302.104 155.316H287.117C286.628 155.316 286.159 155.057 285.813 154.596C285.467 154.136 285.272 153.512 285.272 152.86V129.327C285.272 128.676 285.467 128.052 285.813 127.592C286.159 127.131 286.628 126.872 287.117 126.872H302.104C302.593 126.872 303.062 127.131 303.408 127.592C303.754 128.052 303.949 128.676 303.949 129.327V152.86C303.949 153.512 303.754 154.136 303.408 154.596C303.062 155.057 302.593 155.316 302.104 155.316Z" fill="#E6E6E6"/>
<path d="M251.247 146.584H236.26C235.771 146.583 235.302 146.324 234.956 145.864C234.61 145.404 234.415 144.779 234.415 144.128V120.595C234.415 119.944 234.61 119.32 234.956 118.86C235.302 118.399 235.771 118.14 236.26 118.139H251.247C251.736 118.14 252.205 118.399 252.551 118.86C252.897 119.32 253.092 119.944 253.092 120.595V144.128C253.092 144.779 252.897 145.404 252.551 145.864C252.205 146.324 251.736 146.583 251.247 146.584Z" fill="#FED100"/>
<path d="M222.127 155.316H207.141C206.651 155.316 206.182 155.057 205.836 154.596C205.49 154.136 205.296 153.512 205.295 152.86V129.327C205.296 128.676 205.49 128.052 205.836 127.592C206.182 127.131 206.651 126.872 207.141 126.872H222.127C222.616 126.872 223.085 127.131 223.431 127.592C223.778 128.052 223.972 128.676 223.973 129.327V152.86C223.972 153.512 223.778 154.136 223.431 154.596C223.085 155.057 222.616 155.316 222.127 155.316Z" fill="#E6E6E6"/>
<path d="M159.376 192.428H144.39C143.9 192.427 143.431 192.168 143.085 191.708C142.739 191.247 142.545 190.623 142.544 189.972V166.439C142.545 165.788 142.739 165.164 143.085 164.703C143.431 164.243 143.9 163.984 144.39 163.983H159.376C159.865 163.984 160.334 164.243 160.68 164.703C161.026 165.164 161.221 165.788 161.222 166.439V189.972C161.221 190.623 161.026 191.247 160.68 191.708C160.334 192.168 159.865 192.427 159.376 192.428Z" fill="#E6E6E6"/>
<path d="M83.5006 161.32H68.5142C68.0249 161.319 67.5558 161.06 67.2098 160.6C66.8637 160.139 66.6691 159.515 66.6686 158.864V135.331C66.6691 134.68 66.8637 134.055 67.2098 133.595C67.5558 133.135 68.0249 132.876 68.5142 132.875H83.5006C83.9899 132.876 84.4591 133.135 84.8051 133.595C85.1511 134.055 85.3457 134.68 85.3462 135.331V158.864C85.3457 159.515 85.1511 160.139 84.8051 160.6C84.4591 161.06 83.9899 161.319 83.5006 161.32Z" fill="#FED100"/>
<path d="M125.745 118.205H110.758C110.269 118.204 109.8 117.945 109.454 117.485C109.108 117.024 108.913 116.4 108.913 115.749V92.2158C108.913 91.5647 109.108 90.9404 109.454 90.48C109.8 90.0196 110.269 89.7606 110.758 89.7599H125.745C126.234 89.7606 126.703 90.0196 127.049 90.48C127.395 90.9404 127.59 91.5647 127.59 92.2158V115.749C127.59 116.4 127.395 117.024 127.049 117.485C126.703 117.945 126.234 118.204 125.745 118.205Z" fill="#E6E6E6"/>
<path d="M113.475 52.9387H90.0974C89.6623 52.9387 89.245 52.7087 88.9374 52.2993C88.6297 51.8899 88.4568 51.3346 88.4568 50.7557C88.4568 50.1767 88.6297 49.6214 88.9374 49.212C89.245 48.8026 89.6623 48.5726 90.0974 48.5726H113.475C113.91 48.5726 114.328 48.8026 114.635 49.212C114.943 49.6214 115.116 50.1767 115.116 50.7557C115.116 51.3346 114.943 51.8899 114.635 52.2993C114.328 52.7087 113.91 52.9387 113.475 52.9387Z" fill="#C1EEF4"/>
<path d="M179.507 52.9387H156.13C155.694 52.9387 155.277 52.7087 154.969 52.2993C154.662 51.8899 154.489 51.3346 154.489 50.7557C154.489 50.1767 154.662 49.6214 154.969 49.212C155.277 48.8026 155.694 48.5726 156.13 48.5726H179.507C179.942 48.5726 180.36 48.8026 180.667 49.212C180.975 49.6214 181.148 50.1767 181.148 50.7557C181.148 51.3346 180.975 51.8899 180.667 52.2993C180.36 52.7087 179.942 52.9387 179.507 52.9387Z" fill="#C1EEF4"/>
<path d="M241.438 52.9387H218.06C217.625 52.9387 217.208 52.7087 216.9 52.2993C216.593 51.8899 216.42 51.3346 216.42 50.7557C216.42 50.1767 216.593 49.6214 216.9 49.212C217.208 48.8026 217.625 48.5726 218.06 48.5726H241.438C241.873 48.5726 242.29 48.8026 242.598 49.212C242.906 49.6214 243.079 50.1767 243.079 50.7557C243.079 51.3346 242.906 51.8899 242.598 52.2993C242.29 52.7087 241.873 52.9387 241.438 52.9387Z" fill="#C1EEF4"/>
<path d="M299.267 52.9387H275.89C275.454 52.9387 275.037 52.7087 274.729 52.2993C274.422 51.8899 274.249 51.3346 274.249 50.7557C274.249 50.1767 274.422 49.6214 274.729 49.212C275.037 48.8026 275.454 48.5726 275.89 48.5726H299.267C299.702 48.5726 300.12 48.8026 300.427 49.212C300.735 49.6214 300.908 50.1767 300.908 50.7557C300.908 51.3346 300.735 51.8899 300.427 52.2993C300.12 52.7087 299.702 52.9387 299.267 52.9387Z" fill="#C1EEF4"/>
<path d="M61.1142 212.787C60.5142 212.709 59.9343 212.456 59.4154 212.048C58.8966 211.639 58.4514 211.084 58.1112 210.421C57.771 209.759 57.5441 209.005 57.4464 208.214C57.3488 207.422 57.3828 206.611 57.546 205.839L47.033 192.817L52.5915 190.94L62.9293 202.098C63.8862 202.549 64.6856 203.451 65.1759 204.634C65.6662 205.816 65.8135 207.198 65.5897 208.515C65.366 209.833 64.7868 210.995 63.962 211.783C63.1371 212.57 62.1239 212.927 61.1142 212.787Z" fill="#FEE8D8"/>
<path d="M75.631 309.038H80.6592L83.0512 283.23H75.6301L75.631 309.038Z" fill="#FEE8D8"/>
<path d="M90.3566 315.25L74.5537 315.251L74.5534 307.126L84.2506 307.126C85.8699 307.126 87.423 307.982 88.5681 309.505C89.7131 311.029 90.3565 313.095 90.3566 315.25Z" fill="#212121"/>
<path d="M41.1552 304.207L46.0145 305.928L53.3154 281.808L46.1441 279.268L41.1552 304.207Z" fill="#FEE8D8"/>
<path d="M54.1844 315.252L38.9133 309.843L40.4838 301.992L49.8548 305.311C51.4196 305.865 52.7549 307.224 53.5668 309.088C54.3788 310.953 54.601 313.17 54.1844 315.252Z" fill="#212121"/>
<path d="M82.0114 304.152H74.3389C73.8542 304.154 73.3865 303.915 73.0278 303.481C72.669 303.048 72.4453 302.451 72.4005 301.809L67.7428 237.446C67.7087 236.974 67.5523 236.533 67.3005 236.197C67.0486 235.862 66.7169 235.653 66.3622 235.607C66.0075 235.561 65.6517 235.68 65.3558 235.944C65.0599 236.209 64.8423 236.602 64.7402 237.056L51.2166 297.199C51.0735 297.838 50.7506 298.379 50.315 298.709C49.8794 299.039 49.3649 299.133 48.8788 298.97L41.7411 296.595C41.492 296.512 41.2577 296.365 41.0516 296.161C40.8455 295.957 40.6718 295.701 40.5404 295.408C40.4089 295.114 40.3225 294.789 40.2859 294.451C40.2493 294.112 40.2634 293.768 40.3273 293.437C40.4438 292.831 51.9796 232.842 52.0803 232.226C54.694 206.592 57.821 199.724 59.5009 196.034C59.64 195.728 59.7678 195.448 59.8828 195.182C60.0268 194.85 60.9132 191.556 61.4756 189.416C61.5486 189.068 61.6751 188.744 61.847 188.465C62.0189 188.185 62.2325 187.956 62.4743 187.791C69.533 182.988 77.7919 186.313 80.155 187.447C80.5467 187.63 80.8832 187.978 81.1139 188.437C88.203 202.666 84.724 285.305 83.9546 301.727C83.9226 302.384 83.7039 303 83.3431 303.45C82.9822 303.9 82.5061 304.151 82.0114 304.152Z" fill="#212121"/>
<path d="M62.2113 141.125C67.7747 141.125 72.2847 135.124 72.2847 127.721C72.2847 120.318 67.7747 114.317 62.2113 114.317C56.6479 114.317 52.1379 120.318 52.1379 127.721C52.1379 135.124 56.6479 141.125 62.2113 141.125Z" fill="#FEE8D8"/>
<path d="M61.144 192.019L61.0716 191.926C60.9358 191.751 47.5142 174.254 49.2512 158.075C49.9941 151.155 54.2017 146.734 61.419 145.288C64.0705 144.764 66.7751 145.531 69.0355 147.448C71.296 149.365 72.9605 152.304 73.723 155.723L80.8594 188.187L61.144 192.019Z" fill="#C1EEF4"/>
<path d="M54.2746 204.464L44.7109 191.818C44.0569 190.948 43.5822 189.87 43.3322 188.685C43.0823 187.501 43.0656 186.251 43.2837 185.055L47.9136 159.994C48.0523 159.244 48.3053 158.538 48.657 157.923C49.0087 157.307 49.4517 156.794 49.9584 156.416C50.4651 156.037 51.0248 155.801 51.6029 155.722C52.181 155.643 52.7651 155.722 53.3191 155.956C54.3752 156.409 55.2572 157.391 55.7785 158.694C56.2997 159.997 56.4193 161.519 56.1118 162.938L51.2375 184.985L59.1197 196.248L54.2746 204.464Z" fill="#C1EEF4"/>
<path d="M105.571 161.306C105.318 162.034 104.948 162.68 104.488 163.198C104.027 163.715 103.487 164.092 102.905 164.302C102.323 164.511 101.713 164.549 101.119 164.411C100.525 164.273 99.9611 163.964 99.4667 163.505L86.6993 172.31L87.2636 164.83L98.5822 155.509C99.2169 154.455 100.12 153.747 101.121 153.52C102.122 153.293 103.15 153.562 104.012 154.277C104.873 154.991 105.508 156.102 105.795 157.397C106.082 158.693 106.003 160.083 105.571 161.306Z" fill="#FEE8D8"/>
<path d="M98.0724 166.874L85.6263 174.031C84.7979 174.503 83.8921 174.684 82.9959 174.557C82.0997 174.429 81.2433 173.996 80.509 173.3L64.6823 158.211C64.2099 157.76 63.812 157.186 63.5133 156.522C63.2145 155.859 63.0212 155.121 62.9454 154.355C62.8695 153.588 62.9126 152.809 63.0722 152.065C63.2317 151.322 63.5042 150.63 63.8729 150.032C64.5812 148.895 65.5942 148.171 66.6973 148.011C67.8004 147.851 68.9069 148.269 69.7824 149.176L83.3532 163.389L94.1399 157.836L98.0724 166.874Z" fill="#C1EEF4"/>
<path d="M63.8813 132.016C65.124 129.944 67.4457 129.833 69.1527 128.466C71.3887 126.676 72.3132 122.675 71.5926 119.338C70.872 116 68.747 113.399 66.3107 112.155C63.8743 110.912 61.1637 110.896 58.5936 111.497C54.7669 112.393 50.9994 114.769 48.6656 118.903C46.3317 123.036 45.7378 129.09 47.8529 133.427C48.825 135.42 50.3257 137.065 50.7138 139.385C51.2233 142.43 49.6182 145.367 47.8985 147.487C45.9394 149.903 43.6918 151.926 41.9754 154.649C40.259 157.372 39.1144 161.093 39.8976 164.49C40.5538 167.337 42.4634 169.435 44.5574 170.485C46.6513 171.536 48.9319 171.687 51.1693 171.746C53.3419 171.802 55.6495 171.732 57.4797 170.173C59.4389 168.504 60.4851 165.338 60.5624 162.245C60.6396 159.151 59.8627 156.12 58.8215 153.352C58.2008 151.702 57.4792 150.103 57.0668 148.342C56.6544 146.58 56.583 144.581 57.2434 142.959C57.9376 141.254 59.3421 140.225 60.7723 139.851C60.8466 139.832 60.9252 139.814 61.0074 139.799C61.4143 139.729 61.8063 139.549 62.1597 139.272C62.513 138.994 62.8204 138.624 63.0632 138.184C63.306 137.744 63.4792 137.243 63.5723 136.711C63.6654 136.179 63.6765 135.628 63.605 135.09C63.442 133.882 63.4561 132.725 63.8813 132.016Z" fill="#212121"/>
<path d="M198.19 309.609H193.162L190.77 283.802L198.191 283.802L198.19 309.609Z" fill="#A0616A"/>
<path d="M189.57 307.698H199.268V315.822H183.465C183.465 314.755 183.623 313.699 183.929 312.713C184.236 311.727 184.686 310.832 185.253 310.077C185.82 309.323 186.493 308.724 187.234 308.316C187.975 307.908 188.769 307.698 189.57 307.698Z" fill="#212121"/>
<path d="M234.674 302.03L230.101 304.81L219.866 282.658L226.616 278.555L234.674 302.03Z" fill="#A0616A"/>
<path d="M226.236 305.057L235.057 299.696L237.594 307.086L223.219 315.823C222.886 314.852 222.7 313.804 222.671 312.738C222.643 311.671 222.772 310.608 223.052 309.608C223.333 308.609 223.758 307.692 224.304 306.911C224.851 306.13 225.507 305.5 226.236 305.057Z" fill="#212121"/>
<path d="M220.031 222.592C220.513 222.109 220.909 221.492 221.192 220.784C221.475 220.076 221.638 219.293 221.67 218.492C221.701 217.691 221.6 216.89 221.374 216.146C221.147 215.403 220.801 214.734 220.36 214.188L226.27 196.342L218.761 198.035L214.3 214.723C213.659 215.77 213.329 217.095 213.374 218.444C213.418 219.794 213.832 221.075 214.539 222.045C215.245 223.015 216.194 223.606 217.207 223.707C218.219 223.808 219.224 223.411 220.031 222.592Z" fill="#A0616A"/>
<path d="M197.87 302.805H193.066C192.6 302.802 192.152 302.567 191.811 302.145C191.47 301.722 191.261 301.145 191.225 300.527L188.606 207.443C188.586 207.086 188.626 206.728 188.721 206.393C188.816 206.059 188.965 205.756 189.158 205.507C189.35 205.257 189.581 205.066 189.835 204.948C190.088 204.829 190.358 204.786 190.626 204.82L218.406 208.746C218.857 208.805 219.275 209.081 219.582 209.524C219.889 209.966 220.064 210.542 220.073 211.144L220.655 252.205C220.658 252.427 220.69 252.648 220.751 252.856L232.146 292.179C232.234 292.483 232.276 292.807 232.269 293.133C232.262 293.458 232.207 293.778 232.106 294.075C232.005 294.372 231.861 294.639 231.682 294.861C231.502 295.082 231.292 295.254 231.062 295.367L226.195 297.754C225.772 297.961 225.307 297.955 224.887 297.737C224.467 297.52 224.122 297.106 223.915 296.573L209.916 260.351C209.84 260.154 209.784 259.944 209.751 259.727L207.359 244.395C207.29 243.95 207.104 243.553 206.834 243.275C206.565 242.996 206.23 242.854 205.889 242.875C205.548 242.895 205.224 243.077 204.974 243.387C204.725 243.697 204.566 244.114 204.527 244.565L199.703 300.628C199.652 301.227 199.437 301.78 199.098 302.181C198.76 302.583 198.323 302.805 197.87 302.805Z" fill="#212121"/>
<path d="M200.262 134.66C205.825 134.66 210.335 128.659 210.335 121.256C210.335 113.853 205.825 107.851 200.262 107.851C194.698 107.851 190.188 113.853 190.188 121.256C190.188 128.659 194.698 134.66 200.262 134.66Z" fill="#A0616A"/>
<path d="M207.17 215.954C200.339 215.854 193.67 213.166 187.945 208.205L187.847 208.115L187.858 207.957L191.711 148.242C191.844 146.216 192.523 144.323 193.624 142.912C194.725 141.501 196.172 140.669 197.698 140.568C202.692 140.263 209.4 140.648 212.991 144.206C218.417 149.585 221.032 157.683 220.166 166.426C218.37 184.555 220.405 209.011 220.643 211.74L220.66 211.936L220.525 212.019C216.341 214.609 211.784 215.952 207.17 215.954Z" fill="#409DFE"/>
<path d="M220.596 211.841C220.312 211.84 220.032 211.761 219.772 211.609C219.512 211.456 219.279 211.234 219.087 210.956L216.883 207.757C216.645 207.409 216.478 206.986 216.399 206.527C216.319 206.069 216.329 205.591 216.428 205.14L221.453 182.511L213.808 161.148C213.451 160.148 213.364 159.014 213.56 157.939C213.734 156.995 214.118 156.143 214.663 155.495C215.208 154.847 215.887 154.435 216.612 154.312C217.337 154.189 218.072 154.361 218.722 154.805C219.372 155.249 219.905 155.946 220.251 156.801L230.625 179.201C231.047 180.109 231.294 181.142 231.346 182.207C231.397 183.273 231.251 184.339 230.921 185.312L222.468 210.234C222.328 210.646 222.114 211.006 221.845 211.28C221.575 211.554 221.258 211.735 220.923 211.806C220.815 211.829 220.706 211.841 220.596 211.841Z" fill="#409DFE"/>
<path d="M149.593 168.614C150.076 169.093 150.633 169.424 151.224 169.586C151.814 169.747 152.424 169.735 153.011 169.549C153.597 169.362 154.146 169.007 154.618 168.509C155.09 168.01 155.475 167.379 155.744 166.661L170.278 169.17L166.938 160.062L153.648 159.076C152.712 158.554 151.664 158.507 150.704 158.944C149.743 159.382 148.937 160.272 148.437 161.448C147.937 162.624 147.778 164.002 147.991 165.323C148.204 166.644 148.774 167.815 149.593 168.614Z" fill="#A0616A"/>
<path d="M181.629 173.588C181.376 173.588 181.123 173.565 180.872 173.519L158.007 169.298C157.633 169.23 157.278 169.039 156.974 168.743C156.669 168.446 156.425 168.054 156.263 167.6C156.211 167.454 156.168 167.303 156.133 167.148C156.045 166.745 156.02 166.322 156.06 165.906C156.101 165.489 156.206 165.089 156.369 164.729L158.261 160.555C158.465 160.109 158.751 159.74 159.092 159.483C159.434 159.226 159.819 159.091 160.212 159.089H160.215L180.146 159.119L195.031 141.373C195.724 140.549 196.608 140.067 197.536 140.009C198.351 139.958 199.158 140.238 199.85 140.81C200.543 141.383 201.089 142.221 201.417 143.215C201.744 144.209 201.838 145.312 201.685 146.378C201.532 147.443 201.139 148.423 200.56 149.186L185.707 171.168C185.193 171.93 184.564 172.539 183.861 172.956C183.159 173.373 182.398 173.588 181.629 173.588Z" fill="#409DFE"/>
<path d="M201.407 133.181C202.327 130.346 203.106 126.57 201.341 124.566C200.316 123.403 198.841 123.401 197.499 123.256C193.719 122.848 189.828 120.534 187.98 116.126C186.132 111.719 187.164 105.165 190.65 103.177C193 101.836 195.694 102.749 198.153 103.677L205.538 106.464C207.732 107.292 210.036 108.205 211.616 110.394C214.135 113.886 213.947 119.788 211.946 123.83C209.945 127.872 206.931 132.088 203.482 133.622L201.407 133.181Z" fill="#212121"/>
<path d="M303.29 316H0.488356C0.424107 316 0.360455 315.984 0.301042 315.951C0.24163 315.919 0.187631 315.871 0.142134 315.81C0.0966371 315.75 0.0605378 315.678 0.0359076 315.599C0.0112773 315.52 -0.00140381 315.436 -0.00140381 315.35C-0.00140381 315.265 0.0112773 315.18 0.0359076 315.101C0.0605378 315.022 0.0966371 314.95 0.142134 314.89C0.187631 314.83 0.24163 314.782 0.301042 314.749C0.360455 314.717 0.424107 314.7 0.488356 314.7H303.29C303.354 314.7 303.418 314.717 303.478 314.749C303.537 314.782 303.591 314.83 303.636 314.89C303.682 314.95 303.718 315.022 303.743 315.101C303.767 315.18 303.78 315.265 303.78 315.35C303.78 315.436 303.767 315.52 303.743 315.599C303.718 315.678 303.682 315.75 303.636 315.81C303.591 315.871 303.537 315.919 303.478 315.951C303.418 315.984 303.354 316 303.29 316Z" fill="#3F3D56"/>
</g>
<defs>
<clipPath id="clip0_29_1419">
<rect width="337" height="316" fill="white"/>
</clipPath>
</defs>
</svg>
