<svg xmlns="http://www.w3.org/2000/svg" version="1.1" xmlns:xlink="http://www.w3.org/1999/xlink" xmlns:svgjs="http://svgjs.com/svgjs" width="516" height="560" preserveAspectRatio="none" viewBox="0 0 516 560"><g mask="url(&quot;#SvgjsMask1378&quot;)" fill="none"><path d="M0 -46L39.84 -23L39.84 23L0 46L-39.84 23L-39.84 -23zM39.84 23L79.68 46L79.68 92L39.84 115L0 92L0 46zM0 92L39.84 115L39.84 161L0 184L-39.84 161L-39.84 115zM39.84 161L79.68 184L79.68 230L39.84 253L0 230L0 184zM0 230L39.84 253L39.84 299L0 322L-39.84 299L-39.84 253zM39.84 299L79.68 322L79.68 368L39.84 391L0 368L0 322zM0 368L39.84 391L39.84 437L0 460L-39.84 437L-39.84 391zM39.84 437L79.68 460L79.68 506L39.84 529L0 506L0 460zM0 506L39.84 529L39.84 575L0 598L-39.84 575L-39.84 529zM79.68 -46L119.51 -23L119.51 23L79.68 46L39.84 23L39.84 -23zM119.51 23L159.35 46L159.35 92L119.51 115L79.68 92L79.68 46zM79.68 92L119.51 115L119.51 161L79.68 184L39.84 161L39.84 115zM119.51 161L159.35 184L159.35 230L119.51 253L79.68 230L79.68 184zM79.68 230L119.51 253L119.51 299L79.68 322L39.84 299L39.84 253zM119.51 299L159.35 322L159.35 368L119.51 391L79.68 368L79.68 322zM79.68 368L119.51 391L119.51 437L79.68 460L39.84 437L39.84 391zM119.51 437L159.35 460L159.35 506L119.51 529L79.68 506L79.68 460zM79.68 506L119.51 529L119.51 575L79.68 598L39.84 575L39.84 529zM159.35 -46L199.19 -23L199.19 23L159.35 46L119.51 23L119.51 -23zM199.19 23L239.03 46L239.03 92L199.19 115L159.35 92L159.35 46zM159.35 92L199.19 115L199.19 161L159.35 184L119.51 161L119.51 115zM199.19 161L239.03 184L239.03 230L199.19 253L159.35 230L159.35 184zM159.35 230L199.19 253L199.19 299L159.35 322L119.51 299L119.51 253zM199.19 299L239.03 322L239.03 368L199.19 391L159.35 368L159.35 322zM159.35 368L199.19 391L199.19 437L159.35 460L119.51 437L119.51 391zM199.19 437L239.03 460L239.03 506L199.19 529L159.35 506L159.35 460zM159.35 506L199.19 529L199.19 575L159.35 598L119.51 575L119.51 529zM239.03 -46L278.87 -23L278.87 23L239.03 46L199.19 23L199.19 -23zM278.87 23L318.71 46L318.71 92L278.87 115L239.03 92L239.03 46zM239.03 92L278.87 115L278.87 161L239.03 184L199.19 161L199.19 115zM278.87 161L318.71 184L318.71 230L278.87 253L239.03 230L239.03 184zM239.03 230L278.87 253L278.87 299L239.03 322L199.19 299L199.19 253zM278.87 299L318.71 322L318.71 368L278.87 391L239.03 368L239.03 322zM239.03 368L278.87 391L278.87 437L239.03 460L199.19 437L199.19 391zM278.87 437L318.71 460L318.71 506L278.87 529L239.03 506L239.03 460zM239.03 506L278.87 529L278.87 575L239.03 598L199.19 575L199.19 529zM318.71 -46L358.54 -23L358.54 23L318.71 46L278.87 23L278.87 -23zM358.54 23L398.38 46L398.38 92L358.54 115L318.71 92L318.71 46zM318.71 92L358.54 115L358.54 161L318.71 184L278.87 161L278.87 115zM358.54 161L398.38 184L398.38 230L358.54 253L318.71 230L318.71 184zM318.71 230L358.54 253L358.54 299L318.71 322L278.87 299L278.87 253zM358.54 299L398.38 322L398.38 368L358.54 391L318.71 368L318.71 322zM318.71 368L358.54 391L358.54 437L318.71 460L278.87 437L278.87 391zM358.54 437L398.38 460L398.38 506L358.54 529L318.71 506L318.71 460zM318.71 506L358.54 529L358.54 575L318.71 598L278.87 575L278.87 529zM398.38 -46L438.22 -23L438.22 23L398.38 46L358.54 23L358.54 -23zM438.22 23L478.06 46L478.06 92L438.22 115L398.38 92L398.38 46zM398.38 92L438.22 115L438.22 161L398.38 184L358.54 161L358.54 115zM438.22 161L478.06 184L478.06 230L438.22 253L398.38 230L398.38 184zM398.38 230L438.22 253L438.22 299L398.38 322L358.54 299L358.54 253zM438.22 299L478.06 322L478.06 368L438.22 391L398.38 368L398.38 322zM398.38 368L438.22 391L438.22 437L398.38 460L358.54 437L358.54 391zM438.22 437L478.06 460L478.06 506L438.22 529L398.38 506L398.38 460zM398.38 506L438.22 529L438.22 575L398.38 598L358.54 575L358.54 529zM478.06 -46L517.9 -23L517.9 23L478.06 46L438.22 23L438.22 -23zM517.9 23L557.74 46L557.74 92L517.9 115L478.06 92L478.06 46zM478.06 92L517.9 115L517.9 161L478.06 184L438.22 161L438.22 115zM517.9 161L557.74 184L557.74 230L517.9 253L478.06 230L478.06 184zM478.06 230L517.9 253L517.9 299L478.06 322L438.22 299L438.22 253zM517.9 299L557.74 322L557.74 368L517.9 391L478.06 368L478.06 322zM478.06 368L517.9 391L517.9 437L478.06 460L438.22 437L438.22 391zM517.9 437L557.74 460L557.74 506L517.9 529L478.06 506L478.06 460zM478.06 506L517.9 529L517.9 575L478.06 598L438.22 575L438.22 529z" stroke="rgba(194, 239, 245, 1)" stroke-width="2"></path><path d="M-4.6 -46 a4.6 4.6 0 1 0 9.2 0 a4.6 4.6 0 1 0 -9.2 0zM35.24 -23 a4.6 4.6 0 1 0 9.2 0 a4.6 4.6 0 1 0 -9.2 0zM35.24 23 a4.6 4.6 0 1 0 9.2 0 a4.6 4.6 0 1 0 -9.2 0zM-4.6 46 a4.6 4.6 0 1 0 9.2 0 a4.6 4.6 0 1 0 -9.2 0zM-44.44 23 a4.6 4.6 0 1 0 9.2 0 a4.6 4.6 0 1 0 -9.2 0zM-44.44 -23 a4.6 4.6 0 1 0 9.2 0 a4.6 4.6 0 1 0 -9.2 0zM75.08 46 a4.6 4.6 0 1 0 9.2 0 a4.6 4.6 0 1 0 -9.2 0zM75.08 92 a4.6 4.6 0 1 0 9.2 0 a4.6 4.6 0 1 0 -9.2 0zM35.24 115 a4.6 4.6 0 1 0 9.2 0 a4.6 4.6 0 1 0 -9.2 0zM-4.6 92 a4.6 4.6 0 1 0 9.2 0 a4.6 4.6 0 1 0 -9.2 0zM35.24 161 a4.6 4.6 0 1 0 9.2 0 a4.6 4.6 0 1 0 -9.2 0zM-4.6 184 a4.6 4.6 0 1 0 9.2 0 a4.6 4.6 0 1 0 -9.2 0zM-44.44 161 a4.6 4.6 0 1 0 9.2 0 a4.6 4.6 0 1 0 -9.2 0zM-44.44 115 a4.6 4.6 0 1 0 9.2 0 a4.6 4.6 0 1 0 -9.2 0zM75.08 184 a4.6 4.6 0 1 0 9.2 0 a4.6 4.6 0 1 0 -9.2 0zM75.08 230 a4.6 4.6 0 1 0 9.2 0 a4.6 4.6 0 1 0 -9.2 0zM35.24 253 a4.6 4.6 0 1 0 9.2 0 a4.6 4.6 0 1 0 -9.2 0zM-4.6 230 a4.6 4.6 0 1 0 9.2 0 a4.6 4.6 0 1 0 -9.2 0zM35.24 299 a4.6 4.6 0 1 0 9.2 0 a4.6 4.6 0 1 0 -9.2 0zM-4.6 322 a4.6 4.6 0 1 0 9.2 0 a4.6 4.6 0 1 0 -9.2 0zM-44.44 299 a4.6 4.6 0 1 0 9.2 0 a4.6 4.6 0 1 0 -9.2 0zM-44.44 253 a4.6 4.6 0 1 0 9.2 0 a4.6 4.6 0 1 0 -9.2 0zM75.08 322 a4.6 4.6 0 1 0 9.2 0 a4.6 4.6 0 1 0 -9.2 0zM75.08 368 a4.6 4.6 0 1 0 9.2 0 a4.6 4.6 0 1 0 -9.2 0zM35.24 391 a4.6 4.6 0 1 0 9.2 0 a4.6 4.6 0 1 0 -9.2 0zM-4.6 368 a4.6 4.6 0 1 0 9.2 0 a4.6 4.6 0 1 0 -9.2 0zM35.24 437 a4.6 4.6 0 1 0 9.2 0 a4.6 4.6 0 1 0 -9.2 0zM-4.6 460 a4.6 4.6 0 1 0 9.2 0 a4.6 4.6 0 1 0 -9.2 0zM-44.44 437 a4.6 4.6 0 1 0 9.2 0 a4.6 4.6 0 1 0 -9.2 0zM-44.44 391 a4.6 4.6 0 1 0 9.2 0 a4.6 4.6 0 1 0 -9.2 0zM75.08 460 a4.6 4.6 0 1 0 9.2 0 a4.6 4.6 0 1 0 -9.2 0zM75.08 506 a4.6 4.6 0 1 0 9.2 0 a4.6 4.6 0 1 0 -9.2 0zM35.24 529 a4.6 4.6 0 1 0 9.2 0 a4.6 4.6 0 1 0 -9.2 0zM-4.6 506 a4.6 4.6 0 1 0 9.2 0 a4.6 4.6 0 1 0 -9.2 0zM35.24 575 a4.6 4.6 0 1 0 9.2 0 a4.6 4.6 0 1 0 -9.2 0zM-4.6 598 a4.6 4.6 0 1 0 9.2 0 a4.6 4.6 0 1 0 -9.2 0zM-44.44 575 a4.6 4.6 0 1 0 9.2 0 a4.6 4.6 0 1 0 -9.2 0zM-44.44 529 a4.6 4.6 0 1 0 9.2 0 a4.6 4.6 0 1 0 -9.2 0zM75.08 -46 a4.6 4.6 0 1 0 9.2 0 a4.6 4.6 0 1 0 -9.2 0zM114.91 -23 a4.6 4.6 0 1 0 9.2 0 a4.6 4.6 0 1 0 -9.2 0zM114.91 23 a4.6 4.6 0 1 0 9.2 0 a4.6 4.6 0 1 0 -9.2 0zM154.75 46 a4.6 4.6 0 1 0 9.2 0 a4.6 4.6 0 1 0 -9.2 0zM154.75 92 a4.6 4.6 0 1 0 9.2 0 a4.6 4.6 0 1 0 -9.2 0zM114.91 115 a4.6 4.6 0 1 0 9.2 0 a4.6 4.6 0 1 0 -9.2 0zM114.91 161 a4.6 4.6 0 1 0 9.2 0 a4.6 4.6 0 1 0 -9.2 0zM154.75 184 a4.6 4.6 0 1 0 9.2 0 a4.6 4.6 0 1 0 -9.2 0zM154.75 230 a4.6 4.6 0 1 0 9.2 0 a4.6 4.6 0 1 0 -9.2 0zM114.91 253 a4.6 4.6 0 1 0 9.2 0 a4.6 4.6 0 1 0 -9.2 0zM114.91 299 a4.6 4.6 0 1 0 9.2 0 a4.6 4.6 0 1 0 -9.2 0zM154.75 322 a4.6 4.6 0 1 0 9.2 0 a4.6 4.6 0 1 0 -9.2 0zM154.75 368 a4.6 4.6 0 1 0 9.2 0 a4.6 4.6 0 1 0 -9.2 0zM114.91 391 a4.6 4.6 0 1 0 9.2 0 a4.6 4.6 0 1 0 -9.2 0zM114.91 437 a4.6 4.6 0 1 0 9.2 0 a4.6 4.6 0 1 0 -9.2 0zM154.75 460 a4.6 4.6 0 1 0 9.2 0 a4.6 4.6 0 1 0 -9.2 0zM154.75 506 a4.6 4.6 0 1 0 9.2 0 a4.6 4.6 0 1 0 -9.2 0zM114.91 529 a4.6 4.6 0 1 0 9.2 0 a4.6 4.6 0 1 0 -9.2 0zM114.91 575 a4.6 4.6 0 1 0 9.2 0 a4.6 4.6 0 1 0 -9.2 0zM75.08 598 a4.6 4.6 0 1 0 9.2 0 a4.6 4.6 0 1 0 -9.2 0zM154.75 -46 a4.6 4.6 0 1 0 9.2 0 a4.6 4.6 0 1 0 -9.2 0zM194.59 -23 a4.6 4.6 0 1 0 9.2 0 a4.6 4.6 0 1 0 -9.2 0zM194.59 23 a4.6 4.6 0 1 0 9.2 0 a4.6 4.6 0 1 0 -9.2 0zM234.43 46 a4.6 4.6 0 1 0 9.2 0 a4.6 4.6 0 1 0 -9.2 0zM234.43 92 a4.6 4.6 0 1 0 9.2 0 a4.6 4.6 0 1 0 -9.2 0zM194.59 115 a4.6 4.6 0 1 0 9.2 0 a4.6 4.6 0 1 0 -9.2 0zM194.59 161 a4.6 4.6 0 1 0 9.2 0 a4.6 4.6 0 1 0 -9.2 0zM234.43 184 a4.6 4.6 0 1 0 9.2 0 a4.6 4.6 0 1 0 -9.2 0zM234.43 230 a4.6 4.6 0 1 0 9.2 0 a4.6 4.6 0 1 0 -9.2 0zM194.59 253 a4.6 4.6 0 1 0 9.2 0 a4.6 4.6 0 1 0 -9.2 0zM194.59 299 a4.6 4.6 0 1 0 9.2 0 a4.6 4.6 0 1 0 -9.2 0zM234.43 322 a4.6 4.6 0 1 0 9.2 0 a4.6 4.6 0 1 0 -9.2 0zM234.43 368 a4.6 4.6 0 1 0 9.2 0 a4.6 4.6 0 1 0 -9.2 0zM194.59 391 a4.6 4.6 0 1 0 9.2 0 a4.6 4.6 0 1 0 -9.2 0zM194.59 437 a4.6 4.6 0 1 0 9.2 0 a4.6 4.6 0 1 0 -9.2 0zM234.43 460 a4.6 4.6 0 1 0 9.2 0 a4.6 4.6 0 1 0 -9.2 0zM234.43 506 a4.6 4.6 0 1 0 9.2 0 a4.6 4.6 0 1 0 -9.2 0zM194.59 529 a4.6 4.6 0 1 0 9.2 0 a4.6 4.6 0 1 0 -9.2 0zM194.59 575 a4.6 4.6 0 1 0 9.2 0 a4.6 4.6 0 1 0 -9.2 0zM154.75 598 a4.6 4.6 0 1 0 9.2 0 a4.6 4.6 0 1 0 -9.2 0zM234.43 -46 a4.6 4.6 0 1 0 9.2 0 a4.6 4.6 0 1 0 -9.2 0zM274.27 -23 a4.6 4.6 0 1 0 9.2 0 a4.6 4.6 0 1 0 -9.2 0zM274.27 23 a4.6 4.6 0 1 0 9.2 0 a4.6 4.6 0 1 0 -9.2 0zM314.11 46 a4.6 4.6 0 1 0 9.2 0 a4.6 4.6 0 1 0 -9.2 0zM314.11 92 a4.6 4.6 0 1 0 9.2 0 a4.6 4.6 0 1 0 -9.2 0zM274.27 115 a4.6 4.6 0 1 0 9.2 0 a4.6 4.6 0 1 0 -9.2 0zM274.27 161 a4.6 4.6 0 1 0 9.2 0 a4.6 4.6 0 1 0 -9.2 0zM314.11 184 a4.6 4.6 0 1 0 9.2 0 a4.6 4.6 0 1 0 -9.2 0zM314.11 230 a4.6 4.6 0 1 0 9.2 0 a4.6 4.6 0 1 0 -9.2 0zM274.27 253 a4.6 4.6 0 1 0 9.2 0 a4.6 4.6 0 1 0 -9.2 0zM274.27 299 a4.6 4.6 0 1 0 9.2 0 a4.6 4.6 0 1 0 -9.2 0zM314.11 322 a4.6 4.6 0 1 0 9.2 0 a4.6 4.6 0 1 0 -9.2 0zM314.11 368 a4.6 4.6 0 1 0 9.2 0 a4.6 4.6 0 1 0 -9.2 0zM274.27 391 a4.6 4.6 0 1 0 9.2 0 a4.6 4.6 0 1 0 -9.2 0zM274.27 437 a4.6 4.6 0 1 0 9.2 0 a4.6 4.6 0 1 0 -9.2 0zM314.11 460 a4.6 4.6 0 1 0 9.2 0 a4.6 4.6 0 1 0 -9.2 0zM314.11 506 a4.6 4.6 0 1 0 9.2 0 a4.6 4.6 0 1 0 -9.2 0zM274.27 529 a4.6 4.6 0 1 0 9.2 0 a4.6 4.6 0 1 0 -9.2 0zM274.27 575 a4.6 4.6 0 1 0 9.2 0 a4.6 4.6 0 1 0 -9.2 0zM234.43 598 a4.6 4.6 0 1 0 9.2 0 a4.6 4.6 0 1 0 -9.2 0zM314.11 -46 a4.6 4.6 0 1 0 9.2 0 a4.6 4.6 0 1 0 -9.2 0zM353.94 -23 a4.6 4.6 0 1 0 9.2 0 a4.6 4.6 0 1 0 -9.2 0zM353.94 23 a4.6 4.6 0 1 0 9.2 0 a4.6 4.6 0 1 0 -9.2 0zM393.78 46 a4.6 4.6 0 1 0 9.2 0 a4.6 4.6 0 1 0 -9.2 0zM393.78 92 a4.6 4.6 0 1 0 9.2 0 a4.6 4.6 0 1 0 -9.2 0zM353.94 115 a4.6 4.6 0 1 0 9.2 0 a4.6 4.6 0 1 0 -9.2 0zM353.94 161 a4.6 4.6 0 1 0 9.2 0 a4.6 4.6 0 1 0 -9.2 0zM393.78 184 a4.6 4.6 0 1 0 9.2 0 a4.6 4.6 0 1 0 -9.2 0zM393.78 230 a4.6 4.6 0 1 0 9.2 0 a4.6 4.6 0 1 0 -9.2 0zM353.94 253 a4.6 4.6 0 1 0 9.2 0 a4.6 4.6 0 1 0 -9.2 0zM353.94 299 a4.6 4.6 0 1 0 9.2 0 a4.6 4.6 0 1 0 -9.2 0zM393.78 322 a4.6 4.6 0 1 0 9.2 0 a4.6 4.6 0 1 0 -9.2 0zM393.78 368 a4.6 4.6 0 1 0 9.2 0 a4.6 4.6 0 1 0 -9.2 0zM353.94 391 a4.6 4.6 0 1 0 9.2 0 a4.6 4.6 0 1 0 -9.2 0zM353.94 437 a4.6 4.6 0 1 0 9.2 0 a4.6 4.6 0 1 0 -9.2 0zM393.78 460 a4.6 4.6 0 1 0 9.2 0 a4.6 4.6 0 1 0 -9.2 0zM393.78 506 a4.6 4.6 0 1 0 9.2 0 a4.6 4.6 0 1 0 -9.2 0zM353.94 529 a4.6 4.6 0 1 0 9.2 0 a4.6 4.6 0 1 0 -9.2 0zM353.94 575 a4.6 4.6 0 1 0 9.2 0 a4.6 4.6 0 1 0 -9.2 0zM314.11 598 a4.6 4.6 0 1 0 9.2 0 a4.6 4.6 0 1 0 -9.2 0zM393.78 -46 a4.6 4.6 0 1 0 9.2 0 a4.6 4.6 0 1 0 -9.2 0zM433.62 -23 a4.6 4.6 0 1 0 9.2 0 a4.6 4.6 0 1 0 -9.2 0zM433.62 23 a4.6 4.6 0 1 0 9.2 0 a4.6 4.6 0 1 0 -9.2 0zM473.46 46 a4.6 4.6 0 1 0 9.2 0 a4.6 4.6 0 1 0 -9.2 0zM473.46 92 a4.6 4.6 0 1 0 9.2 0 a4.6 4.6 0 1 0 -9.2 0zM433.62 115 a4.6 4.6 0 1 0 9.2 0 a4.6 4.6 0 1 0 -9.2 0zM433.62 161 a4.6 4.6 0 1 0 9.2 0 a4.6 4.6 0 1 0 -9.2 0zM473.46 184 a4.6 4.6 0 1 0 9.2 0 a4.6 4.6 0 1 0 -9.2 0zM473.46 230 a4.6 4.6 0 1 0 9.2 0 a4.6 4.6 0 1 0 -9.2 0zM433.62 253 a4.6 4.6 0 1 0 9.2 0 a4.6 4.6 0 1 0 -9.2 0zM433.62 299 a4.6 4.6 0 1 0 9.2 0 a4.6 4.6 0 1 0 -9.2 0zM473.46 322 a4.6 4.6 0 1 0 9.2 0 a4.6 4.6 0 1 0 -9.2 0zM473.46 368 a4.6 4.6 0 1 0 9.2 0 a4.6 4.6 0 1 0 -9.2 0zM433.62 391 a4.6 4.6 0 1 0 9.2 0 a4.6 4.6 0 1 0 -9.2 0zM433.62 437 a4.6 4.6 0 1 0 9.2 0 a4.6 4.6 0 1 0 -9.2 0zM473.46 460 a4.6 4.6 0 1 0 9.2 0 a4.6 4.6 0 1 0 -9.2 0zM473.46 506 a4.6 4.6 0 1 0 9.2 0 a4.6 4.6 0 1 0 -9.2 0zM433.62 529 a4.6 4.6 0 1 0 9.2 0 a4.6 4.6 0 1 0 -9.2 0zM433.62 575 a4.6 4.6 0 1 0 9.2 0 a4.6 4.6 0 1 0 -9.2 0zM393.78 598 a4.6 4.6 0 1 0 9.2 0 a4.6 4.6 0 1 0 -9.2 0zM473.46 -46 a4.6 4.6 0 1 0 9.2 0 a4.6 4.6 0 1 0 -9.2 0zM513.3 -23 a4.6 4.6 0 1 0 9.2 0 a4.6 4.6 0 1 0 -9.2 0zM513.3 23 a4.6 4.6 0 1 0 9.2 0 a4.6 4.6 0 1 0 -9.2 0zM553.14 46 a4.6 4.6 0 1 0 9.2 0 a4.6 4.6 0 1 0 -9.2 0zM553.14 92 a4.6 4.6 0 1 0 9.2 0 a4.6 4.6 0 1 0 -9.2 0zM513.3 115 a4.6 4.6 0 1 0 9.2 0 a4.6 4.6 0 1 0 -9.2 0zM513.3 161 a4.6 4.6 0 1 0 9.2 0 a4.6 4.6 0 1 0 -9.2 0zM553.14 184 a4.6 4.6 0 1 0 9.2 0 a4.6 4.6 0 1 0 -9.2 0zM553.14 230 a4.6 4.6 0 1 0 9.2 0 a4.6 4.6 0 1 0 -9.2 0zM513.3 253 a4.6 4.6 0 1 0 9.2 0 a4.6 4.6 0 1 0 -9.2 0zM513.3 299 a4.6 4.6 0 1 0 9.2 0 a4.6 4.6 0 1 0 -9.2 0zM553.14 322 a4.6 4.6 0 1 0 9.2 0 a4.6 4.6 0 1 0 -9.2 0zM553.14 368 a4.6 4.6 0 1 0 9.2 0 a4.6 4.6 0 1 0 -9.2 0zM513.3 391 a4.6 4.6 0 1 0 9.2 0 a4.6 4.6 0 1 0 -9.2 0zM513.3 437 a4.6 4.6 0 1 0 9.2 0 a4.6 4.6 0 1 0 -9.2 0zM553.14 460 a4.6 4.6 0 1 0 9.2 0 a4.6 4.6 0 1 0 -9.2 0zM553.14 506 a4.6 4.6 0 1 0 9.2 0 a4.6 4.6 0 1 0 -9.2 0zM513.3 529 a4.6 4.6 0 1 0 9.2 0 a4.6 4.6 0 1 0 -9.2 0zM513.3 575 a4.6 4.6 0 1 0 9.2 0 a4.6 4.6 0 1 0 -9.2 0zM473.46 598 a4.6 4.6 0 1 0 9.2 0 a4.6 4.6 0 1 0 -9.2 0z" fill="rgba(194, 239, 245, 1)"></path><path d="M0 -43L37.24 -21.5L37.24 21.5L0 43L-37.24 21.5L-37.24 -21.5zM37.24 21.5L74.48 43L74.48 86L37.24 107.5L0 86L0 43zM0 86L37.24 107.5L37.24 150.5L0 172L-37.24 150.5L-37.24 107.5zM37.24 150.5L74.48 172L74.48 215L37.24 236.5L0 215L0 172zM0 215L37.24 236.5L37.24 279.5L0 301L-37.24 279.5L-37.24 236.5zM37.24 279.5L74.48 301L74.48 344L37.24 365.5L0 344L0 301zM0 344L37.24 365.5L37.24 408.5L0 430L-37.24 408.5L-37.24 365.5zM37.24 408.5L74.48 430L74.48 473L37.24 494.5L0 473L0 430zM0 473L37.24 494.5L37.24 537.5L0 559L-37.24 537.5L-37.24 494.5zM37.24 537.5L74.48 559L74.48 602L37.24 623.5L0 602L0 559zM74.48 -43L111.72 -21.5L111.72 21.5L74.48 43L37.24 21.5L37.24 -21.5zM111.72 21.5L148.96 43L148.96 86L111.72 107.5L74.48 86L74.48 43zM74.48 86L111.72 107.5L111.72 150.5L74.48 172L37.24 150.5L37.24 107.5zM111.72 150.5L148.96 172L148.96 215L111.72 236.5L74.48 215L74.48 172zM74.48 215L111.72 236.5L111.72 279.5L74.48 301L37.24 279.5L37.24 236.5zM111.72 279.5L148.96 301L148.96 344L111.72 365.5L74.48 344L74.48 301zM74.48 344L111.72 365.5L111.72 408.5L74.48 430L37.24 408.5L37.24 365.5zM111.72 408.5L148.96 430L148.96 473L111.72 494.5L74.48 473L74.48 430zM74.48 473L111.72 494.5L111.72 537.5L74.48 559L37.24 537.5L37.24 494.5zM111.72 537.5L148.96 559L148.96 602L111.72 623.5L74.48 602L74.48 559zM148.96 -43L186.2 -21.5L186.2 21.5L148.96 43L111.72 21.5L111.72 -21.5zM186.2 21.5L223.44 43L223.44 86L186.2 107.5L148.96 86L148.96 43zM148.96 86L186.2 107.5L186.2 150.5L148.96 172L111.72 150.5L111.72 107.5zM186.2 150.5L223.44 172L223.44 215L186.2 236.5L148.96 215L148.96 172zM148.96 215L186.2 236.5L186.2 279.5L148.96 301L111.72 279.5L111.72 236.5zM186.2 279.5L223.44 301L223.44 344L186.2 365.5L148.96 344L148.96 301zM148.96 344L186.2 365.5L186.2 408.5L148.96 430L111.72 408.5L111.72 365.5zM186.2 408.5L223.44 430L223.44 473L186.2 494.5L148.96 473L148.96 430zM148.96 473L186.2 494.5L186.2 537.5L148.96 559L111.72 537.5L111.72 494.5zM186.2 537.5L223.44 559L223.44 602L186.2 623.5L148.96 602L148.96 559zM223.44 -43L260.68 -21.5L260.68 21.5L223.44 43L186.2 21.5L186.2 -21.5zM260.68 21.5L297.92 43L297.92 86L260.68 107.5L223.44 86L223.44 43zM223.44 86L260.68 107.5L260.68 150.5L223.44 172L186.2 150.5L186.2 107.5zM260.68 150.5L297.92 172L297.92 215L260.68 236.5L223.44 215L223.44 172zM223.44 215L260.68 236.5L260.68 279.5L223.44 301L186.2 279.5L186.2 236.5zM260.68 279.5L297.92 301L297.92 344L260.68 365.5L223.44 344L223.44 301zM223.44 344L260.68 365.5L260.68 408.5L223.44 430L186.2 408.5L186.2 365.5zM260.68 408.5L297.92 430L297.92 473L260.68 494.5L223.44 473L223.44 430zM223.44 473L260.68 494.5L260.68 537.5L223.44 559L186.2 537.5L186.2 494.5zM260.68 537.5L297.92 559L297.92 602L260.68 623.5L223.44 602L223.44 559zM297.92 -43L335.16 -21.5L335.16 21.5L297.92 43L260.68 21.5L260.68 -21.5zM335.16 21.5L372.4 43L372.4 86L335.16 107.5L297.92 86L297.92 43zM297.92 86L335.16 107.5L335.16 150.5L297.92 172L260.68 150.5L260.68 107.5zM335.16 150.5L372.4 172L372.4 215L335.16 236.5L297.92 215L297.92 172zM297.92 215L335.16 236.5L335.16 279.5L297.92 301L260.68 279.5L260.68 236.5zM335.16 279.5L372.4 301L372.4 344L335.16 365.5L297.92 344L297.92 301zM297.92 344L335.16 365.5L335.16 408.5L297.92 430L260.68 408.5L260.68 365.5zM335.16 408.5L372.4 430L372.4 473L335.16 494.5L297.92 473L297.92 430zM297.92 473L335.16 494.5L335.16 537.5L297.92 559L260.68 537.5L260.68 494.5zM335.16 537.5L372.4 559L372.4 602L335.16 623.5L297.92 602L297.92 559zM372.4 -43L409.64 -21.5L409.64 21.5L372.4 43L335.16 21.5L335.16 -21.5zM409.64 21.5L446.88 43L446.88 86L409.64 107.5L372.4 86L372.4 43zM372.4 86L409.64 107.5L409.64 150.5L372.4 172L335.16 150.5L335.16 107.5zM409.64 150.5L446.88 172L446.88 215L409.64 236.5L372.4 215L372.4 172zM372.4 215L409.64 236.5L409.64 279.5L372.4 301L335.16 279.5L335.16 236.5zM409.64 279.5L446.88 301L446.88 344L409.64 365.5L372.4 344L372.4 301zM372.4 344L409.64 365.5L409.64 408.5L372.4 430L335.16 408.5L335.16 365.5zM409.64 408.5L446.88 430L446.88 473L409.64 494.5L372.4 473L372.4 430zM372.4 473L409.64 494.5L409.64 537.5L372.4 559L335.16 537.5L335.16 494.5zM409.64 537.5L446.88 559L446.88 602L409.64 623.5L372.4 602L372.4 559zM446.88 -43L484.12 -21.5L484.12 21.5L446.88 43L409.64 21.5L409.64 -21.5zM484.12 21.5L521.36 43L521.36 86L484.12 107.5L446.88 86L446.88 43zM446.88 86L484.12 107.5L484.12 150.5L446.88 172L409.64 150.5L409.64 107.5zM484.12 150.5L521.36 172L521.36 215L484.12 236.5L446.88 215L446.88 172zM446.88 215L484.12 236.5L484.12 279.5L446.88 301L409.64 279.5L409.64 236.5zM484.12 279.5L521.36 301L521.36 344L484.12 365.5L446.88 344L446.88 301zM446.88 344L484.12 365.5L484.12 408.5L446.88 430L409.64 408.5L409.64 365.5zM484.12 408.5L521.36 430L521.36 473L484.12 494.5L446.88 473L446.88 430zM446.88 473L484.12 494.5L484.12 537.5L446.88 559L409.64 537.5L409.64 494.5zM484.12 537.5L521.36 559L521.36 602L484.12 623.5L446.88 602L446.88 559z" stroke="rgba(255, 255, 255, 1)" stroke-width="2"></path></g><defs><mask id="SvgjsMask1378"><rect width="516" height="560" fill="#ffffff"></rect></mask></defs></svg>