<svg width="127" height="68" viewBox="0 0 127 68" fill="none" xmlns="http://www.w3.org/2000/svg">
<rect width="127" height="4" transform="matrix(1 0 0 -1 0 68)" fill="#409DFE"/>
<path d="M61.5465 20.8523C61.3086 17.03 60.0319 13.8903 57.7165 11.4331C55.4169 8.97591 52.3799 7.74732 48.6054 7.74732C46.1314 7.74732 43.919 8.29336 41.9683 9.38544C40.0177 10.4775 38.4793 11.9791 37.3533 13.8903C36.2273 15.7832 35.6643 17.9582 35.6643 20.4154C35.6643 21.8351 35.8705 23.1456 36.2828 24.3469C36.6952 25.5482 37.3216 26.6494 38.1621 27.6504C39.0185 28.6333 40.089 29.5252 41.3736 30.326C42.6741 31.1087 44.1966 31.8094 45.9411 32.4283L51.46 34.394C53.5693 35.1403 55.3931 35.9775 56.9314 36.9058C58.4698 37.8341 59.7385 38.8806 60.7376 40.0455C61.7526 41.1922 62.5059 42.4754 62.9976 43.8951C63.4892 45.2966 63.735 46.8619 63.735 48.591C63.735 51.5032 63.0848 54.0969 61.7843 56.3721C60.4839 58.6472 58.668 60.431 56.3367 61.7233C54.0054 63.0155 51.3014 63.6617 48.2248 63.6617C45.2591 63.6617 42.6661 63.0701 40.4459 61.8871C38.2256 60.6858 36.4652 59.0386 35.1648 56.9454C33.8802 54.8341 33.1586 52.4133 33 49.6831H34.5225C34.6811 52.0857 35.3392 54.2061 36.4969 56.0445C37.6547 57.8828 39.2247 59.3207 41.2071 60.3582C43.2054 61.3956 45.5446 61.9144 48.2248 61.9144C51.016 61.9144 53.4583 61.3592 55.5517 60.249C57.661 59.1205 59.2945 57.5552 60.4522 55.553C61.6257 53.5509 62.2125 51.2302 62.2125 48.591C62.2125 46.5889 61.8319 44.8325 61.0707 43.3217C60.3094 41.7928 59.1121 40.4459 57.4786 39.2811C55.8451 38.1162 53.712 37.0696 51.0794 36.1413L45.5604 34.1756C41.7384 32.7923 38.8758 30.9631 36.9727 28.6879C35.0855 26.4127 34.1419 23.6553 34.1419 20.4154C34.1419 17.667 34.7683 15.2099 36.0212 13.0439C37.274 10.8597 38.9868 9.13972 41.1595 7.88383C43.3481 6.62794 45.83 6 48.6054 6C51.3966 6 53.8468 6.63704 55.9561 7.91113C58.0654 9.18522 59.7385 10.9416 60.9755 13.1804C62.2125 15.4192 62.9103 17.9764 63.0689 20.8523H61.5465Z" fill="#FDD51F"/>
<path d="M66.336 21.5803C66.5739 17.758 67.8506 14.6183 70.166 12.1611C72.4656 9.70394 75.5026 8.47535 79.2771 8.47535C81.7511 8.47535 83.9635 9.02139 85.9141 10.1135C87.8648 11.2055 89.4031 12.7071 90.5291 14.6183C91.6551 16.5112 92.2181 18.6863 92.2181 21.1434C92.2181 22.5632 92.012 23.8736 91.5996 25.0749C91.1873 26.2762 90.5609 27.3774 89.7203 28.3785C88.8639 29.3613 87.7934 30.2532 86.5089 31.0541C85.2084 31.8367 83.6859 32.5375 81.9414 33.1563L76.4224 35.122C74.3132 35.8683 72.4894 36.7056 70.951 37.6338C69.4127 38.5621 68.144 39.6087 67.1448 40.7735C66.1299 41.9202 65.3765 43.2034 64.8849 44.6231C64.3933 46.0246 64.1475 47.5899 64.1475 49.319C64.1475 52.2313 64.7977 54.8249 66.0981 57.1001C67.3986 59.3753 69.2145 61.159 71.5458 62.4513C73.877 63.7436 76.581 64.3897 79.6577 64.3897C82.6234 64.3897 85.2163 63.7982 87.4366 62.6151C89.6569 61.4138 91.4173 59.7666 92.7177 57.6734C94.0023 55.5621 94.7239 53.1413 94.8825 50.4111H93.36C93.2014 52.8137 92.5433 54.9341 91.3855 56.7725C90.2278 58.6108 88.6578 60.0487 86.6754 61.0862C84.6771 62.1237 82.3379 62.6424 79.6577 62.6424C76.8665 62.6424 74.4242 62.0873 72.3308 60.977C70.2215 59.8485 68.588 58.2832 67.4303 56.281C66.2567 54.2789 65.6699 51.9582 65.6699 49.319C65.6699 47.3169 66.0506 45.5605 66.8118 44.0498C67.573 42.5209 68.7704 41.174 70.4039 40.0091C72.0374 38.8442 74.1704 37.7976 76.8031 36.8694L82.322 34.9036C86.1441 33.5203 89.0067 31.6911 90.9098 29.4159C92.797 27.1408 93.7406 24.3833 93.7406 21.1434C93.7406 18.3951 93.1142 15.9379 91.8613 13.7719C90.6084 11.5878 88.8956 9.86775 86.7229 8.61186C84.5344 7.35597 82.0524 6.72803 79.2771 6.72803C76.4859 6.72803 74.0356 7.36507 71.9264 8.63916C69.8171 9.91325 68.144 11.6697 66.907 13.9084C65.6699 16.1472 64.9721 18.7045 64.8135 21.5803H66.336Z" fill="#FDD51F"/>
<path d="M64.1475 61.968C73.8157 52.4899 80.4094 49.5954 94.8508 49.9743" stroke="#409DFE" stroke-linecap="round"/>
<path d="M64.1475 61.1028C54.4792 51.6247 47.8855 48.7302 33.4442 49.1091" stroke="#409DFE" stroke-linecap="round"/>
</svg>
