<svg width="493" height="430" viewBox="0 0 493 430" fill="none" xmlns="http://www.w3.org/2000/svg">
<g clip-path="url(#clip0_21_254)">
<path opacity="0.19" d="M30.2297 311.525C32.7908 305.282 36.9753 300 39.8188 293.845C48.1879 275.845 43.7009 254.232 39.5466 234.541C35.3923 214.851 32.1455 192.552 42.3497 175.746C44.9613 171.436 48.3997 167.669 50.2651 162.928C56.3755 147.58 44.3361 130.74 44.5579 114C44.689 104.762 48.5912 96.011 53.8345 88.7293C59.1979 81.2841 65.8614 75.0848 73.4357 70.4935C81.01 65.9023 89.3433 63.0111 97.9487 61.9889C115.625 59.9889 134.329 65.9116 150.835 58.674C166.969 51.6022 176.699 33.8674 190.16 21.8453C210.669 3.52485 238.812 -0.585646 265.26 -1.11237e-05C288.794 0.530376 314.265 5.28175 330.347 24.1326C345.15 41.4806 348.689 66.8729 359.68 87.3481C380.36 125.878 423.436 141.414 454.119 170.862C464.404 180.729 473.459 192.475 478.853 206.221C488.836 231.635 485.145 261.757 473.913 286.586C469.163 297.083 462.972 307.58 463.345 319.304C463.749 331.779 471.674 343.503 469.637 355.768C468.064 365.227 460.673 372.508 452.496 375.967C444.318 379.425 435.354 379.735 426.582 380L139.32 388.641C109.897 389.525 80.9685 388.884 54.0362 374.541C32.8412 363.326 19.2893 338.177 30.2297 311.525Z" fill="#FDD51F"/>
<path d="M420.622 288.917L421.863 297.646L410.953 298.785L411.739 290.796L420.622 288.917Z" fill="url(#paint0_linear_21_254)"/>
<path d="M381.52 194.63C374.032 210.864 367.547 227.631 362.109 244.818C360.305 250.53 360.234 275.757 364.711 279.293C367.02 277.967 371.043 279.989 372.052 277.359C377.355 263.503 383.345 228.298 393.922 217.834C394.543 217.224 395.311 216.824 396.135 216.68C396.958 216.536 397.802 216.656 398.565 217.024C399.328 217.393 399.978 217.995 400.436 218.758C400.895 219.521 401.144 220.412 401.152 221.326C401.253 232.088 400.577 242.807 401.969 253.547C402.826 260.177 403.773 266.884 405.125 273.436C406.133 278.133 407.373 282.983 410.378 286.497C413.383 290.011 418.616 291.68 422.286 289.028C423.093 270.685 417.85 275.16 419.413 234.066C419.876 221.691 425.775 209.149 424.091 196.895C423.983 195.361 423.537 193.878 422.79 192.575C421.924 191.458 420.829 190.583 419.594 190.022C412.385 186.144 404.328 183.293 396.786 180.298C388.275 176.939 384.887 187.337 381.52 194.63Z" fill="#FDD51F"/>
<path d="M422.286 289.05C418.616 291.702 413.383 290.033 410.378 286.519C409.906 285.968 409.474 285.377 409.087 284.751C406.97 281.436 405.941 277.414 405.125 273.459C403.773 266.884 402.826 260.199 401.969 253.569C400.577 242.829 401.253 232.11 401.152 221.348C401.148 220.315 400.835 219.311 400.262 218.491C399.688 217.671 398.885 217.079 397.976 216.807C397.277 216.59 396.54 216.573 395.834 216.757C395.129 216.941 394.477 217.319 393.942 217.856C383.365 228.32 377.376 263.525 372.072 277.381C371.063 280.011 367.03 277.989 364.731 279.315C360.254 275.801 360.325 250.586 362.13 244.84C365.087 235.514 368.348 226.306 371.91 217.215C374.909 209.576 378.118 202.052 381.54 194.641C384.908 187.348 388.296 176.961 396.806 180.276L401.364 182.055C407.581 184.319 413.674 186.972 419.614 190C420.849 190.561 421.945 191.436 422.811 192.552C423.557 193.856 424.003 195.339 424.111 196.873C425.795 209.127 419.897 221.669 419.433 234.044C417.85 275.182 423.063 270.707 422.286 289.05Z" fill="url(#paint1_linear_21_254)"/>
<path d="M412.405 235.006C412.405 246.818 413.816 285.503 413.816 285.503L409.087 284.751L407.01 282.597C407.01 282.597 397.844 243.116 401.152 221.326C400.331 219.629 399.258 218.094 397.975 216.785C396.13 214.961 393.569 213.602 390.514 215.083C384.111 218.199 375.208 226.597 375.208 226.597L371.89 217.204C374.888 209.565 378.098 202.041 381.52 194.63C384.887 187.337 388.275 176.95 396.786 180.265L401.343 182.044L413.816 195.657C413.816 195.657 412.405 223.193 412.405 235.006Z" fill="url(#paint2_linear_21_254)"/>
<path d="M474.699 83.1823C476.383 80.1768 478.167 77.1713 479.045 73.779C479.646 70.7579 480.01 67.6859 480.134 64.5967C480.134 64.21 480.366 63.6906 480.708 63.779C481.098 65.5175 481.434 67.2634 481.717 69.0166C482.665 68.9392 483.32 67.9779 483.905 67.1602C484.719 66.0143 485.638 64.9628 486.648 64.0221C486.733 63.9471 486.838 63.9033 486.947 63.8969C487.057 63.8904 487.165 63.9217 487.257 63.9864C487.35 64.051 487.421 64.1456 487.462 64.2571C487.503 64.3685 487.511 64.4912 487.484 64.6078C487.021 66.2652 485.68 67.7569 485.528 69.5359C487.121 68.9061 487.938 66.8287 489.239 65.7459C489.328 65.6797 489.435 65.6473 489.542 65.6537C489.65 65.6601 489.753 65.7049 489.835 65.7812C489.917 65.8576 489.975 65.9613 489.998 66.0767C490.021 66.192 490.01 66.3125 489.965 66.4199C489.328 67.8539 488.495 69.173 487.494 70.3315C487.646 70.7182 488.18 70.5304 488.503 70.3315L491.81 67.8122C492.818 68 491.881 69.2818 491.135 70.0221C490.388 70.7624 489.521 71.3923 488.846 72.2321C488.452 72.6962 488.11 73.3923 488.402 73.9448C489.703 73.4144 490.993 72.8398 492.264 72.221C492.372 72.1621 492.495 72.1457 492.613 72.1746C492.73 72.2035 492.835 72.276 492.91 72.3798C492.984 72.4836 493.024 72.6123 493.022 72.7444C493.02 72.8765 492.977 73.0039 492.899 73.105C492.359 73.7044 491.723 74.1912 491.024 74.5415C487.02 77.0831 483.577 80.5618 480.94 84.7293C478.296 88.8854 476.011 93.3022 474.114 97.9227C473.761 98.7072 473.176 99.6464 472.4 99.4475C472.01 99.2892 471.685 98.9836 471.482 98.5856C470.854 97.5988 470.355 96.5201 470 95.3812C469.713 94.7735 469.591 94.0883 469.648 93.4068C469.705 92.7253 469.939 92.076 470.323 91.5359C471.704 88.7404 473.156 85.9337 474.699 83.1823Z" fill="url(#paint3_linear_21_254)"/>
<path d="M386.904 72.674C385.593 69.4586 384.182 66.221 383.708 62.7293C383.466 59.6484 383.466 56.5505 383.708 53.4696C383.708 53.0829 383.587 52.5414 383.234 52.5856C382.649 54.2431 382.104 55.9005 381.631 57.6354C380.693 57.4254 380.158 56.3757 379.674 55.4807C379.007 54.2283 378.22 53.0577 377.325 51.9889C377.252 51.8965 377.154 51.8326 377.045 51.8068C376.936 51.7809 376.822 51.7946 376.721 51.8457C376.62 51.8969 376.536 51.9827 376.483 52.0902C376.43 52.1977 376.411 52.3212 376.428 52.442C376.69 54.1547 377.849 55.8232 377.789 57.6133C376.276 56.7624 375.712 54.5856 374.562 53.326C374.482 53.2442 374.379 53.1939 374.27 53.1829C374.161 53.172 374.052 53.2011 373.96 53.2656C373.867 53.3301 373.797 53.4264 373.76 53.5393C373.723 53.6522 373.722 53.7754 373.756 53.8895C374.221 55.4042 374.901 56.8288 375.772 58.1105C375.581 58.4751 375.076 58.221 374.764 57.9448L371.739 54.9834C370.731 54.9834 371.507 56.4309 372.152 57.2818C372.798 58.1326 373.584 58.8729 374.169 59.779C374.502 60.2983 374.754 61.0387 374.401 61.547C373.171 60.8287 371.961 60.0773 370.771 59.337C370.67 59.2646 370.55 59.2324 370.43 59.2459C370.31 59.2594 370.198 59.3178 370.113 59.4112C370.027 59.5046 369.974 59.6273 369.962 59.7587C369.949 59.8901 369.979 60.0221 370.045 60.1326C370.496 60.8221 371.06 61.4141 371.709 61.8785C375.394 64.9644 378.414 68.9033 380.552 73.4144C382.686 77.9121 384.435 82.6174 385.775 87.4696C386.027 88.2983 386.501 89.3039 387.297 89.2155C387.7 89.1146 388.058 88.8601 388.306 88.4972C389.046 87.6071 389.667 86.6063 390.151 85.5249C390.506 84.9629 390.707 84.302 390.732 83.6192C390.757 82.9363 390.605 82.2598 390.292 81.6685C389.223 78.6188 388.114 75.6464 386.904 72.674Z" fill="url(#paint4_linear_21_254)"/>
<path d="M394.245 183.028C394.245 183.028 404.489 190.475 407.736 192.773C414.089 197.249 416.7 196.243 423.869 193.591C428.205 191.989 432.581 159.215 434.85 154.188C436.867 149.768 439.791 146 442.715 142.265L468.125 109.79C470.01 107.37 471.946 104.862 472.884 101.845C473.822 98.8287 473.509 95.1271 471.382 93.0055C471.156 92.7319 470.878 92.5158 470.568 92.3726C470.258 92.2294 469.923 92.1626 469.587 92.1768C469.019 92.3207 468.505 92.6524 468.115 93.1271C458.777 102.343 449.703 111.886 440.89 121.757C438.666 124.402 436.259 126.855 433.69 129.094C431.36 130.995 428.788 132.514 426.057 133.602C423.13 133.163 420.392 131.765 418.203 129.591C417.078 128.458 416.042 127.224 415.107 125.901C407.074 114.981 400.78 102.653 396.493 89.4365C395.828 87.3923 395.031 85.105 393.226 84.1989C390.887 83.0166 388.255 84.7845 386.168 86.4751C385.847 86.6906 385.58 86.9907 385.392 87.3481C385.279 87.6719 385.231 88.0186 385.25 88.3646C385.25 92.884 386.652 97.2044 388.144 101.436C390.847 109.105 393.841 116.663 395.848 124.641C397.855 132.619 399.488 132.983 398.117 141.061C397.34 145.58 395.213 157.845 393.7 162.122C392.944 164.309 389.112 173.989 394.245 183.028Z" fill="#FDD51F"/>
<path d="M472.874 101.845C471.936 104.862 470 107.37 468.114 109.79L442.705 142.265C439.781 146 436.826 149.779 434.84 154.188C432.571 159.215 428.195 191.989 423.859 193.591C421.575 194.571 419.212 195.311 416.801 195.801H416.619C413.846 196.144 411.416 195.381 407.746 192.796C406.284 191.757 403.39 189.68 400.688 187.702L394.275 183.05C389.143 174 392.974 164.331 393.781 162.055C395.293 157.779 397.421 145.481 398.197 140.994C399.569 132.917 397.935 132.486 395.929 124.575C393.922 116.663 390.887 109.105 388.225 101.37C386.733 97.1713 385.321 92.8177 385.331 88.2983C385.311 87.9523 385.359 87.6056 385.472 87.2818C385.661 86.9244 385.927 86.6243 386.249 86.4088C387.128 85.6675 388.07 85.02 389.062 84.4751C389.698 84.0746 390.407 83.8358 391.139 83.7765C391.87 83.7172 392.604 83.8389 393.287 84.1326C395.092 85.0387 395.888 87.326 396.554 89.3702C400.841 102.586 407.134 114.914 415.167 125.834C416.103 127.157 417.138 128.392 418.263 129.525C420.453 131.699 423.19 133.097 426.118 133.536C427.803 132.866 429.43 132.03 430.978 131.039H431.028C431.968 130.434 432.876 129.773 433.751 129.061C436.32 126.822 438.727 124.369 440.95 121.724C442.362 120.144 443.774 118.564 445.195 117.006C451.312 110.265 457.567 103.683 463.96 97.2597C465.345 95.8674 466.736 94.4788 468.135 93.0939C468.525 92.6193 469.039 92.2875 469.607 92.1436C469.943 92.1294 470.278 92.1962 470.588 92.3394C470.898 92.4826 471.176 92.6987 471.402 92.9724C471.47 93.0375 471.531 93.1117 471.583 93.1934C473.479 95.3702 473.771 98.9282 472.874 101.845Z" fill="url(#paint5_linear_21_254)"/>
<path d="M411.638 107.138C410.967 108.575 410.459 110.096 410.126 111.669C409.833 113.437 409.966 115.258 410.51 116.953C411.055 118.649 411.993 120.159 413.232 121.337C413.849 121.822 414.422 122.37 414.946 122.972C415.45 123.78 415.785 124.701 415.926 125.668C416.067 126.634 416.012 127.623 415.762 128.564C415.379 130.586 414.643 132.785 415.531 134.608C415.964 135.371 416.546 136.02 417.235 136.508C418.344 137.579 419.792 138.13 421.268 138.044C422.891 137.735 424.021 136.144 424.979 134.663C429.486 127.746 434.053 120.608 435.939 112.354C436.826 108.42 437.008 104.044 435.173 100.53C433.608 97.8079 431.226 95.7682 428.437 94.7624C425.815 93.7238 420.502 91.8895 417.88 93.779C416.287 94.884 415.652 97.4365 414.855 99.2265L411.638 107.138Z" fill="url(#paint6_linear_21_254)"/>
<path d="M415.289 91.5801C415.013 91.8797 414.83 92.266 414.764 92.6851C414.769 93.0619 414.888 93.4264 415.101 93.7221C415.314 94.0178 415.61 94.2281 415.944 94.3204C416.608 94.4851 417.297 94.4851 417.961 94.3204C417.345 95.4254 418.485 96.7293 419.584 97.1713C420.683 97.6133 422.044 97.8343 422.609 98.9724C422.861 99.4807 422.891 100.077 423.103 100.597C423.738 102.221 425.664 102.53 427.076 103.392C429.445 104.851 430.444 108.155 430.181 111.127C429.919 114.099 428.619 116.807 427.358 119.436C428.024 120.066 428.982 119.105 429.304 118.21C429.627 117.315 430.081 116.166 430.958 116.221C431.835 116.276 432.158 117.657 431.966 118.641C431.773 119.66 431.37 120.618 430.788 121.442C430.206 122.265 429.461 122.932 428.608 123.392C428.333 123.495 428.089 123.678 427.903 123.923C427.58 124.453 427.983 125.215 428.528 125.425C429.098 125.575 429.696 125.528 430.242 125.293C430.014 125.551 429.875 125.887 429.847 126.245C429.82 126.602 429.906 126.959 430.091 127.256C430.276 127.552 430.548 127.769 430.862 127.87C431.177 127.972 431.513 127.951 431.815 127.812C432.361 127.478 432.793 126.959 433.045 126.331L438.036 116.873C439.193 114.944 440.051 112.82 440.577 110.586C440.834 109.466 440.843 108.294 440.603 107.17C440.362 106.045 439.88 105 439.196 104.122C438.862 103.847 438.621 103.458 438.51 103.017C438.502 102.631 438.585 102.251 438.752 101.912C440.476 97.1602 435.031 89.7569 430.837 88.6519C426.299 87.5138 418.525 87.3481 415.289 91.5801Z" fill="#25233A"/>
<path d="M455.329 63.3149C454.139 67.7348 452.869 72.0921 451.517 76.3867C450.509 79.6354 449.461 82.8692 448.372 86.0884C445.841 93.5028 443.078 100.84 440.103 108.044C436.302 102.773 434.396 96 430.181 91.116C429.482 90.2619 428.678 89.5182 427.792 88.9061C427.156 88.4862 425.896 88.2762 425.563 87.5912C428.185 84.5746 431.764 82.0663 434.789 79.5912C437.512 77.3812 440.265 75.1713 443.098 73.0497C443.552 72.6961 444.005 72.3646 444.459 72.0331C445.82 71.0497 447.212 70.0884 448.573 69.0939C450.993 67.4157 453.256 65.48 455.329 63.3149Z" fill="#FDD51F"/>
<path d="M80.4845 272.088H385.452C395.793 272.088 405.711 276.59 413.024 284.604C420.336 292.617 424.444 303.485 424.444 314.818V386.641C424.444 388.021 423.944 389.345 423.053 390.321C422.162 391.297 420.954 391.845 419.695 391.845H46.2519C44.9923 391.845 43.7843 391.297 42.8937 390.321C42.003 389.345 41.5027 388.021 41.5027 386.641V314.818C41.5027 303.487 45.6094 292.62 52.9196 284.607C60.2298 276.594 70.145 272.091 80.4845 272.088Z" fill="#FDD51F"/>
<path d="M424.444 314.807V386.63C424.444 388.01 423.944 389.334 423.053 390.31C422.162 391.286 420.954 391.834 419.695 391.834H46.2519C44.9923 391.834 43.7843 391.286 42.8937 390.31C42.003 389.334 41.5027 388.01 41.5027 386.63V314.807C41.5027 303.474 45.6107 292.606 52.9231 284.592C60.2355 276.579 70.1533 272.077 80.4946 272.077H385.452C390.574 272.073 395.646 273.175 400.378 275.321C405.111 277.467 409.411 280.614 413.032 284.583C416.654 288.551 419.526 293.264 421.484 298.45C423.442 303.636 424.448 309.194 424.444 314.807Z" fill="url(#paint7_linear_21_254)"/>
<path d="M424.444 314.807V386.63C424.444 388.01 423.944 389.334 423.053 390.31C422.163 391.286 420.955 391.834 419.695 391.834H331.971L327.877 272.044V271.227L357.28 272.044L393.932 273.061C402.593 275.178 410.336 280.467 415.883 288.057C421.431 295.647 424.45 305.083 424.444 314.807Z" fill="url(#paint8_linear_21_254)"/>
<path d="M384.111 272.077H83.2573V210.508C83.2573 201.604 86.4844 193.065 92.2289 186.767C97.9734 180.47 105.765 176.931 113.89 176.928H353.488C361.614 176.931 369.407 180.47 375.153 186.767C380.899 193.064 384.129 201.603 384.131 210.508L384.111 272.077Z" fill="#FDD51F"/>
<path d="M384.111 210.508V272.077L83.2573 267.669V210.508C83.2573 201.604 86.4844 193.065 92.2289 186.767C97.9734 180.47 105.765 176.931 113.89 176.928H353.488C361.611 176.937 369.398 180.478 375.14 186.775C380.882 193.071 384.108 201.607 384.111 210.508Z" fill="url(#paint9_linear_21_254)"/>
<path d="M384.111 210.508V272.077H301.872V176.928H353.488C361.611 176.937 369.398 180.478 375.14 186.775C380.882 193.071 384.108 201.607 384.111 210.508Z" fill="url(#paint10_linear_21_254)"/>
<path d="M220.248 55.2486C221.12 55.2486 221.956 55.6281 222.573 56.3037C223.189 56.9792 223.535 57.8955 223.535 58.8508V94.7624H216.961V58.8066C216.972 57.859 217.323 56.954 217.938 56.288C218.553 55.622 219.383 55.2486 220.248 55.2486Z" fill="#FDD51F"/>
<path d="M243.006 55.2486C243.878 55.2486 244.714 55.6281 245.33 56.3037C245.947 56.9792 246.293 57.8955 246.293 58.8508V94.7624H239.719V58.8066C239.73 57.859 240.081 56.954 240.696 56.288C241.311 55.622 242.141 55.2486 243.006 55.2486Z" fill="#FDD51F"/>
<path d="M265.744 55.2486C266.616 55.2486 267.452 55.6281 268.068 56.3037C268.685 56.9792 269.031 57.8955 269.031 58.8508V94.7624H262.457V58.8066C262.467 57.859 262.818 56.954 263.434 56.288C264.049 55.622 264.879 55.2486 265.744 55.2486Z" fill="#FDD51F"/>
<path d="M220.248 55.2486C221.12 55.2486 221.956 55.6281 222.573 56.3037C223.189 56.9792 223.535 57.8955 223.535 58.8508V94.7624H216.961V58.8066C216.972 57.859 217.323 56.954 217.938 56.288C218.553 55.622 219.383 55.2486 220.248 55.2486Z" fill="url(#paint11_linear_21_254)"/>
<path d="M243.006 55.2486C243.878 55.2486 244.714 55.6281 245.33 56.3037C245.947 56.9792 246.293 57.8955 246.293 58.8508V94.7624H239.719V58.8066C239.73 57.859 240.081 56.954 240.696 56.288C241.311 55.622 242.141 55.2486 243.006 55.2486Z" fill="url(#paint12_linear_21_254)"/>
<path d="M265.744 55.2486C266.616 55.2486 267.452 55.6281 268.068 56.3037C268.685 56.9792 269.031 57.8955 269.031 58.8508V94.7624H262.457V58.8066C262.467 57.859 262.818 56.954 263.434 56.288C264.049 55.622 264.879 55.2486 265.744 55.2486Z" fill="url(#paint13_linear_21_254)"/>
<path d="M216.558 48.3425C214.985 45.9448 215.106 42.6077 215.761 39.7459C216.533 36.907 217.634 34.1886 219.038 31.6575V32.9503C220.218 29.5441 220.425 25.8256 219.633 22.2873C220.527 24.9098 221.354 27.5543 222.114 30.221C222.809 32.663 223.041 35.7459 223.909 38.0774C224.776 40.4088 225.492 43.0387 225.028 45.547C224.713 47.2216 223.888 48.7294 222.688 49.8232C221.688 50.4845 220.494 50.6995 219.353 50.424C218.213 50.1484 217.212 49.4033 216.558 48.3425Z" fill="#FDD51F"/>
<path d="M239.306 48.3425C237.733 45.9448 237.854 42.6077 238.509 39.7459C239.281 36.907 240.382 34.1886 241.786 31.6575V32.9503C242.971 29.5453 243.178 25.8251 242.381 22.2873C243.275 24.9098 244.102 27.5543 244.862 30.221C245.557 32.663 245.789 35.7459 246.656 38.0774C247.524 40.4088 248.25 43.0387 247.786 45.547C247.466 47.2225 246.638 48.7299 245.436 49.8232C244.436 50.4845 243.242 50.6995 242.101 50.424C240.96 50.1484 239.96 49.4033 239.306 48.3425Z" fill="#FDD51F"/>
<path d="M262.053 48.3425C260.48 45.9448 260.601 42.6077 261.257 39.7459C262.028 36.9048 263.133 34.1858 264.544 31.6575V32.9503C265.725 29.5442 265.929 25.8239 265.129 22.2873C266.023 24.9098 266.85 27.5543 267.609 30.221C268.305 32.663 268.537 35.7459 269.404 38.0774C270.271 40.4088 270.997 43.0387 270.533 45.547C270.214 47.2225 269.386 48.7299 268.184 49.8232C267.184 50.4845 265.99 50.6995 264.849 50.424C263.708 50.1484 262.707 49.4033 262.053 48.3425Z" fill="#FDD51F"/>
<path d="M216.558 48.3425C214.985 45.9448 215.106 42.6077 215.761 39.7459C216.533 36.907 217.634 34.1886 219.038 31.6575V32.9503C220.218 29.5441 220.425 25.8256 219.633 22.2873C220.527 24.9098 221.354 27.5543 222.114 30.221C222.809 32.663 223.041 35.7459 223.909 38.0774C224.776 40.4088 225.492 43.0387 225.028 45.547C224.713 47.2216 223.888 48.7294 222.688 49.8232C221.688 50.4845 220.494 50.6995 219.353 50.424C218.213 50.1484 217.212 49.4033 216.558 48.3425Z" fill="url(#paint14_linear_21_254)"/>
<path d="M218.443 49.4696C218.113 48.8391 217.907 48.1394 217.839 47.416C217.771 46.6926 217.843 45.9617 218.05 45.2707C218.427 43.88 218.969 42.5499 219.663 41.3149V41.9447C220.235 40.2771 220.333 38.4592 219.946 36.7293C220.389 38.011 220.793 39.3039 221.166 40.6077C221.539 41.9116 221.62 43.2818 222.033 44.453C222.538 45.5834 222.731 46.8507 222.588 48.0994C222.433 48.9219 222.027 49.6622 221.438 50.1989C220.948 50.5181 220.365 50.6203 219.809 50.4848C219.252 50.3493 218.764 49.9862 218.443 49.4696Z" fill="url(#paint15_linear_21_254)"/>
<path d="M263.939 49.4696C263.607 48.8393 263.402 48.1391 263.336 47.4153C263.27 46.6914 263.345 45.9604 263.556 45.2707C263.933 43.8822 264.472 42.5527 265.159 41.3149V41.9447C265.734 40.2783 265.836 38.4603 265.451 36.7293C265.888 38.011 266.292 39.3039 266.661 40.6077C267.004 41.8011 267.115 43.2818 267.539 44.453C268.036 45.5861 268.225 46.8519 268.083 48.0994C267.932 48.9207 267.53 49.6611 266.944 50.1989C266.452 50.5187 265.868 50.6213 265.31 50.4859C264.751 50.3504 264.261 49.987 263.939 49.4696Z" fill="url(#paint16_linear_21_254)"/>
<path d="M241.191 49.4696C240.86 48.8393 240.654 48.1391 240.588 47.4153C240.522 46.6914 240.597 45.9604 240.808 45.2707C241.177 43.8787 241.716 42.548 242.411 41.3149V41.9447C242.983 40.2771 243.081 38.4592 242.694 36.7293C243.137 38.011 243.541 39.3039 243.914 40.6077C244.287 41.9116 244.368 43.2818 244.791 44.453C245.288 45.5861 245.477 46.8519 245.336 48.0994C245.18 48.9191 244.779 49.6583 244.196 50.1989C243.705 50.5187 243.12 50.6213 242.562 50.4859C242.004 50.3504 241.514 49.987 241.191 49.4696Z" fill="url(#paint17_linear_21_254)"/>
<path d="M239.306 48.3425C237.733 45.9448 237.854 42.6077 238.509 39.7459C239.281 36.907 240.382 34.1886 241.786 31.6575V32.9503C242.971 29.5453 243.178 25.8251 242.381 22.2873C243.275 24.9098 244.102 27.5543 244.862 30.221C245.557 32.663 245.789 35.7459 246.656 38.0774C247.524 40.4088 248.25 43.0387 247.786 45.547C247.466 47.2225 246.638 48.7299 245.436 49.8232C244.436 50.4845 243.242 50.6995 242.101 50.424C240.96 50.1484 239.96 49.4033 239.306 48.3425Z" fill="url(#paint18_linear_21_254)"/>
<path d="M262.053 48.3425C260.48 45.9448 260.601 42.6077 261.257 39.7459C262.028 36.9048 263.133 34.1858 264.544 31.6575V32.9503C265.725 29.5442 265.929 25.8239 265.129 22.2873C266.023 24.9098 266.85 27.5543 267.609 30.221C268.305 32.663 268.537 35.7459 269.404 38.0774C270.271 40.4088 270.997 43.0387 270.533 45.547C270.214 47.2225 269.386 48.7299 268.184 49.8232C267.184 50.4845 265.99 50.6995 264.849 50.424C263.708 50.1484 262.707 49.4033 262.053 48.3425Z" fill="url(#paint19_linear_21_254)"/>
<path d="M85.4555 197.348C89.3375 197.459 93.2297 198.552 97.0714 197.923C100.913 197.293 104.856 194.895 108.667 196.055C110.754 196.696 112.468 198.343 114.465 199.249C121.281 202.365 129.207 196.508 136.315 198.685C138.413 199.337 140.49 200.674 142.627 200.21C144.513 199.801 145.894 198.088 147.528 196.994C153.81 192.785 161.796 198.188 169.146 197.702C173.785 197.403 178.302 194.696 182.86 195.68C184.705 196.088 186.419 197.072 188.284 197.337C194.233 198.155 200.556 191.58 205.628 195.127C206.807 195.945 207.765 197.271 209.137 197.58C210.73 197.945 212.242 196.807 213.684 195.956C215.763 194.745 218.056 194.044 220.406 193.899C222.756 193.754 225.107 194.169 227.296 195.116C228.789 195.768 230.261 196.696 231.874 196.674C234.445 196.674 236.462 194.298 238.852 193.238C246.979 189.669 256.326 201.635 263.999 197.028C265.411 196.177 266.54 194.818 267.972 194.055C273.841 190.829 280.334 198.044 286.878 197.624C291.557 197.337 295.691 193.127 300.339 193.746C304.07 194.254 307.156 197.801 310.907 197.735C315.242 197.657 318.973 192.751 323.198 193.967C325.588 194.674 327.312 197.282 329.772 197.624C333.917 198.232 336.609 192.365 340.733 191.613C345.422 190.762 349.011 196.74 353.74 197.249C356.765 197.569 359.498 195.646 362.442 194.983C365.386 194.32 369.359 196.088 369.067 199.403C371.971 196.939 375.117 194.387 378.747 194.044C384.131 193.525 389.354 198.961 389.112 204.884C388.87 210.807 383.173 215.713 377.88 214.519C375.056 213.878 372.606 211.834 369.763 211.304C365.245 210.464 360.688 213.613 356.18 212.884C352.51 212.298 349.273 209.238 345.573 209.569C342.84 209.801 340.531 211.878 337.839 212.552C329.994 214.552 322.008 204.376 314.648 208.077C312.127 209.348 310.403 212.055 307.902 213.381C300.914 217.083 293.08 208.32 285.426 209.702C281.111 210.475 277.43 214.42 273.074 214.122C269.727 213.867 266.903 211.116 263.576 210.597C256.992 209.569 251.668 217.37 245.013 217.602C237.954 217.856 232.489 209.646 225.461 209.867C220.763 210 216.275 213.956 211.758 212.541C209.943 211.967 208.4 210.575 206.555 210.077C201.383 208.674 196.684 214.74 191.36 214.409C188.093 214.21 185.31 211.602 182.063 211.094C176.689 210.232 171.748 215.204 166.323 214.983C162.038 214.818 158.256 211.436 153.981 211.37C149.252 211.304 145.098 215.282 140.369 215.392C134.954 215.503 130.205 210.541 124.81 210.895C119.184 211.271 114.515 217.337 108.929 216.475C106.691 216.133 104.674 214.663 102.415 214.409C99.5821 214.088 96.8798 215.702 94.0666 216.221C91.2533 216.74 88.3292 216.111 85.5059 215.492C82.6826 214.873 79.4559 214.144 77.0864 212.111C68.7173 204.74 78.5182 197.193 85.4555 197.348Z" fill="#FDD51F"/>
<path d="M116.683 243.16C124.125 244.265 130.8 238.365 138.191 236.652C148.274 234.298 158.428 239.967 168.703 239.691C178.252 239.403 187.458 233.901 196.936 235.271C201.614 235.945 206.011 238.276 210.78 238.431C219.008 238.718 227.065 232.376 234.98 234.84C238.862 236.033 242.431 239.315 246.414 238.63C248.29 238.309 249.933 237.138 251.688 236.42C259.472 233.105 267.892 238.033 275.656 241.425C278.681 242.751 281.887 243.856 285.134 243.58C288.653 243.282 291.87 241.37 295.157 239.978C303.125 236.59 311.843 235.924 320.163 238.066C321.603 238.623 323.154 238.741 324.65 238.409C326.324 237.801 327.383 236.044 328.683 234.785C333.382 230.365 340.461 232.575 346.501 234.077C355.721 236.355 365.285 236.397 374.522 234.199C377.688 233.448 380.905 232.42 384.101 232.972C387.297 233.525 390.474 236.287 390.464 239.812C390.464 244.232 386.057 246.762 382.226 247.956C373.29 250.745 363.899 251.311 354.739 249.613C352.11 248.995 349.445 248.578 346.763 248.365C343.859 248.413 340.966 248.761 338.121 249.403C334.612 250.022 331.063 250.508 327.544 250.906L299.805 254.387C292.969 255.238 285.981 256.088 279.286 254.387C274.708 253.282 270.332 250.884 265.643 250.619C262.51 250.598 259.389 251.044 256.366 251.945L238.297 256.365C236.124 257.071 233.846 257.3 231.592 257.039C228.365 256.42 225.663 253.856 222.436 253.271C217.314 252.332 212.424 256.586 207.241 256.309C201.302 256.055 196.25 250.066 190.352 250.785C185.31 251.436 181.125 256.895 176.235 255.735C173.775 255.138 171.728 252.928 169.177 252.796C166.454 252.663 164.135 255.006 161.523 255.735C156.139 257.26 150.432 252.033 145.179 254.077C142.91 254.961 141.145 257.116 138.816 257.779C133.462 259.304 128.813 252.508 123.278 252.575C117.742 252.641 113.134 259.503 107.85 257.779C106.187 257.238 104.735 255.867 103 255.823C100.127 255.757 97.8579 259.381 95.0245 258.895C92.4029 258.453 91.3845 255.127 88.9746 254.177C85.5261 252.785 82.1583 255.945 78.6695 254.84C73.2548 253.138 72.4683 248.133 76.9352 245.293C81.7751 242.21 88.7023 243.083 94.0162 241.978C97.7268 241.215 101.256 239.448 105.108 239.68C109.232 239.989 112.721 242.497 116.683 243.16Z" fill="#FDD51F"/>
<path d="M43.0856 302.785C46.9576 303.326 50.8094 304.928 54.6511 304.177C57.9987 303.514 60.8321 301.138 64.0285 299.878C75.3419 295.459 87.8048 305.702 99.4812 302.663C105.219 301.171 110.573 296.53 116.361 298.011C118.377 298.53 120.283 299.823 122.41 299.878C125.93 299.978 128.823 296.619 132.312 296.144C134.24 296.063 136.166 296.32 138.019 296.906C141.586 297.527 145.2 297.757 148.808 297.591C159.204 297.503 170.266 293.282 179.986 297.315C209.59 309.569 230.947 301.459 238.398 298.099C248.149 293.68 259.472 298.166 270.019 298.199C274.209 298.084 278.401 298.346 282.553 298.983C285.85 299.58 289.117 300.652 292.464 300.541C299.371 300.309 305.573 295.017 312.52 295.26C318.57 295.425 324.267 299.834 330.307 299.072C335.903 298.376 340.451 293.359 346.047 292.619C354.527 291.514 362.24 300.354 370.67 298.895C374.179 298.276 377.305 295.878 380.834 295.514C387.166 294.851 392.652 300.718 398.984 301.182C402.18 301.414 405.306 300.254 408.412 299.403C413.824 297.922 419.411 297.363 424.978 297.746C426.564 297.737 428.125 298.17 429.516 299.006C432.702 301.216 432.47 306.829 430.05 310.055C427.63 313.282 423.809 314.685 420.199 315.978C412.284 318.796 403.945 321.657 395.757 319.945C389.969 318.729 384.514 315.249 378.616 315.525C370.942 315.901 363.491 322.619 356.291 319.746C354.043 318.851 351.784 317.039 349.495 317.823C347.872 318.376 346.833 320.111 345.341 321.017C342.689 322.641 339.412 321.337 336.508 320.354C327.632 317.366 318.105 317.673 309.404 321.227C305.754 322.729 302.154 324.829 298.252 324.796C291.92 324.796 286.495 319.105 280.163 318.95C272.459 318.751 265.784 326.685 258.141 325.58C255.509 325.193 253.099 323.746 250.478 323.227C247.912 322.873 245.311 322.974 242.774 323.525L215.136 327.945C210.609 328.663 205.91 329.37 201.514 327.945C196.371 326.265 192.176 321.823 186.923 320.652C176.527 318.332 166.928 329.492 156.371 328.387C152.338 327.978 148.677 325.834 144.705 325.16C136.265 323.724 127.503 329.006 119.295 326.409C115.261 325.116 111.531 321.923 107.276 321.989C100.459 322.166 95.8411 330.619 89.1257 331.503C82.4103 332.387 75.4326 325.37 69.2012 328.431C67.1846 329.425 65.5309 331.436 63.3328 331.845C58.2911 332.796 54.3587 324.983 49.3574 326.177C47.6432 326.586 46.3324 328.011 44.7292 328.851C40.2421 331.26 34.4342 328.298 32.1352 323.436C27.7389 314.122 32.72 301.315 43.0856 302.785Z" fill="#FDD51F"/>
<path d="M59.3601 354.508C70.361 354.508 81.6441 347.039 91.808 351.657C94.5103 352.884 97.0009 354.972 99.8746 355.094C103.565 355.293 106.701 352.442 110.028 350.674C122.562 344.044 137.636 353.16 151.239 349.956C155.615 348.928 159.729 346.641 164.186 346.188C174.138 345.193 183.566 353.514 193.427 351.856C198.327 351.039 202.683 347.823 207.543 346.906C216.8 345.171 225.855 351.901 235.232 351.227C238.802 350.972 242.23 349.657 245.678 348.575C257.253 344.967 269.388 344.06 281.302 345.912C285.336 346.552 289.5 347.503 293.533 346.718C298.978 345.669 303.728 341.536 309.243 341.127C318.096 340.464 326.274 349.514 334.885 347.16C337.779 346.376 340.38 344.32 343.355 344.11C348.235 343.746 352.43 348.365 357.31 348.53C363.632 348.807 368.664 341.779 374.996 341.713C379.987 341.657 384.303 345.978 389.294 346.199C393.418 346.376 397.149 343.757 401.091 342.431C405.034 341.105 410.368 341.834 411.769 346.077C415.42 340.983 422.68 342.486 428.306 344.486C431.855 345.757 435.919 347.58 436.867 351.536C438.077 356.597 433.297 360.917 428.8 362.785C408.896 371.083 386.4 360.475 365.407 364.409C358.409 365.724 351.431 368.663 344.413 367.503C340.259 366.818 336.347 364.718 332.162 364.365C325.296 363.779 318.671 367.945 311.794 367.525C307.942 367.282 304.272 365.613 300.43 365.193C295.933 364.707 291.446 365.967 287.02 366.95C272.621 370.177 257.849 370.696 243.168 371.193L227.68 371.724C209.308 372.354 190.775 372.961 172.696 369.326C168.289 368.442 163.722 367.315 159.396 368.597C156.139 369.58 153.346 371.845 150.321 373.536C146.686 375.547 142.719 376.733 138.656 377.024C134.593 377.314 130.518 376.703 126.676 375.227C121.221 373.094 115.927 369.149 110.18 369.978C105.199 370.696 101.105 374.917 96.0631 375.602C89.3275 376.53 82.5314 370.807 76.0782 373.105C73.2347 374.111 70.845 376.608 67.8704 376.873C63.2422 377.304 59.3601 372.232 54.7622 372.453C52.3523 372.564 50.2146 374.099 47.9459 375.017C40.7162 377.978 26.2266 371.702 29.5238 361.282C33.8495 348.077 50.6079 354.486 59.3601 354.508Z" fill="#FDD51F"/>
<path d="M202.673 94.7293H283.339C293.18 94.7293 302.619 99.0134 309.577 106.639C316.536 114.265 320.445 124.608 320.445 135.392V176.939H165.567V135.392C165.567 124.608 169.476 114.265 176.435 106.639C183.394 99.0134 192.832 94.7293 202.673 94.7293Z" fill="#FDD51F"/>
<path d="M320.435 135.392V176.928H165.567V135.392C165.566 130.051 166.524 124.763 168.389 119.828C170.253 114.893 172.986 110.409 176.432 106.632C179.877 102.855 183.968 99.8588 188.471 97.8146C192.974 95.7704 197.799 94.7182 202.673 94.7182H283.339C289.432 94.7047 295.433 96.3487 300.803 99.5028C306.737 102.974 311.697 108.146 315.155 114.468C318.613 120.789 320.438 128.022 320.435 135.392Z" fill="url(#paint20_linear_21_254)"/>
<path d="M320.435 135.392V176.928H279.155L277.642 108.044C296.195 106.265 300.834 99.5027 300.834 99.5027C306.761 102.978 311.716 108.153 315.168 114.474C318.621 120.795 320.441 128.025 320.435 135.392Z" fill="url(#paint21_linear_21_254)"/>
<path opacity="0.36" d="M0 400.508C22.0841 412.605 46.8689 417.513 71.4196 414.652C68.4551 416.674 69.2315 422.077 72.0044 424.409C74.7773 426.74 78.5384 426.895 82.0877 426.939L304.433 429.934C316.735 430.099 329.268 430.232 341.056 426.343C348.195 423.989 354.88 420.221 361.938 417.602C369.944 414.641 378.343 413.182 386.682 411.768L444.732 401.823C443.468 398.294 441.15 395.34 438.155 393.443C435.16 391.546 431.666 390.819 428.245 391.381L433.216 382.983L60.5398 392.928C51.2531 393.171 44.1444 387.867 35.4224 387.657C24.0889 387.436 9.73033 394.983 0 400.508Z" fill="#FDD51F"/>
<path d="M171.193 121.801C174.41 123.227 177.415 125.691 180.893 125.624C185.743 125.525 189.676 120.464 194.526 120.597C197.389 120.674 200.072 122.586 202.915 122.265C206.474 121.856 208.965 118.144 212.424 117.094C218.474 115.249 224.523 122.099 230.624 120.464C233.971 119.558 237.087 116.155 240.324 117.448C241.725 118.011 242.714 119.359 243.843 120.42C245.093 121.576 246.558 122.42 248.135 122.895C249.712 123.37 251.365 123.464 252.978 123.171C257.012 122.42 260.702 119.26 264.756 119.856C268.809 120.453 272.227 124.486 276.008 123.171C278.247 122.398 279.699 119.856 281.937 119.116C286.061 117.669 289.863 122.608 294.199 122.829C298.161 123.039 301.922 119.249 305.714 120.508C307.831 121.204 309.747 123.448 311.865 122.718C313.377 122.188 314.355 120.21 315.898 120.21C317.088 120.21 318.015 121.37 319.185 121.646C321.202 122.099 322.966 119.956 324.983 120.144C327.443 120.387 328.421 124.011 327.473 126.475C326.526 128.939 324.448 130.652 322.885 132.729C322.454 133.41 321.922 134.007 321.312 134.497C319.084 135.989 316.452 133.669 313.982 132.718C308.94 130.762 303.455 134.928 298.101 134.343C293.059 133.746 288.431 128.939 283.621 130.597C281.494 131.326 279.901 133.193 278.005 134.464C276.109 135.735 273.346 136.232 271.864 134.464C270.856 133.282 270.311 131.149 268.839 131.359C268.053 131.492 267.579 132.332 266.923 132.818C265.29 134.066 263.112 132.884 261.176 132.354C255.782 130.873 250.316 134.862 244.75 134.564C239.184 134.265 233.729 129.878 228.839 132.497C227.256 133.337 226.016 134.84 224.372 135.536C219.331 137.746 213.281 131.436 208.572 134.431C207.705 134.972 207.009 135.801 206.162 136.387C203.238 138.42 199.366 137.238 196.159 135.768C192.953 134.298 189.454 132.575 186.137 133.724C183.817 134.53 182.103 136.597 180.187 138.232C178.272 139.867 175.68 141.16 173.452 140.088C171.435 139.094 170.024 136.254 167.775 136.431C165.758 136.586 164.417 139.293 162.35 139.448C160.596 139.58 159.204 137.691 158.882 135.812C158.559 133.934 158.952 132.022 158.952 130.111C158.8 128.632 158.889 127.135 159.214 125.691C159.718 124.232 162.985 122.287 164.306 121.613C166.535 120.682 169.009 120.749 171.193 121.801Z" fill="#FDD51F"/>
<path d="M313.155 152.398C309.788 153.503 306.621 155.536 303.072 155.956C296.972 156.696 290.902 152.641 284.872 153.878C281.403 154.619 278.247 157.083 274.718 156.906C271.431 156.729 268.587 154.265 265.351 153.591C259.301 152.32 253.331 157.459 247.201 156.464C244.277 155.989 241.494 154.11 238.56 154.541C236.281 154.884 234.325 156.586 232.046 156.961C229.515 157.381 227.004 156.111 224.584 155.381C219.625 153.954 214.354 154.682 209.873 157.414C208.819 158.255 207.587 158.787 206.293 158.961C205.282 158.852 204.299 158.53 203.399 158.011C200.567 156.737 197.482 156.291 194.445 156.718C193.153 156.981 191.846 157.15 190.533 157.227C188.948 157.083 187.378 156.78 185.844 156.32C182.481 155.729 179.064 155.595 175.67 155.923L173.351 156.044L164.518 156.497C162.149 156.619 159.477 156.939 158.075 159.039C155.716 162.641 159.709 167.646 163.732 168.122C167.755 168.597 171.728 166.696 175.781 166.796C178.524 166.873 181.196 167.901 183.929 168.144C190.987 168.84 197.833 164.674 204.942 164.729C211.184 164.729 217.304 168.044 223.475 167.05C226.5 166.541 229.394 165.017 232.429 165.238C235.04 165.425 237.471 166.895 240.122 166.84C242.996 166.773 245.577 164.873 248.411 164.354C252.706 163.569 256.992 166 261.348 165.912C266.813 165.801 271.844 161.735 277.299 162.188C282.28 162.608 286.647 166.751 291.638 166.608C296.629 166.464 301.247 161.878 306.127 163.116C308.003 163.58 309.636 164.873 311.502 165.326C313.367 165.779 315.817 165.072 316.211 163.006C316.755 163.558 317.399 163.98 318.1 164.245C318.801 164.511 319.545 164.613 320.285 164.547C321.024 164.48 321.743 164.246 322.396 163.859C323.048 163.472 323.62 162.94 324.076 162.298C329.218 154.221 318.036 150.718 313.155 152.398Z" fill="#FDD51F"/>
<path d="M85.4555 197.348C89.3375 197.459 93.2297 198.552 97.0714 197.923C100.913 197.293 104.856 194.895 108.667 196.055C110.754 196.696 112.468 198.343 114.465 199.249C121.281 202.365 129.207 196.508 136.315 198.685C138.413 199.337 140.49 200.674 142.627 200.21C144.513 199.801 145.894 198.088 147.528 196.994C153.81 192.785 161.796 198.188 169.146 197.702C173.785 197.403 178.302 194.696 182.86 195.68C184.705 196.088 186.419 197.072 188.284 197.337C194.233 198.155 200.556 191.58 205.628 195.127C206.807 195.945 207.765 197.271 209.137 197.58C210.73 197.945 212.242 196.807 213.684 195.956C215.763 194.745 218.056 194.044 220.406 193.899C222.756 193.754 225.107 194.169 227.296 195.116C228.789 195.768 230.261 196.696 231.874 196.674C234.445 196.674 236.462 194.298 238.852 193.238C246.979 189.669 256.326 201.635 263.999 197.028C265.411 196.177 266.54 194.818 267.972 194.055C273.841 190.829 280.334 198.044 286.878 197.624C291.557 197.337 295.691 193.127 300.339 193.746C304.07 194.254 307.156 197.801 310.907 197.735C315.242 197.657 318.973 192.751 323.198 193.967C325.588 194.674 327.312 197.282 329.772 197.624C333.917 198.232 336.609 192.365 340.733 191.613C345.422 190.762 349.011 196.74 353.74 197.249C356.765 197.569 359.498 195.646 362.442 194.983C365.386 194.32 369.359 196.088 369.067 199.403C371.971 196.939 375.117 194.387 378.747 194.044C384.131 193.525 389.354 198.961 389.112 204.884C388.87 210.807 383.173 215.713 377.88 214.519C375.056 213.878 372.606 211.834 369.763 211.304C365.245 210.464 360.688 213.613 356.18 212.884C352.51 212.298 349.273 209.238 345.573 209.569C342.84 209.801 340.531 211.878 337.839 212.552C329.994 214.552 322.008 204.376 314.648 208.077C312.127 209.348 310.403 212.055 307.902 213.381C300.914 217.083 293.08 208.32 285.426 209.702C281.111 210.475 277.43 214.42 273.074 214.122C269.727 213.867 266.903 211.116 263.576 210.597C256.992 209.569 251.668 217.37 245.013 217.602C237.954 217.856 232.489 209.646 225.461 209.867C220.763 210 216.275 213.956 211.758 212.541C209.943 211.967 208.4 210.575 206.555 210.077C201.383 208.674 196.684 214.74 191.36 214.409C188.093 214.21 185.31 211.602 182.063 211.094C176.689 210.232 171.748 215.204 166.323 214.983C162.038 214.818 158.256 211.436 153.981 211.37C149.252 211.304 145.098 215.282 140.369 215.392C134.954 215.503 130.205 210.541 124.81 210.895C119.184 211.271 114.515 217.337 108.929 216.475C106.691 216.133 104.674 214.663 102.415 214.409C99.5821 214.088 96.8798 215.702 94.0666 216.221C91.2533 216.74 88.3292 216.111 85.5059 215.492C82.6826 214.873 79.4559 214.144 77.0864 212.111C68.7173 204.74 78.5182 197.193 85.4555 197.348Z" fill="url(#paint22_linear_21_254)"/>
<path d="M116.683 243.16C124.125 244.265 130.8 238.365 138.191 236.652C148.274 234.298 158.428 239.967 168.703 239.691C178.252 239.403 187.458 233.901 196.936 235.271C201.614 235.945 206.011 238.276 210.78 238.431C219.008 238.718 227.065 232.376 234.98 234.84C238.862 236.033 242.431 239.315 246.414 238.63C248.29 238.309 249.933 237.138 251.688 236.42C259.472 233.105 267.892 238.033 275.656 241.425C278.681 242.751 281.887 243.856 285.134 243.58C288.653 243.282 291.87 241.37 295.157 239.978C303.125 236.59 311.843 235.924 320.163 238.066C321.603 238.623 323.154 238.741 324.65 238.409C326.324 237.801 327.383 236.044 328.683 234.785C333.382 230.365 340.461 232.575 346.501 234.077C355.721 236.355 365.285 236.397 374.522 234.199C377.688 233.448 380.905 232.42 384.101 232.972C387.297 233.525 390.474 236.287 390.464 239.812C390.464 244.232 386.057 246.762 382.226 247.956C373.29 250.745 363.899 251.311 354.739 249.613C352.11 248.995 349.445 248.578 346.763 248.365C343.859 248.413 340.966 248.761 338.121 249.403C334.612 250.022 331.063 250.508 327.544 250.906L299.805 254.387C292.969 255.238 285.981 256.088 279.286 254.387C274.708 253.282 270.332 250.884 265.643 250.619C262.51 250.598 259.389 251.044 256.366 251.945L238.297 256.365C236.124 257.071 233.846 257.3 231.592 257.039C228.365 256.42 225.663 253.856 222.436 253.271C217.314 252.332 212.424 256.586 207.241 256.309C201.302 256.055 196.25 250.066 190.352 250.785C185.31 251.436 181.125 256.895 176.235 255.735C173.775 255.138 171.728 252.928 169.177 252.796C166.454 252.663 164.135 255.006 161.523 255.735C156.139 257.26 150.432 252.033 145.179 254.077C142.91 254.961 141.145 257.116 138.816 257.779C133.462 259.304 128.813 252.508 123.278 252.575C117.742 252.641 113.134 259.503 107.85 257.779C106.187 257.238 104.735 255.867 103 255.823C100.127 255.757 97.8579 259.381 95.0245 258.895C92.4029 258.453 91.3845 255.127 88.9746 254.177C85.5261 252.785 82.1583 255.945 78.6695 254.84C73.2548 253.138 72.4683 248.133 76.9352 245.293C81.7751 242.21 88.7023 243.083 94.0162 241.978C97.7268 241.215 101.256 239.448 105.108 239.68C109.232 239.989 112.721 242.497 116.683 243.16Z" fill="url(#paint23_linear_21_254)"/>
<path d="M43.0856 302.785C46.9576 303.326 50.8094 304.928 54.6511 304.177C57.9987 303.514 60.8321 301.138 64.0285 299.878C75.3419 295.459 87.8048 305.702 99.4812 302.663C105.219 301.171 110.573 296.53 116.361 298.011C118.377 298.53 120.283 299.823 122.41 299.878C125.93 299.978 128.823 296.619 132.312 296.144C134.24 296.063 136.166 296.32 138.019 296.906C141.586 297.527 145.2 297.757 148.808 297.591C159.204 297.503 170.266 293.282 179.986 297.315C209.59 309.569 230.947 301.459 238.398 298.099C248.149 293.68 259.472 298.166 270.019 298.199C274.209 298.084 278.401 298.346 282.553 298.983C285.85 299.58 289.117 300.652 292.464 300.541C299.371 300.309 305.573 295.017 312.52 295.26C318.57 295.425 324.267 299.834 330.307 299.072C335.903 298.376 340.451 293.359 346.047 292.619C354.527 291.514 362.24 300.354 370.67 298.895C374.179 298.276 377.305 295.878 380.834 295.514C387.166 294.851 392.652 300.718 398.984 301.182C402.18 301.414 405.306 300.254 408.412 299.403C413.824 297.922 419.411 297.363 424.978 297.746C426.564 297.737 428.125 298.17 429.516 299.006C432.702 301.216 432.47 306.829 430.05 310.055C427.63 313.282 423.809 314.685 420.199 315.978C412.284 318.796 403.945 321.657 395.757 319.945C389.969 318.729 384.514 315.249 378.616 315.525C370.942 315.901 363.491 322.619 356.291 319.746C354.043 318.851 351.784 317.039 349.495 317.823C347.872 318.376 346.833 320.111 345.341 321.017C342.689 322.641 339.412 321.337 336.508 320.354C327.632 317.366 318.105 317.673 309.404 321.227C305.754 322.729 302.154 324.829 298.252 324.796C291.92 324.796 286.495 319.105 280.163 318.95C272.459 318.751 265.784 326.685 258.141 325.58C255.509 325.193 253.099 323.746 250.478 323.227C247.912 322.873 245.311 322.974 242.774 323.525L215.136 327.945C210.609 328.663 205.91 329.37 201.514 327.945C196.371 326.265 192.176 321.823 186.923 320.652C176.527 318.332 166.928 329.492 156.371 328.387C152.338 327.978 148.677 325.834 144.705 325.16C136.265 323.724 127.503 329.006 119.295 326.409C115.261 325.116 111.531 321.923 107.276 321.989C100.459 322.166 95.8411 330.619 89.1257 331.503C82.4103 332.387 75.4326 325.37 69.2012 328.431C67.1846 329.425 65.5309 331.436 63.3328 331.845C58.2911 332.796 54.3587 324.983 49.3574 326.177C47.6432 326.586 46.3324 328.011 44.7292 328.851C40.2421 331.26 34.4342 328.298 32.1352 323.436C27.7389 314.122 32.72 301.315 43.0856 302.785Z" fill="url(#paint24_linear_21_254)"/>
<path d="M59.3601 354.508C70.361 354.508 81.6441 347.039 91.808 351.657C94.5103 352.884 97.0009 354.972 99.8746 355.094C103.565 355.293 106.701 352.442 110.028 350.674C122.562 344.044 137.636 353.16 151.239 349.956C155.615 348.928 159.729 346.641 164.186 346.188C174.138 345.193 183.566 353.514 193.427 351.856C198.327 351.039 202.683 347.823 207.543 346.906C216.8 345.171 225.855 351.901 235.232 351.227C238.802 350.972 242.23 349.657 245.678 348.575C257.253 344.967 269.388 344.06 281.302 345.912C285.336 346.552 289.5 347.503 293.533 346.718C298.978 345.669 303.728 341.536 309.243 341.127C318.096 340.464 326.274 349.514 334.885 347.16C337.779 346.376 340.38 344.32 343.355 344.11C348.235 343.746 352.43 348.365 357.31 348.53C363.632 348.807 368.664 341.779 374.996 341.713C379.987 341.657 384.303 345.978 389.294 346.199C393.418 346.376 397.149 343.757 401.091 342.431C405.034 341.105 410.368 341.834 411.769 346.077C415.42 340.983 422.68 342.486 428.306 344.486C431.855 345.757 435.919 347.58 436.867 351.536C438.077 356.597 433.297 360.917 428.8 362.785C408.896 371.083 386.4 360.475 365.407 364.409C358.409 365.724 351.431 368.663 344.413 367.503C340.259 366.818 336.347 364.718 332.162 364.365C325.296 363.779 318.671 367.945 311.794 367.525C307.942 367.282 304.272 365.613 300.43 365.193C295.933 364.707 291.446 365.967 287.02 366.95C272.621 370.177 257.849 370.696 243.168 371.193L227.68 371.724C209.308 372.354 190.775 372.961 172.696 369.326C168.289 368.442 163.722 367.315 159.396 368.597C156.139 369.58 153.346 371.845 150.321 373.536C146.686 375.547 142.719 376.733 138.656 377.024C134.593 377.314 130.518 376.703 126.676 375.227C121.221 373.094 115.927 369.149 110.18 369.978C105.199 370.696 101.105 374.917 96.0631 375.602C89.3275 376.53 82.5314 370.807 76.0782 373.105C73.2347 374.111 70.845 376.608 67.8704 376.873C63.2422 377.304 59.3601 372.232 54.7622 372.453C52.3523 372.564 50.2146 374.099 47.9459 375.017C40.7162 377.978 26.2266 371.702 29.5238 361.282C33.8495 348.077 50.6079 354.486 59.3601 354.508Z" fill="url(#paint25_linear_21_254)"/>
<path d="M171.193 121.801C174.41 123.227 177.415 125.691 180.893 125.624C185.743 125.525 189.676 120.464 194.526 120.597C197.389 120.674 200.072 122.586 202.915 122.265C206.474 121.856 208.965 118.144 212.424 117.094C218.474 115.249 224.523 122.099 230.624 120.464C233.971 119.558 237.087 116.155 240.324 117.448C241.725 118.011 242.714 119.359 243.843 120.42C245.093 121.576 246.558 122.42 248.135 122.895C249.712 123.37 251.365 123.464 252.978 123.171C257.012 122.42 260.702 119.26 264.756 119.856C268.809 120.453 272.227 124.486 276.008 123.171C278.247 122.398 279.699 119.856 281.937 119.116C286.061 117.669 289.863 122.608 294.199 122.829C298.161 123.039 301.922 119.249 305.714 120.508C307.831 121.204 309.747 123.448 311.865 122.718C313.377 122.188 314.355 120.21 315.898 120.21C317.088 120.21 318.015 121.37 319.185 121.646C321.202 122.099 322.966 119.956 324.983 120.144C327.443 120.387 328.421 124.011 327.473 126.475C326.526 128.939 324.448 130.652 322.885 132.729C322.454 133.41 321.922 134.007 321.312 134.497C319.084 135.989 316.452 133.669 313.982 132.718C308.94 130.762 303.455 134.928 298.101 134.343C293.059 133.746 288.431 128.939 283.621 130.597C281.494 131.326 279.901 133.193 278.005 134.464C276.109 135.735 273.346 136.232 271.864 134.464C270.856 133.282 270.311 131.149 268.839 131.359C268.053 131.492 267.579 132.332 266.923 132.818C265.29 134.066 263.112 132.884 261.176 132.354C255.782 130.873 250.316 134.862 244.75 134.564C239.184 134.265 233.729 129.878 228.839 132.497C227.256 133.337 226.016 134.84 224.372 135.536C219.331 137.746 213.281 131.436 208.572 134.431C207.705 134.972 207.009 135.801 206.162 136.387C203.238 138.42 199.366 137.238 196.159 135.768C192.953 134.298 189.454 132.575 186.137 133.724C183.817 134.53 182.103 136.597 180.187 138.232C178.272 139.867 175.68 141.16 173.452 140.088C171.435 139.094 170.024 136.254 167.775 136.431C165.758 136.586 164.417 139.293 162.35 139.448C160.596 139.58 159.204 137.691 158.882 135.812C158.559 133.934 158.952 132.022 158.952 130.111C158.8 128.632 158.889 127.135 159.214 125.691C159.718 124.232 162.985 122.287 164.306 121.613C166.535 120.682 169.009 120.749 171.193 121.801Z" fill="url(#paint26_linear_21_254)"/>
<path d="M313.155 152.398C309.788 153.503 306.621 155.536 303.072 155.956C296.972 156.696 290.902 152.641 284.872 153.878C281.403 154.619 278.247 157.083 274.718 156.906C271.431 156.729 268.587 154.265 265.351 153.591C259.301 152.32 253.331 157.459 247.201 156.464C244.277 155.989 241.494 154.11 238.56 154.541C236.281 154.884 234.325 156.586 232.046 156.961C229.515 157.381 227.004 156.111 224.584 155.381C219.625 153.954 214.354 154.682 209.873 157.414C208.819 158.255 207.587 158.787 206.293 158.961C205.282 158.852 204.299 158.53 203.399 158.011C200.567 156.737 197.482 156.291 194.445 156.718C193.153 156.981 191.846 157.15 190.533 157.227C188.948 157.083 187.378 156.78 185.844 156.32C182.481 155.729 179.064 155.595 175.67 155.923L173.351 156.044L164.518 156.497C162.149 156.619 159.477 156.939 158.075 159.039C155.716 162.641 159.709 167.646 163.732 168.122C167.755 168.597 171.728 166.696 175.781 166.796C178.524 166.873 181.196 167.901 183.929 168.144C190.987 168.84 197.833 164.674 204.942 164.729C211.184 164.729 217.304 168.044 223.475 167.05C226.5 166.541 229.394 165.017 232.429 165.238C235.04 165.425 237.471 166.895 240.122 166.84C242.996 166.773 245.577 164.873 248.411 164.354C252.706 163.569 256.992 166 261.348 165.912C266.813 165.801 271.844 161.735 277.299 162.188C282.28 162.608 286.647 166.751 291.638 166.608C296.629 166.464 301.247 161.878 306.127 163.116C308.003 163.58 309.636 164.873 311.502 165.326C313.367 165.779 315.817 165.072 316.211 163.006C316.755 163.558 317.399 163.98 318.1 164.245C318.801 164.511 319.545 164.613 320.285 164.547C321.024 164.48 321.743 164.246 322.396 163.859C323.048 163.472 323.62 162.94 324.076 162.298C329.218 154.221 318.036 150.718 313.155 152.398Z" fill="url(#paint27_linear_21_254)"/>
<path d="M471.644 94.7182C471.432 98.6188 429.294 145.912 429.294 145.912L420.118 185.525L416.751 195.757V195.856L416.599 195.779C413.826 196.122 411.396 195.359 407.726 192.773C406.264 191.735 403.37 189.657 400.668 187.68L394.255 183.028C389.122 173.978 392.954 164.309 393.761 162.033C395.273 157.757 397.401 145.459 398.177 140.972C399.549 132.895 397.915 132.464 395.909 124.552C393.902 116.641 390.867 109.083 388.205 101.348C386.713 97.1492 385.301 92.7956 385.311 88.2762C385.291 87.9302 385.339 87.5835 385.452 87.2597C385.641 86.9023 385.907 86.6022 386.229 86.3867C387.108 85.6454 388.05 84.9979 389.042 84.453C389.485 84.6776 389.877 85.0057 390.191 85.4144C390.191 85.4144 403.37 122.983 409.975 127.878C416.579 132.773 419.796 133.193 419.796 133.193L421.318 137.978L430.958 130.994H431.008L433.731 129.017L445.175 116.961L463.94 97.2155L469.587 92.0994C469.777 91.9575 469.998 91.8737 470.227 91.8567C470.456 91.8397 470.686 91.8902 470.891 92.0028C471.097 92.1155 471.271 92.2862 471.396 92.4975C471.522 92.7087 471.593 92.9528 471.603 93.2044C471.683 93.7042 471.697 94.2141 471.644 94.7182Z" fill="url(#paint28_linear_21_254)"/>
<path opacity="0.36" d="M103.746 88.4199C102.977 89.7852 102.624 91.3835 102.738 92.9834C102.969 93.8388 103.365 94.6297 103.899 95.3027C104.433 95.9757 105.093 96.515 105.834 96.884C108.169 98.3071 110.805 99.0312 113.477 98.9834C112.955 95.711 113.494 92.3418 114.999 89.4586C116.008 87.5691 117.44 85.6906 117.167 83.5359C116.915 82.2954 116.365 81.1511 115.574 80.221C108.949 71.2265 106.862 81.4807 103.746 88.4199Z" fill="#FDD51F"/>
<path opacity="0.36" d="M109.706 108.188C109.174 108.338 108.683 108.626 108.274 109.028C107.034 110.066 105.693 111.436 105.793 113.16C105.884 113.774 106.091 114.36 106.402 114.879C106.713 115.399 107.121 115.841 107.598 116.177C109.066 117.277 110.668 118.143 112.358 118.751C112.569 118.868 112.807 118.918 113.043 118.895C113.253 118.82 113.443 118.691 113.598 118.519C116.472 115.702 114.586 107.282 109.706 108.188Z" fill="#FDD51F"/>
<path opacity="0.36" d="M127.624 96.3205C127.366 96.4993 127.182 96.7805 127.109 97.105C127.111 97.4005 127.207 97.686 127.382 97.9116L129.479 101.525C129.639 101.851 129.867 102.131 130.144 102.343C131.012 102.884 132.01 101.912 132.615 101.039L136.376 95.6575C136.95 95.0698 137.341 94.2988 137.493 93.4538C137.645 92.6089 137.551 91.7329 137.223 90.9503C136.872 89.3731 136.428 87.8228 135.892 86.3094C132.937 88.221 130.487 93.6133 127.624 96.3205Z" fill="#FDD51F"/>
<path opacity="0.36" d="M306.258 62.9503L309.384 76.884C309.477 77.5513 309.747 78.1739 310.161 78.674C310.782 79.132 311.537 79.321 312.278 79.2044L318.509 79.0829L313.912 66.6961C313.763 65.9826 313.392 65.3486 312.861 64.9044C312.331 64.4603 311.675 64.2341 311.008 64.2652L305.048 63.337" fill="#FDD51F"/>
<path opacity="0.36" d="M329.006 69.4807C327.348 70.932 325.355 71.8501 323.249 72.1326L324.842 75.4475C324.9 75.5973 324.994 75.7271 325.114 75.8232C325.264 75.878 325.427 75.878 325.578 75.8232C326.223 75.8184 326.859 75.6562 327.44 75.3485C328.02 75.0408 328.531 74.5952 328.935 74.0442C329.742 72.6188 329.228 70.7293 328.683 69.1823" fill="#FDD51F"/>
<path opacity="0.36" d="M327.635 90.7624C327.559 90.9832 327.559 91.2267 327.635 91.4475C327.745 91.6158 327.9 91.743 328.078 91.8122C329.262 92.3987 330.509 92.8182 331.789 93.0608C331.641 91.786 331.755 90.4913 332.122 89.2707C332.564 88.2209 332.857 87.1029 332.989 85.9558C333.005 85.6043 332.928 85.2552 332.767 84.9503C332.543 84.625 332.233 84.3822 331.88 84.2541C328.492 82.7072 328.381 87.9227 327.635 90.7624Z" fill="#FDD51F"/>
<path opacity="0.36" d="M318.994 37.779C317.085 37.6129 315.165 37.702 313.276 38.0442C313.458 39.4365 313.68 40.8177 313.942 42.1879C317.022 42.7786 320.142 43.0781 323.269 43.0829C322.75 41.6284 321.975 40.2995 320.99 39.1713C320.488 38.6175 319.852 38.2327 319.157 38.0623C318.462 37.892 317.737 37.9432 317.068 38.21" fill="#FDD51F"/>
<path opacity="0.36" d="M351.341 119.448C349.999 124.199 345.291 127.116 344.071 131.912C345.271 133.011 346.596 133.936 348.013 134.663C349.53 132.711 350.559 130.362 351.001 127.845C351.443 125.327 351.282 122.727 350.534 120.298" fill="#FDD51F"/>
<path opacity="0.36" d="M121.634 146.365C121.933 148.979 121.769 151.631 121.15 154.177C123.433 155.116 125.891 155.427 128.309 155.083C128.523 155.084 128.735 155.034 128.93 154.937C129.125 154.84 129.299 154.697 129.439 154.519C129.576 154.23 129.638 153.905 129.62 153.58L129.731 146.762C129.791 143.591 129.237 139.503 126.414 138.796C125.638 138.661 124.843 138.777 124.126 139.13C123.409 139.484 122.803 140.059 122.38 140.785C121.55 142.265 121.153 143.989 121.241 145.724" fill="#FDD51F"/>
<path opacity="0.36" d="M134.753 111.525C132.552 111.702 130.344 111.757 128.138 111.691C128.331 112.704 128.388 113.742 128.309 114.773C129.378 114.773 130.457 114.773 131.526 114.773C131.952 114.806 132.379 114.734 132.776 114.564C133.845 113.989 133.885 112.354 134.581 111.249" fill="#FDD51F"/>
<path opacity="0.36" d="M125.456 77.5028L124.578 82.7514C124.542 82.8621 124.542 82.9832 124.578 83.0939C124.649 83.1819 124.745 83.2405 124.851 83.2597L127.392 84C127.199 82.3458 127.292 80.6667 127.664 79.0497C127.016 78.2419 126.189 77.6294 125.264 77.2707" fill="#FDD51F"/>
<path opacity="0.36" d="M117.893 101.547L120.132 103.47L119.255 104.729C119.196 104.835 119.107 104.916 119.002 104.961C118.881 104.988 118.755 104.965 118.65 104.895C118.052 104.665 117.562 104.184 117.288 103.558C117.228 103.402 117.196 103.233 117.196 103.064C117.196 102.894 117.227 102.725 117.287 102.569C117.347 102.412 117.436 102.27 117.547 102.152C117.658 102.033 117.789 101.94 117.934 101.878" fill="#FDD51F"/>
<path opacity="0.36" d="M78.5284 99.2486C79.3948 100.823 80.6544 102.092 82.1583 102.906L79.4359 105.359C77.9958 104.002 76.7003 102.471 75.574 100.796C76.3267 100.307 77.1378 99.9349 77.9839 99.6906" fill="#FDD51F"/>
<path opacity="0.36" d="M86.6655 133.105C88.8243 135.552 91.5613 137.292 94.5708 138.133C93.6835 139.47 92.7961 140.807 91.8887 142.133C91.7296 142.431 91.4949 142.673 91.2131 142.829C90.9607 142.89 90.6992 142.89 90.4468 142.829L86.1614 142.287C84.9615 142.144 83.4692 141.713 83.2675 140.409C83.2376 139.639 83.4673 138.884 83.9128 138.287L87.2302 132.586" fill="#FDD51F"/>
<path d="M432.299 81.6464L441.575 104.519L444.973 95.4696L437.623 77.3149L432.299 81.6464Z" fill="url(#paint29_linear_21_254)"/>
<path d="M451.548 76.3867C450.539 79.6354 449.491 82.8693 448.402 86.0884L443.128 73.0718C443.582 72.7182 444.036 72.3867 444.489 72.0553C445.851 71.0718 447.242 70.1105 448.603 69.116L451.548 76.3867Z" fill="url(#paint30_linear_21_254)"/>
</g>
<defs>
<linearGradient id="paint0_linear_21_254" x1="420.875" y1="284.917" x2="409.869" y2="305.865" gradientUnits="userSpaceOnUse">
<stop stop-color="#ECC4D7"/>
<stop offset="0.42" stop-color="#EFD4D1"/>
<stop offset="1" stop-color="#F2EAC9"/>
</linearGradient>
<linearGradient id="paint1_linear_21_254" x1="442.382" y1="253.768" x2="352.688" y2="224.728" gradientUnits="userSpaceOnUse">
<stop stop-opacity="0"/>
<stop offset="0.88" stop-opacity="0.8"/>
<stop offset="0.97"/>
</linearGradient>
<linearGradient id="paint2_linear_21_254" x1="428.659" y1="169.16" x2="356.023" y2="307.349" gradientUnits="userSpaceOnUse">
<stop stop-opacity="0"/>
<stop offset="0.88" stop-opacity="0.8"/>
<stop offset="0.97"/>
</linearGradient>
<linearGradient id="paint3_linear_21_254" x1="469.597" y1="81.6354" x2="493" y2="81.6354" gradientUnits="userSpaceOnUse">
<stop stop-color="#ECC4D7"/>
<stop offset="0.42" stop-color="#EFD4D1"/>
<stop offset="1" stop-color="#F2EAC9"/>
</linearGradient>
<linearGradient id="paint4_linear_21_254" x1="369.994" y1="70.4972" x2="390.766" y2="70.4972" gradientUnits="userSpaceOnUse">
<stop stop-color="#ECC4D7"/>
<stop offset="0.42" stop-color="#EFD4D1"/>
<stop offset="1" stop-color="#F2EAC9"/>
</linearGradient>
<linearGradient id="paint5_linear_21_254" x1="438.318" y1="140.099" x2="359.406" y2="139.584" gradientUnits="userSpaceOnUse">
<stop stop-color="white" stop-opacity="0"/>
<stop offset="0.84" stop-color="white" stop-opacity="0.84"/>
<stop offset="0.97" stop-color="white"/>
</linearGradient>
<linearGradient id="paint6_linear_21_254" x1="436.776" y1="99.7569" x2="413.296" y2="118.573" gradientUnits="userSpaceOnUse">
<stop stop-color="#ECC4D7"/>
<stop offset="0.42" stop-color="#EFD4D1"/>
<stop offset="1" stop-color="#F2EAC9"/>
</linearGradient>
<linearGradient id="paint7_linear_21_254" x1="231.703" y1="407.05" x2="237.163" y2="204.223" gradientUnits="userSpaceOnUse">
<stop stop-color="white" stop-opacity="0"/>
<stop offset="0.84" stop-color="white" stop-opacity="0.84"/>
<stop offset="0.97" stop-color="white"/>
</linearGradient>
<linearGradient id="paint8_linear_21_254" x1="374.512" y1="402.541" x2="379.609" y2="212.973" gradientUnits="userSpaceOnUse">
<stop stop-color="white" stop-opacity="0"/>
<stop offset="0.84" stop-color="white" stop-opacity="0.84"/>
<stop offset="0.97" stop-color="white"/>
</linearGradient>
<linearGradient id="paint9_linear_21_254" x1="233.306" y1="272.387" x2="234.965" y2="149.065" gradientUnits="userSpaceOnUse">
<stop stop-color="white" stop-opacity="0"/>
<stop offset="0.84" stop-color="white" stop-opacity="0.84"/>
<stop offset="0.97" stop-color="white"/>
</linearGradient>
<linearGradient id="paint10_linear_21_254" x1="384.192" y1="203.138" x2="202.662" y2="281.531" gradientUnits="userSpaceOnUse">
<stop stop-color="white" stop-opacity="0"/>
<stop offset="0.84" stop-color="white" stop-opacity="0.84"/>
<stop offset="0.97" stop-color="white"/>
</linearGradient>
<linearGradient id="paint11_linear_21_254" x1="220.248" y1="67.9337" x2="220.248" y2="107.138" gradientUnits="userSpaceOnUse">
<stop stop-opacity="0"/>
<stop offset="0.88" stop-opacity="0.8"/>
<stop offset="0.97"/>
</linearGradient>
<linearGradient id="paint12_linear_21_254" x1="242.996" y1="67.9337" x2="242.996" y2="107.138" gradientUnits="userSpaceOnUse">
<stop stop-opacity="0"/>
<stop offset="0.88" stop-opacity="0.8"/>
<stop offset="0.97"/>
</linearGradient>
<linearGradient id="paint13_linear_21_254" x1="265.744" y1="67.9337" x2="265.744" y2="107.138" gradientUnits="userSpaceOnUse">
<stop stop-opacity="0"/>
<stop offset="0.88" stop-opacity="0.8"/>
<stop offset="0.97"/>
</linearGradient>
<linearGradient id="paint14_linear_21_254" x1="220.117" y1="59.9558" x2="220.577" y2="12.0449" gradientUnits="userSpaceOnUse">
<stop stop-color="white" stop-opacity="0"/>
<stop offset="0.84" stop-color="white" stop-opacity="0.84"/>
<stop offset="0.97" stop-color="white"/>
</linearGradient>
<linearGradient id="paint15_linear_21_254" x1="220.188" y1="55.1492" x2="220.406" y2="31.7241" gradientUnits="userSpaceOnUse">
<stop stop-color="white" stop-opacity="0"/>
<stop offset="0.84" stop-color="white" stop-opacity="0.84"/>
<stop offset="0.97" stop-color="white"/>
</linearGradient>
<linearGradient id="paint16_linear_21_254" x1="265.683" y1="55.1492" x2="265.913" y2="31.7241" gradientUnits="userSpaceOnUse">
<stop stop-color="white" stop-opacity="0"/>
<stop offset="0.84" stop-color="white" stop-opacity="0.84"/>
<stop offset="0.97" stop-color="white"/>
</linearGradient>
<linearGradient id="paint17_linear_21_254" x1="242.936" y1="55.1492" x2="243.154" y2="31.7241" gradientUnits="userSpaceOnUse">
<stop stop-color="white" stop-opacity="0"/>
<stop offset="0.84" stop-color="white" stop-opacity="0.84"/>
<stop offset="0.97" stop-color="white"/>
</linearGradient>
<linearGradient id="paint18_linear_21_254" x1="242.865" y1="60.1768" x2="243.325" y2="12.2659" gradientUnits="userSpaceOnUse">
<stop stop-color="white" stop-opacity="0"/>
<stop offset="0.84" stop-color="white" stop-opacity="0.84"/>
<stop offset="0.97" stop-color="white"/>
</linearGradient>
<linearGradient id="paint19_linear_21_254" x1="265.613" y1="60.3867" x2="266.073" y2="12.4759" gradientUnits="userSpaceOnUse">
<stop stop-color="white" stop-opacity="0"/>
<stop offset="0.84" stop-color="white" stop-opacity="0.84"/>
<stop offset="0.97" stop-color="white"/>
</linearGradient>
<linearGradient id="paint20_linear_21_254" x1="241.564" y1="204.597" x2="247.024" y2="50.3196" gradientUnits="userSpaceOnUse">
<stop stop-color="white" stop-opacity="0"/>
<stop offset="0.84" stop-color="white" stop-opacity="0.84"/>
<stop offset="0.97" stop-color="white"/>
</linearGradient>
<linearGradient id="paint21_linear_21_254" x1="322.26" y1="130.442" x2="219.95" y2="174.627" gradientUnits="userSpaceOnUse">
<stop stop-color="white" stop-opacity="0"/>
<stop offset="0.84" stop-color="white" stop-opacity="0.84"/>
<stop offset="0.97" stop-color="white"/>
</linearGradient>
<linearGradient id="paint22_linear_21_254" x1="230.342" y1="183.072" x2="233.064" y2="226.181" gradientUnits="userSpaceOnUse">
<stop stop-opacity="0"/>
<stop offset="0.88" stop-opacity="0.8"/>
<stop offset="0.97"/>
</linearGradient>
<linearGradient id="paint23_linear_21_254" x1="231.269" y1="226.74" x2="233.992" y2="265.703" gradientUnits="userSpaceOnUse">
<stop stop-opacity="0"/>
<stop offset="0.88" stop-opacity="0.8"/>
<stop offset="0.97"/>
</linearGradient>
<linearGradient id="paint24_linear_21_254" x1="230.795" y1="292.055" x2="232.163" y2="341.828" gradientUnits="userSpaceOnUse">
<stop stop-opacity="0"/>
<stop offset="0.88" stop-opacity="0.8"/>
<stop offset="0.97"/>
</linearGradient>
<linearGradient id="paint25_linear_21_254" x1="232.358" y1="338.917" x2="234.634" y2="385.783" gradientUnits="userSpaceOnUse">
<stop stop-opacity="0"/>
<stop offset="0.88" stop-opacity="0.8"/>
<stop offset="0.97"/>
</linearGradient>
<linearGradient id="paint26_linear_21_254" x1="243.359" y1="108.685" x2="243.359" y2="149.757" gradientUnits="userSpaceOnUse">
<stop stop-opacity="0"/>
<stop offset="0.88" stop-opacity="0.8"/>
<stop offset="0.97"/>
</linearGradient>
<linearGradient id="paint27_linear_21_254" x1="240.475" y1="147.072" x2="242.519" y2="170.999" gradientUnits="userSpaceOnUse">
<stop stop-opacity="0"/>
<stop offset="0.88" stop-opacity="0.8"/>
<stop offset="0.97"/>
</linearGradient>
<linearGradient id="paint28_linear_21_254" x1="438.661" y1="116.674" x2="352.727" y2="163.652" gradientUnits="userSpaceOnUse">
<stop stop-opacity="0"/>
<stop offset="0.88" stop-opacity="0.8"/>
<stop offset="0.97"/>
</linearGradient>
<linearGradient id="paint29_linear_21_254" x1="454.684" y1="93.4144" x2="423.501" y2="89.1291" gradientUnits="userSpaceOnUse">
<stop stop-color="white" stop-opacity="0"/>
<stop offset="0.84" stop-color="white" stop-opacity="0.84"/>
<stop offset="0.97" stop-color="white"/>
</linearGradient>
<linearGradient id="paint30_linear_21_254" x1="456.932" y1="78.9945" x2="437.945" y2="76.3808" gradientUnits="userSpaceOnUse">
<stop stop-color="white" stop-opacity="0"/>
<stop offset="0.84" stop-color="white" stop-opacity="0.84"/>
<stop offset="0.97" stop-color="white"/>
</linearGradient>
<clipPath id="clip0_21_254">
<rect width="493" height="430" fill="white"/>
</clipPath>
</defs>
</svg>
