<svg width="335" height="331" viewBox="0 0 335 331" fill="none" xmlns="http://www.w3.org/2000/svg">
<g clip-path="url(#clip0_29_1369)">
<path d="M221.317 133.464C221.005 133.465 220.706 133.585 220.486 133.799C220.265 134.012 220.141 134.302 220.141 134.604V212.869C220.141 213.172 220.265 213.461 220.486 213.675C220.706 213.889 221.005 214.009 221.317 214.009H333.824C334.136 214.009 334.435 213.889 334.655 213.675C334.876 213.461 335 213.172 335 212.869V134.604C335 134.302 334.876 134.012 334.655 133.799C334.435 133.585 334.136 133.465 333.824 133.464H221.317Z" fill="#E6E6E6"/>
<path d="M327.61 140.464V196.086C327.61 196.457 327.458 196.812 327.188 197.075C326.917 197.337 326.55 197.485 326.167 197.485H228.742C228.674 197.486 228.606 197.48 228.539 197.468C228.195 197.42 227.88 197.255 227.653 197.001C227.425 196.747 227.299 196.422 227.299 196.086V140.464C227.299 140.093 227.451 139.737 227.722 139.475C227.992 139.213 228.36 139.065 228.742 139.065H326.167C326.55 139.065 326.917 139.213 327.188 139.475C327.458 139.737 327.61 140.093 327.61 140.464Z" fill="white"/>
<path d="M307.418 164.519C310.308 164.519 312.651 162.248 312.651 159.446C312.651 156.645 310.308 154.374 307.418 154.374C304.527 154.374 302.184 156.645 302.184 159.446C302.184 162.248 304.527 164.519 307.418 164.519Z" fill="#FED100"/>
<path d="M223.503 137.949C224.456 137.949 225.228 137.2 225.228 136.277C225.228 135.353 224.456 134.604 223.503 134.604C222.55 134.604 221.777 135.353 221.777 136.277C221.777 137.2 222.55 137.949 223.503 137.949Z" fill="#3F3D56"/>
<path d="M331.408 137.949C332.361 137.949 333.133 137.2 333.133 136.277C333.133 135.353 332.361 134.604 331.408 134.604C330.455 134.604 329.682 135.353 329.682 136.277C329.682 137.2 330.455 137.949 331.408 137.949Z" fill="#3F3D56"/>
<path d="M223.503 212.869C224.456 212.869 225.228 212.121 225.228 211.197C225.228 210.273 224.456 209.525 223.503 209.525C222.55 209.525 221.777 210.273 221.777 211.197C221.777 212.121 222.55 212.869 223.503 212.869Z" fill="#3F3D56"/>
<path d="M331.408 212.869C332.361 212.869 333.133 212.121 333.133 211.197C333.133 210.273 332.361 209.525 331.408 209.525C330.455 209.525 329.682 210.273 329.682 211.197C329.682 212.121 330.455 212.869 331.408 212.869Z" fill="#3F3D56"/>
<path d="M259.397 179.359C262.865 179.359 265.677 176.634 265.677 173.273C265.677 169.912 262.865 167.187 259.397 167.187C255.929 167.187 253.118 169.912 253.118 173.273C253.118 176.634 255.929 179.359 259.397 179.359Z" fill="#C1EEF4"/>
<path d="M260.002 191.604H258.716L259.303 172.356L260.002 191.604Z" fill="#3F3D56"/>
<path d="M259.416 176.004L260.797 174.153L259.397 176.463L259.246 176.206L259.416 176.004Z" fill="#3F3D56"/>
<path d="M259.265 177.874L257.884 176.023L259.284 178.332L259.435 178.076L259.265 177.874Z" fill="#3F3D56"/>
<path d="M317 179.359C320.468 179.359 323.28 176.634 323.28 173.273C323.28 169.912 320.468 167.187 317 167.187C313.532 167.187 310.72 169.912 310.72 173.273C310.72 176.634 313.532 179.359 317 179.359Z" fill="#C1EEF4"/>
<path d="M317.605 191.604H316.319L316.905 172.356L317.605 191.604Z" fill="#3F3D56"/>
<path d="M317.019 176.004L318.4 174.153L317 176.463L316.849 176.206L317.019 176.004Z" fill="#3F3D56"/>
<path d="M316.868 177.874L315.487 176.023L316.886 178.332L317.038 178.076L316.868 177.874Z" fill="#3F3D56"/>
<path d="M277.588 176.953C282.71 176.953 286.862 172.928 286.862 167.964C286.862 163 282.71 158.976 277.588 158.976C272.466 158.976 268.314 163 268.314 167.964C268.314 172.928 272.466 176.953 277.588 176.953Z" fill="#C1EEF4"/>
<path d="M278.482 195.037H276.582L277.448 166.611L278.482 195.037Z" fill="#3F3D56"/>
<path d="M277.616 171.998L279.655 169.264L277.588 172.675L277.364 172.296L277.616 171.998Z" fill="#3F3D56"/>
<path d="M277.392 174.76L275.353 172.025L277.42 175.437L277.644 175.058L277.392 174.76Z" fill="#3F3D56"/>
<path d="M300.205 173.519C305.327 173.519 309.479 169.495 309.479 164.531C309.479 159.567 305.327 155.543 300.205 155.543C295.083 155.543 290.931 159.567 290.931 164.531C290.931 169.495 295.083 173.519 300.205 173.519Z" fill="#C1EEF4"/>
<path d="M301.099 191.604H299.199L300.065 163.177L301.099 191.604Z" fill="#3F3D56"/>
<path d="M300.233 168.565L302.272 165.83L300.205 169.241L299.981 168.862L300.233 168.565Z" fill="#3F3D56"/>
<path d="M300.009 171.326L297.97 168.592L300.037 172.003L300.261 171.624L300.009 171.326Z" fill="#3F3D56"/>
<path d="M241.542 173.519C246.664 173.519 250.816 169.495 250.816 164.531C250.816 159.567 246.664 155.543 241.542 155.543C236.42 155.543 232.268 159.567 232.268 164.531C232.268 169.495 236.42 173.519 241.542 173.519Z" fill="#C1EEF4"/>
<path d="M242.436 191.604H240.536L241.402 163.177L242.436 191.604Z" fill="#3F3D56"/>
<path d="M241.57 168.565L243.609 165.83L241.542 169.241L241.318 168.862L241.57 168.565Z" fill="#3F3D56"/>
<path d="M241.347 171.326L239.307 168.592L241.374 172.003L241.598 171.624L241.347 171.326Z" fill="#3F3D56"/>
<path d="M278.106 197.485H228.742C228.674 197.486 228.606 197.48 228.539 197.468C228.195 197.42 227.88 197.255 227.653 197.001C227.425 196.747 227.299 196.422 227.299 196.086V184.142C231.944 183.391 236.645 183.021 241.354 183.034C258.878 183.034 273.535 187.901 277.211 194.416C277.766 195.352 278.073 196.406 278.106 197.485Z" fill="#3F3D56"/>
<path d="M327.61 193.377V196.086C327.61 196.457 327.458 196.812 327.188 197.075C326.917 197.337 326.55 197.485 326.167 197.485H271.552C273.308 196.252 275.208 195.222 277.211 194.416C283.902 191.635 293.339 189.901 303.795 189.901C312.882 189.901 321.194 191.206 327.61 193.377Z" fill="#3F3D56"/>
<path d="M283.914 0C283.722 0.000257559 283.533 0.0463155 283.363 0.134118L184.035 51.3397C183.76 51.4822 183.554 51.7244 183.463 52.0134C183.372 52.3025 183.403 52.6147 183.549 52.8817L221.474 121.979C221.621 122.246 221.871 122.445 222.169 122.534C222.467 122.622 222.79 122.592 223.065 122.451L322.393 71.245C322.669 71.1026 322.874 70.8604 322.965 70.5714C323.056 70.2823 323.026 69.97 322.879 69.703L284.955 0.605414C284.882 0.472925 284.784 0.355639 284.664 0.260348C284.545 0.165058 284.408 0.0936594 284.26 0.050291C284.148 0.0170696 284.031 0.000121281 283.914 0Z" fill="#E6E6E6"/>
<path d="M281.271 9.1414L308.223 58.246C308.312 58.4083 308.367 58.5861 308.385 58.7692C308.404 58.9522 308.384 59.137 308.329 59.3128C308.274 59.4887 308.183 59.6523 308.062 59.7942C307.941 59.9361 307.793 60.0536 307.626 60.1399L221.614 104.48C221.553 104.512 221.489 104.539 221.424 104.561C221.097 104.675 220.739 104.671 220.415 104.55C220.091 104.429 219.823 104.199 219.66 103.902L192.708 54.7971C192.619 54.6348 192.564 54.457 192.546 54.274C192.527 54.0909 192.547 53.9062 192.602 53.7303C192.658 53.5544 192.748 53.3909 192.869 53.2489C192.99 53.107 193.138 52.9896 193.306 52.9033L279.317 8.56275C279.484 8.47633 279.668 8.42274 279.857 8.40505C280.046 8.38736 280.236 8.40592 280.418 8.45965C280.599 8.51339 280.768 8.60126 280.914 8.71824C281.061 8.83522 281.182 8.97901 281.271 9.1414Z" fill="white"/>
<path d="M223.783 73.0195C230.784 73.0195 236.459 67.5193 236.459 60.7345C236.459 53.9497 230.784 48.4496 223.783 48.4496C216.782 48.4496 211.107 53.9497 211.107 60.7345C211.107 67.5193 216.782 73.0195 223.783 73.0195Z" fill="#FED100"/>
<path d="M277.222 76.066L222.321 104.368C222.253 104.405 222.182 104.435 222.108 104.458L224.149 47.4841C224.159 47.131 224.265 46.7866 224.456 46.4861C224.648 46.1857 224.919 45.94 225.241 45.774C225.562 45.6081 225.924 45.528 226.288 45.5418C226.652 45.5556 227.006 45.6629 227.314 45.8527L260.795 66.1205L262.398 67.0898L277.222 76.066Z" fill="#3F3D56"/>
<path opacity="0.2" d="M277.222 76.0661L258.478 85.7291L260.57 68.0323L260.72 66.7577L260.795 66.1204L262.398 67.0899L277.222 76.0661Z" fill="#212121"/>
<path d="M307.79 60.3075L260.306 84.7867L262.398 67.0898L262.548 65.8153L265.273 42.7533C265.452 41.2417 267.305 40.1979 268.76 40.688C268.858 40.7219 268.954 40.7619 269.047 40.8077L307.79 60.3075Z" fill="#3F3D56"/>
<path d="M187.328 54.5003C188.281 54.5003 189.053 53.7516 189.053 52.828C189.053 51.9044 188.281 51.1556 187.328 51.1556C186.375 51.1556 185.602 51.9044 185.602 52.828C185.602 53.7516 186.375 54.5003 187.328 54.5003Z" fill="#3F3D56"/>
<path d="M282.594 5.38897C283.547 5.38897 284.319 4.64024 284.319 3.71664C284.319 2.79304 283.547 2.04431 282.594 2.04431C281.641 2.04431 280.868 2.79304 280.868 3.71664C280.868 4.64024 281.641 5.38897 282.594 5.38897Z" fill="#3F3D56"/>
<path d="M223.632 120.645C224.585 120.645 225.357 119.896 225.357 118.973C225.357 118.049 224.585 117.3 223.632 117.3C222.679 117.3 221.906 118.049 221.906 118.973C221.906 119.896 222.679 120.645 223.632 120.645Z" fill="#3F3D56"/>
<path d="M318.898 71.5337C319.851 71.5337 320.623 70.785 320.623 69.8614C320.623 68.9378 319.851 68.1891 318.898 68.1891C317.945 68.1891 317.172 68.9378 317.172 69.8614C317.172 70.785 317.945 71.5337 318.898 71.5337Z" fill="#3F3D56"/>
<path d="M307.965 330.962C308.267 331.039 308.588 330.997 308.857 330.845C309.127 330.694 309.324 330.445 309.404 330.153L330.165 254.518C330.245 254.226 330.202 253.915 330.046 253.653C329.889 253.392 329.632 253.201 329.33 253.123L220.605 225.093C220.303 225.015 219.982 225.057 219.713 225.208C219.443 225.36 219.246 225.609 219.166 225.901L198.405 301.536C198.366 301.681 198.356 301.832 198.376 301.98C198.397 302.128 198.447 302.272 198.525 302.401C198.602 302.531 198.705 302.644 198.828 302.735C198.951 302.826 199.091 302.892 199.24 302.931L307.965 330.962Z" fill="#E6E6E6"/>
<path d="M321.469 258.34L306.715 312.092C306.617 312.451 306.375 312.756 306.044 312.943C305.713 313.129 305.319 313.18 304.949 313.084L210.799 288.812C210.733 288.795 210.668 288.773 210.607 288.744C210.287 288.613 210.027 288.375 209.874 288.072C209.721 287.77 209.686 287.425 209.775 287.1L224.529 233.348C224.627 232.989 224.869 232.683 225.2 232.497C225.531 232.311 225.925 232.26 226.295 232.355L320.445 256.628C320.815 256.724 321.131 256.958 321.323 257.279C321.515 257.6 321.568 257.981 321.469 258.34Z" fill="white"/>
<path d="M308.811 304.456L306.715 312.092C306.617 312.45 306.375 312.756 306.044 312.943C305.713 313.129 305.319 313.18 304.949 313.084L210.799 288.812C210.733 288.795 210.668 288.773 210.607 288.744C210.287 288.613 210.027 288.375 209.874 288.072C209.721 287.77 209.686 287.425 209.775 287.1L211.871 279.464L308.811 304.456Z" fill="#3F3D56"/>
<path d="M267.211 298.617L252.233 294.755L251.777 296.414L266.756 300.276L267.211 298.617Z" fill="#CCCCCC"/>
<path d="M232.761 289.735L217.782 285.873L217.327 287.532L232.306 291.394L232.761 289.735Z" fill="#CCCCCC"/>
<path d="M301.662 307.498L286.683 303.637L286.228 305.296L301.206 309.157L301.662 307.498Z" fill="#CCCCCC"/>
<path d="M221.971 230.028C222.924 230.028 223.697 229.279 223.697 228.355C223.697 227.432 222.924 226.683 221.971 226.683C221.018 226.683 220.246 227.432 220.246 228.355C220.246 229.279 221.018 230.028 221.971 230.028Z" fill="#3F3D56"/>
<path d="M326.25 256.912C327.203 256.912 327.975 256.163 327.975 255.239C327.975 254.316 327.203 253.567 326.25 253.567C325.297 253.567 324.524 254.316 324.524 255.239C324.524 256.163 325.297 256.912 326.25 256.912Z" fill="#3F3D56"/>
<path d="M202.098 302.43C203.051 302.43 203.824 301.681 203.824 300.758C203.824 299.834 203.051 299.085 202.098 299.085C201.145 299.085 200.373 299.834 200.373 300.758C200.373 301.681 201.145 302.43 202.098 302.43Z" fill="#3F3D56"/>
<path d="M306.377 329.314C307.33 329.314 308.102 328.565 308.102 327.642C308.102 326.718 307.33 325.969 306.377 325.969C305.424 325.969 304.651 326.718 304.651 327.642C304.651 328.565 305.424 329.314 306.377 329.314Z" fill="#3F3D56"/>
<path d="M285.658 300.973L293.982 303.124L294.334 301.843L286.011 299.693L285.658 300.973Z" fill="#3F3D56"/>
<path d="M225.74 284.462L227.352 285.29L292.62 302.153L293.571 300.979C295.219 298.969 296.258 296.555 296.572 294.006C296.793 292.103 296.588 290.103 295.204 288.9L297.44 269.455L261.343 260.081L244.372 267.401C244.372 267.401 237.813 265.587 233.046 268.984C231.313 270.258 230.016 272.007 229.324 274.005L228.566 276.216L225.74 284.462Z" fill="#C1EEF4"/>
<path d="M240.163 295.929C244.77 295.929 248.504 292.31 248.504 287.846C248.504 283.381 244.77 279.762 240.163 279.762C235.557 279.762 231.823 283.381 231.823 287.846C231.823 292.31 235.557 295.929 240.163 295.929Z" fill="#3F3D56"/>
<path d="M240.163 292.1C242.588 292.1 244.553 290.196 244.553 287.846C244.553 285.496 242.588 283.591 240.163 283.591C237.739 283.591 235.773 285.496 235.773 287.846C235.773 290.196 237.739 292.1 240.163 292.1Z" fill="#CCCCCC"/>
<path d="M279.932 306.204C284.539 306.204 288.273 302.585 288.273 298.121C288.273 293.656 284.539 290.037 279.932 290.037C275.326 290.037 271.591 293.656 271.591 298.121C271.591 302.585 275.326 306.204 279.932 306.204Z" fill="#3F3D56"/>
<path d="M279.932 302.375C282.357 302.375 284.322 300.47 284.322 298.121C284.322 295.771 282.357 293.866 279.932 293.866C277.508 293.866 275.542 295.771 275.542 298.121C275.542 300.47 277.508 302.375 279.932 302.375Z" fill="#CCCCCC"/>
<path d="M250.274 267.556L269.771 272.591L272.151 273.205L276.169 274.244L276.247 273.959L277.19 270.535L278.248 266.69L275.575 266.001L273.195 265.385L268.98 264.295L266.599 263.681L261.733 262.424L250.274 267.556Z" fill="white"/>
<path d="M279.341 275.064L289.645 277.726L290.185 275.767L291.125 272.343L291.724 270.173L290.215 269.784L287.835 269.168L281.417 267.51L279.341 275.064Z" fill="white"/>
<path d="M272.63 281.972L273.951 282.314L274.62 279.881L273.299 279.539L272.63 281.972Z" fill="#3F3D56"/>
<path d="M254.607 272.377L254.96 271.097L252.449 270.448L252.097 271.729L254.607 272.377Z" fill="#3F3D56"/>
<path d="M253.88 271.421L253.734 271.384C253.002 271.194 252.377 270.731 251.997 270.095C251.618 269.46 251.514 268.704 251.709 267.994C251.904 267.284 252.383 266.679 253.038 266.311C253.694 265.943 254.474 265.842 255.207 266.031L255.352 266.069L253.88 271.421Z" fill="#3F3D56"/>
<path d="M228.566 276.216C229.536 276.579 230.608 276.598 231.591 276.271C232.575 275.943 233.408 275.29 233.943 274.426C234.479 273.561 234.682 272.542 234.518 271.546C234.354 270.551 233.833 269.644 233.046 268.984C231.313 270.258 230.016 272.007 229.324 274.005L228.566 276.216Z" fill="#3F3D56"/>
<path d="M273.195 265.385L276.247 273.959L277.19 270.535L275.575 266.001L273.195 265.385Z" fill="#F2F2F2"/>
<path d="M287.835 269.168L290.185 275.767L291.125 272.343L290.215 269.784L287.835 269.168Z" fill="#F2F2F2"/>
<path d="M266.599 263.681L269.771 272.591L272.151 273.205L268.98 264.295L266.599 263.681Z" fill="#F2F2F2"/>
<path d="M17.7209 133.18C20.6558 133.18 23.035 130.874 23.035 128.029C23.035 125.185 20.6558 122.879 17.7209 122.879C14.786 122.879 12.4069 125.185 12.4069 128.029C12.4069 130.874 14.786 133.18 17.7209 133.18Z" fill="#C1EEF4"/>
<path opacity="0.2" d="M19.964 123.365C20.9062 124.192 21.5109 125.32 21.668 126.542C21.8251 127.765 21.5242 129.001 20.82 130.027C20.1158 131.053 19.0552 131.799 17.831 132.131C16.6067 132.463 15.3003 132.358 14.1493 131.835C14.7149 132.334 15.3852 132.71 16.1142 132.935C16.8433 133.16 17.614 133.229 18.3735 133.139C19.1329 133.048 19.8632 132.8 20.5143 132.41C21.1655 132.021 21.722 131.499 22.1459 130.882C22.5698 130.265 22.851 129.566 22.9702 128.833C23.0894 128.101 23.0438 127.352 22.8366 126.638C22.6294 125.924 22.2654 125.262 21.7696 124.697C21.2737 124.132 20.6578 123.678 19.964 123.365Z" fill="#212121"/>
<path d="M154.337 138.759C161.552 138.759 167.4 136.453 167.4 133.609C167.4 130.764 161.552 128.459 154.337 128.459C147.122 128.459 141.273 130.764 141.273 133.609C141.273 136.453 147.122 138.759 154.337 138.759Z" fill="#3F3D56"/>
<path opacity="0.2" d="M154.337 128.459C153.888 128.459 153.445 128.467 153.008 128.485C159.599 128.747 164.743 130.941 164.743 133.609C164.743 136.276 159.599 138.47 153.008 138.733C153.445 138.75 153.888 138.759 154.337 138.759C161.552 138.759 167.4 136.453 167.4 133.609C167.4 130.764 161.552 128.459 154.337 128.459Z" fill="#212121"/>
<path d="M171.386 133.609H105.846V126.742C105.846 126.4 105.706 126.073 105.457 125.831C105.208 125.59 104.87 125.454 104.517 125.454H68.2046C67.8522 125.454 67.5143 125.59 67.2652 125.831C67.016 126.073 66.8761 126.4 66.8761 126.742V133.609H28.792V129.317C28.792 128.975 28.652 128.648 28.4028 128.407C28.1537 128.165 27.8158 128.029 27.4634 128.029H7.97854C7.6262 128.029 7.28829 128.165 7.03914 128.407C6.79 128.648 6.65003 128.975 6.65003 129.317V133.609H1.33596C1.16143 133.608 0.988578 133.642 0.827289 133.706C0.666001 133.771 0.519457 133.866 0.396046 133.985C0.272636 134.105 0.174784 134.247 0.108102 134.403C0.0414209 134.56 0.0072143 134.727 0.00744747 134.896V219.444C0.0072143 219.613 0.0414209 219.781 0.108102 219.937C0.174784 220.094 0.272636 220.236 0.396046 220.355C0.519457 220.475 0.666001 220.57 0.827289 220.634C0.988578 220.699 1.16143 220.732 1.33596 220.732H171.386C171.561 220.732 171.733 220.699 171.895 220.634C172.056 220.57 172.202 220.475 172.326 220.355C172.449 220.236 172.547 220.094 172.614 219.937C172.681 219.781 172.715 219.613 172.714 219.444V134.896C172.715 134.727 172.681 134.56 172.614 134.403C172.547 134.247 172.449 134.105 172.326 133.985C172.202 133.866 172.056 133.771 171.895 133.706C171.733 133.642 171.561 133.608 171.386 133.609Z" fill="#3F3D56"/>
<path opacity="0.2" d="M171.378 214.426H1.32852C1.15399 214.427 0.981131 214.394 0.819843 214.329C0.658555 214.264 0.512004 214.169 0.388593 214.05C0.265183 213.93 0.167338 213.788 0.100656 213.632C0.0339746 213.476 -0.000231987 213.308 1.18408e-06 213.139V219.147C-0.000231987 219.317 0.0339746 219.484 0.100656 219.64C0.167338 219.797 0.265183 219.939 0.388593 220.058C0.512004 220.178 0.658555 220.273 0.819843 220.337C0.981131 220.402 1.15399 220.435 1.32852 220.435H171.378C171.553 220.435 171.726 220.402 171.887 220.337C172.048 220.273 172.195 220.178 172.318 220.058C172.442 219.939 172.54 219.797 172.606 219.64C172.673 219.484 172.707 219.317 172.707 219.147V213.139C172.707 213.308 172.673 213.476 172.606 213.632C172.54 213.788 172.442 213.93 172.318 214.05C172.195 214.169 172.048 214.264 171.887 214.329C171.726 214.394 171.553 214.427 171.378 214.426Z" fill="#212121"/>
<path opacity="0.2" d="M172.714 173.093H0.00744629V189.402H172.714V173.093Z" fill="#212121"/>
<path opacity="0.2" d="M172.714 164.939H0.00744629V181.247H172.714V164.939Z" fill="#212121"/>
<path d="M172.714 168.801H0.00744629V185.11H172.714V168.801Z" fill="#C1EEF4"/>
<path d="M86.3609 209.573C104.948 209.573 120.017 194.97 120.017 176.956C120.017 158.941 104.948 144.338 86.3609 144.338C67.7733 144.338 52.7052 158.941 52.7052 176.956C52.7052 194.97 67.7733 209.573 86.3609 209.573Z" fill="#C1EEF4"/>
<path opacity="0.2" d="M112.285 156.156C116.566 163.225 117.944 171.598 116.144 179.607C114.344 187.616 109.498 194.675 102.571 199.378C95.6439 204.082 87.1433 206.085 78.7613 204.989C70.3793 203.893 62.7304 199.778 57.3371 193.464C59.6892 197.348 62.846 200.719 66.6086 203.362C70.3712 206.006 74.658 207.866 79.1989 208.825C83.7398 209.783 88.4364 209.82 92.9927 208.933C97.549 208.046 101.866 206.253 105.673 203.669C109.479 201.085 112.692 197.764 115.108 193.917C117.525 190.07 119.093 185.779 119.715 181.316C120.336 176.852 119.996 172.312 118.718 167.982C117.439 163.652 115.249 159.625 112.285 156.156Z" fill="#212121"/>
<path d="M86.3609 201.229C100.193 201.229 111.407 190.362 111.407 176.956C111.407 163.55 100.193 152.682 86.3609 152.682C72.5283 152.682 61.3148 163.55 61.3148 176.956C61.3148 190.362 72.5283 201.229 86.3609 201.229Z" fill="#3F3D56"/>
<path d="M105.846 176.956C105.85 179.519 105.312 182.056 104.265 184.41C103.704 185.68 102.999 186.885 102.161 188.003C100.511 190.222 98.3825 192.067 95.9237 193.41C93.4648 194.754 90.7341 195.563 87.9206 195.783C85.1071 196.003 82.2778 195.628 79.6287 194.683C76.9796 193.739 74.5738 192.248 72.5779 190.313C70.582 188.379 69.0436 186.048 68.0691 183.48C67.0946 180.913 66.7073 178.171 66.9341 175.444C67.1609 172.717 67.9962 170.071 69.3824 167.688C70.7686 165.305 72.6724 163.242 74.9622 161.643C76.1154 160.831 77.3587 160.147 78.6688 159.604C81.6329 158.37 84.8666 157.869 88.0799 158.145C91.2932 158.421 94.3854 159.466 97.0793 161.186C99.7731 162.906 101.984 165.247 103.514 168C105.044 170.752 105.845 173.829 105.846 176.956Z" fill="white"/>
<path opacity="0.2" d="M105.638 174.205C104.911 169.403 102.302 165.058 98.3541 162.074C100.065 164.67 101.095 167.633 101.353 170.703C101.611 173.774 101.091 176.859 99.8365 179.69C99.2758 180.959 98.5702 182.164 97.733 183.282C96.1999 185.343 94.2532 187.083 92.0094 188.397C89.7657 189.712 87.2712 190.573 84.6755 190.931C82.0798 191.288 79.4364 191.134 76.9037 190.477C74.371 189.821 72.0012 188.675 69.9363 187.109C71.6452 189.709 73.9849 191.863 76.751 193.384C79.5172 194.905 82.6255 195.746 85.8045 195.834C88.9835 195.923 92.1365 195.255 94.9878 193.89C97.8391 192.524 100.302 190.503 102.161 188.003C102.999 186.885 103.704 185.68 104.265 184.41C105.688 181.197 106.164 177.664 105.638 174.205Z" fill="#212121"/>
</g>
<defs>
<clipPath id="clip0_29_1369">
<rect width="335" height="331" fill="white"/>
</clipPath>
</defs>
</svg>
