<svg width="345" height="243" viewBox="0 0 345 243" fill="none" xmlns="http://www.w3.org/2000/svg">
<g clip-path="url(#clip0_29_1287)">
<path d="M259.971 104.51V59.2601C259.971 54.7483 262.153 51.0779 264.836 51.0779H282.434C285.117 51.0779 287.299 54.7483 287.299 59.2601V104.51C287.299 109.022 285.117 112.693 282.434 112.693H264.836C262.153 112.693 259.971 109.022 259.971 104.51Z" fill="#409DFE"/>
<path d="M268.984 70.6381H278.286V66.726H268.984V70.6381Z" fill="#3F3D56"/>
<path d="M271.309 63.792H275.961V51.0778H271.309V63.792Z" fill="#3F3D56"/>
<path d="M271.309 112.693H275.961V99.9785H271.309V112.693Z" fill="#3F3D56"/>
<path d="M247.47 106.339H220.569C217.886 106.339 215.704 102.669 215.704 98.1568V68.5548C215.704 64.043 217.886 60.3726 220.569 60.3726H247.47C250.153 60.3726 252.335 64.043 252.335 68.5548V98.1568C252.335 102.669 250.153 106.339 247.47 106.339Z" fill="#409DFE"/>
<path d="M239.252 66.7296H229.949V70.6417H239.252V66.7296Z" fill="#3F3D56"/>
<path d="M223.263 87.2678V79.4437H215.704V87.2678H223.263Z" fill="#3F3D56"/>
<path d="M252.335 87.2678V79.4437H244.776V87.2678H252.335Z" fill="#3F3D56"/>
<path d="M29.2497 190.955L24.7587 146.89C22.7632 127.309 31.379 109.19 43.1738 108.162L107.197 102.585L122.476 60.2249C124.502 54.6092 128.124 51.1798 132.029 51.1798H178.031C181.647 51.1798 184.702 55.6903 185.172 61.7212L186.34 95.6156L301.028 96.1932L315.456 176.17L302.064 175.072L302.751 199.33L285.238 200.485L279.401 172.72C278.301 167.492 273.485 161.596 268.478 156.664C257.254 145.607 242.834 149.156 234.34 165.726C232.336 169.635 230.935 173.708 230.544 177.527L227.894 203.373L99.4706 199.908L82.6395 160.305C77.6668 151.203 54.1928 147.859 52.0788 160.305L39.3794 191.822L29.2497 190.955Z" fill="#C1EEF4"/>
<path d="M168.832 76.9552L172.61 106.917L124.537 108.649L134.69 71.9813C135.612 68.6549 137.633 66.5897 139.813 66.7491L162.849 68.4338C165.765 68.6471 168.226 72.1522 168.832 76.9552Z" fill="white"/>
<path d="M118.013 106.339L127.628 64.753L125.11 60.5189L109.429 100.563L112.615 108.649L118.013 106.339Z" fill="white"/>
<path d="M255.708 241.494C268.224 241.494 278.371 224.427 278.371 203.373C278.371 182.32 268.224 165.253 255.708 165.253C243.191 165.253 233.045 182.32 233.045 203.373C233.045 224.427 243.191 241.494 255.708 241.494Z" fill="#3F3D56"/>
<path d="M240.084 203.373C240.084 188.882 247.093 177.093 255.708 177.093C264.323 177.093 271.332 188.882 271.332 203.373C271.332 217.864 264.323 229.653 255.708 229.653C247.093 229.653 240.084 217.864 240.084 203.373ZM240.428 203.373C240.428 217.546 247.282 229.076 255.708 229.076C264.134 229.076 270.988 217.546 270.988 203.373C270.988 189.201 264.134 177.671 255.708 177.671C247.282 177.671 240.428 189.201 240.428 203.373Z" fill="white"/>
<path d="M242.316 203.373C242.316 215.814 248.312 225.899 255.708 225.899C263.104 225.899 269.1 215.814 269.1 203.373C269.1 190.933 263.104 180.848 255.708 180.848C248.312 180.848 242.316 190.933 242.316 203.373ZM264.413 197.979L262.04 200.58L261.129 198.228L264.413 197.979ZM260.801 211.209L261.433 208.609L263.422 213.011L260.801 211.209ZM254.725 220.123L256.395 215.359V220.123H254.725ZM254.725 192.542L256.395 187.779V192.542H254.725ZM247.307 213.011L249.296 208.609L249.928 211.209L247.307 213.011ZM246.316 197.979L249.6 198.228L248.689 200.58L246.316 197.979Z" fill="#C1EEF4"/>
<path d="M65.4761 241.494C77.9926 241.494 88.1391 224.427 88.1391 203.373C88.1391 182.32 77.9926 165.253 65.4761 165.253C52.9597 165.253 42.8131 182.32 42.8131 203.373C42.8131 224.427 52.9597 241.494 65.4761 241.494Z" fill="#3F3D56"/>
<path d="M49.8524 203.373C49.8524 188.882 56.8612 177.093 65.4761 177.093C74.0911 177.093 81.0999 188.882 81.0999 203.373C81.0999 217.864 74.0911 229.653 65.4761 229.653C56.8612 229.653 49.8524 217.864 49.8524 203.373ZM50.1958 203.373C50.1958 217.546 57.0505 229.076 65.4761 229.076C73.9018 229.076 80.7565 217.546 80.7565 203.373C80.7565 189.201 73.9018 177.671 65.4761 177.671C57.0505 177.671 50.1958 189.201 50.1958 203.373Z" fill="white"/>
<path d="M52.0844 203.373C52.0844 215.814 58.0801 225.899 65.4761 225.899C72.8722 225.899 78.8679 215.814 78.8679 203.373C78.8679 190.933 72.8722 180.848 65.4761 180.848C58.0801 180.848 52.0844 190.933 52.0844 203.373ZM74.1812 197.979L71.8085 200.58L70.8969 198.228L74.1812 197.979ZM70.569 211.209L71.2009 208.609L73.1905 213.011L70.569 211.209ZM64.4933 220.123L66.1629 215.359V220.123H64.4933ZM64.4933 192.542L66.1629 187.779V192.542H64.4933ZM57.075 213.011L59.0646 208.609L59.6965 211.209L57.075 213.011ZM56.0843 197.979L59.3686 198.228L58.457 200.58L56.0843 197.979Z" fill="#C1EEF4"/>
<path d="M160.077 122.223H173.125V117.602H160.077V122.223Z" fill="#3F3D56"/>
<path d="M343.993 212.929C343.871 212.303 342.949 212.579 342.861 212.019C342.772 211.461 343.657 210.993 344.335 209.421C344.458 209.137 345.229 207.35 344.933 206.599C344.373 205.174 340.473 208.722 339.537 206.731C339.332 206.294 339.247 205.544 338.635 204.148C338.392 203.593 338.236 203.325 338.049 203.333C337.784 203.344 337.689 203.901 337.273 204.911C336.649 206.424 336.424 206.234 336.013 207.475C335.708 208.395 335.671 208.984 335.451 209.018C335.14 209.067 335.011 207.921 334.631 207.876C334.242 207.831 333.854 208.964 333.661 209.849C333.299 211.509 333.523 212.779 333.573 214.044C333.627 215.418 333.5 217.431 332.612 220.013L324.237 242.459C326.035 237.884 331.141 225.406 333.198 220.829C333.792 219.508 334.43 218.181 335.413 217.931C336.358 217.691 337.509 218.478 339.115 218.432C339.303 218.427 339.825 218.401 339.952 217.935C340.057 217.551 339.796 217.216 339.891 216.854C340.018 216.369 340.59 216.577 341.37 216.255C341.92 216.028 342.294 215.653 342.615 215.33C342.712 215.233 344.154 213.762 343.993 212.929Z" fill="#F2F2F2"/>
<path d="M322.055 218.17C321.838 218.089 321.652 218.93 321.463 218.841C321.275 218.753 321.394 217.888 321.131 216.874C321.083 216.692 320.784 215.54 320.48 215.567C319.902 215.619 319.812 219.861 318.961 220.06C318.775 220.103 318.531 219.957 317.948 220.059C317.715 220.1 317.592 220.151 317.54 220.308C317.467 220.53 317.603 220.769 317.777 221.403C318.039 222.355 317.918 222.486 318.161 223.184C318.342 223.701 318.503 223.901 318.45 224.093C318.374 224.364 318.003 224.139 317.88 224.441C317.755 224.748 317.973 225.396 318.176 225.81C318.556 226.588 318.991 226.769 319.374 227.093C319.791 227.445 320.341 228.131 320.839 229.609L324.972 243C324.156 240.195 321.988 232.379 321.246 229.36C321.032 228.489 320.829 227.579 321.039 226.696C321.242 225.846 321.804 225.123 322.254 223.784C322.306 223.628 322.449 223.189 322.35 222.95C322.268 222.752 322.095 222.871 322.017 222.688C321.912 222.443 322.138 222.031 322.269 221.294C322.362 220.775 322.36 220.358 322.358 220C322.358 219.892 322.345 218.276 322.055 218.17Z" fill="#F2F2F2"/>
<path d="M326.179 221.437L326.308 219.419L326.388 219.293C326.757 218.707 326.987 218.086 327.074 217.447C327.088 217.345 327.098 217.243 327.109 217.138C327.152 216.723 327.206 216.207 327.443 215.672C327.576 215.373 327.927 214.699 328.289 214.935C328.386 214.996 328.452 215.103 328.498 215.216C328.51 215.196 328.521 215.177 328.534 215.155C328.69 214.9 328.8 214.806 328.905 214.716C328.986 214.647 329.07 214.575 329.211 214.385C329.273 214.301 329.323 214.226 329.365 214.163C329.492 213.972 329.654 213.749 329.877 213.837C330.113 213.946 330.194 214.324 330.247 214.575C330.343 215.022 330.373 215.329 330.392 215.533C330.399 215.608 330.407 215.692 330.414 215.719C330.465 215.938 331.113 215.994 331.357 216.018C331.906 216.068 332.38 216.111 332.494 216.743C332.576 217.195 332.405 217.687 331.972 218.246C331.838 218.42 331.703 218.54 331.585 218.63C331.657 218.745 331.715 218.901 331.719 219.114C331.726 219.617 331.419 220.004 330.806 220.265C330.653 220.33 330.448 220.417 330.179 220.395C330.053 220.384 329.942 220.352 329.848 220.321C329.834 220.412 329.808 220.506 329.761 220.595C329.625 220.858 329.404 220.925 329.105 220.777C328.774 220.622 328.513 220.411 328.283 220.226C328.081 220.065 327.908 219.927 327.762 219.889C327.491 219.825 327.238 220.107 326.936 220.481L326.179 221.437Z" fill="#F2F2F2"/>
<path d="M328.341 209.946L327.147 210.246L327.054 210.149C326.624 209.698 326.208 209.48 325.819 209.501C325.757 209.505 325.695 209.513 325.632 209.522C325.383 209.557 325.073 209.601 324.705 209.351C324.499 209.211 324.022 208.811 324.066 208.162C324.077 207.988 324.121 207.853 324.175 207.75C324.16 207.736 324.146 207.722 324.131 207.707C323.944 207.517 323.863 207.363 323.784 207.215C323.724 207.1 323.661 206.982 323.516 206.801C323.452 206.721 323.396 206.659 323.349 206.607C323.208 206.448 323.038 206.241 323.032 205.856C323.035 205.445 323.232 205.217 323.362 205.066C323.595 204.797 323.764 204.671 323.877 204.588C323.918 204.557 323.964 204.523 323.978 204.506C324.091 204.366 323.959 203.297 323.911 202.894C323.8 201.99 323.705 201.207 324.039 200.861C324.278 200.613 324.605 200.766 325.036 201.329C325.17 201.504 325.273 201.693 325.355 201.861C325.403 201.715 325.478 201.581 325.599 201.522C325.887 201.381 326.187 201.783 326.493 202.715C326.569 202.947 326.671 203.258 326.727 203.701C326.753 203.909 326.762 204.098 326.768 204.259C326.824 204.259 326.885 204.277 326.948 204.33C327.134 204.486 327.228 204.828 327.219 205.352C327.214 205.93 327.159 206.408 327.111 206.83C327.069 207.199 327.034 207.516 327.049 207.762C327.081 208.219 327.307 208.559 327.599 208.956L328.341 209.946Z" fill="#F2F2F2"/>
<path d="M328.501 203.919L328.631 201.902L328.711 201.775C329.08 201.189 329.31 200.568 329.397 199.929C329.41 199.828 329.421 199.725 329.432 199.62C329.475 199.206 329.529 198.69 329.766 198.154C329.899 197.856 330.25 197.181 330.612 197.417C330.709 197.479 330.775 197.585 330.821 197.698C330.832 197.679 330.844 197.659 330.857 197.638C331.013 197.382 331.123 197.289 331.228 197.198C331.309 197.129 331.393 197.058 331.534 196.867C331.596 196.784 331.646 196.709 331.688 196.646C331.815 196.455 331.977 196.231 332.2 196.32C332.436 196.428 332.517 196.807 332.57 197.057C332.666 197.504 332.696 197.812 332.715 198.016C332.722 198.09 332.73 198.174 332.736 198.201C332.788 198.42 333.436 198.477 333.68 198.5C334.228 198.551 334.703 198.594 334.817 199.225C334.899 199.677 334.728 200.17 334.295 200.729C334.16 200.902 334.025 201.022 333.908 201.112C333.98 201.227 334.038 201.383 334.041 201.596C334.049 202.1 333.742 202.486 333.128 202.747C332.976 202.813 332.771 202.899 332.502 202.877C332.376 202.867 332.265 202.834 332.171 202.804C332.157 202.894 332.131 202.988 332.084 203.078C331.948 203.341 331.727 203.408 331.428 203.259C331.097 203.104 330.836 202.894 330.605 202.708C330.404 202.547 330.23 202.409 330.085 202.371C329.814 202.308 329.561 202.589 329.259 202.963L328.501 203.919Z" fill="#F2F2F2"/>
<path d="M324.633 242.574L324.422 242.224L324.128 242.172C324.13 242.125 324.128 242.017 324.126 241.847C324.114 240.919 324.079 238.095 324.313 233.755C324.477 230.725 324.749 227.65 325.124 224.613C325.5 221.571 325.889 219.308 326.202 217.489C326.439 216.117 326.677 214.816 326.91 213.548C327.531 210.162 328.117 206.963 328.48 203.314C328.562 202.499 328.73 200.804 328.385 198.802C328.184 197.642 327.841 196.549 327.364 195.556L327.826 194.929C328.352 196.027 328.732 197.237 328.954 198.525C329.337 200.744 329.153 202.592 329.065 203.479C328.695 207.193 328.103 210.422 327.476 213.842C327.244 215.105 327.007 216.4 326.772 217.767C326.462 219.569 326.075 221.812 325.705 224.815C325.334 227.816 325.065 230.853 324.903 233.844C324.673 238.13 324.707 240.912 324.719 241.826C324.725 242.314 324.726 242.417 324.633 242.574Z" fill="#F2F2F2"/>
<path d="M326.098 196.705C326.074 196.696 326.05 196.686 326.027 196.674C325.54 196.444 325.149 195.777 324.866 194.691C324.733 194.18 324.702 193.643 324.639 192.571C324.629 192.405 324.586 191.569 324.639 190.461C324.674 189.736 324.72 189.445 324.837 189.217C324.967 188.962 325.143 188.817 325.328 188.744C325.333 188.648 325.352 188.554 325.389 188.465C325.541 188.096 325.796 188.248 325.935 188.327C326.004 188.369 326.091 188.422 326.189 188.45C326.343 188.495 326.434 188.449 326.573 188.382C326.706 188.317 326.871 188.236 327.1 188.243C327.55 188.253 327.884 188.594 327.994 188.706C328.573 189.292 328.773 190.226 329.004 191.307C329.05 191.524 329.203 192.307 329.239 193.316C329.264 194.044 329.208 194.342 329.143 194.555C329.01 194.993 328.806 195.196 328.302 195.624C327.774 196.071 327.51 196.295 327.293 196.41C326.788 196.677 326.471 196.844 326.098 196.705Z" fill="#F2F2F2"/>
<path d="M0 241.708C0 242.089 0.317721 242.395 0.713373 242.395H341.266C341.662 242.395 341.98 242.089 341.98 241.708C341.98 241.327 341.662 241.021 341.266 241.021H0.713373C0.317721 241.021 0 241.327 0 241.708Z" fill="#CCCCCC"/>
<path d="M173.042 237.368L177.81 237.367L180.078 206.434L173.041 206.435L173.042 237.368Z" fill="#FFB6B6"/>
<path d="M189.377 237.186C189.526 237.607 189.604 238.964 189.604 239.453C189.604 240.956 188.879 242.175 187.986 242.175L173.221 242.175C172.611 242.175 172.117 241.343 172.117 240.318V239.284C172.117 239.284 171.386 236.176 172.89 232.346C172.89 232.346 174.759 235.345 177.552 230.647L178.375 228.138L184.337 235.472L187.641 236.156C188.364 236.305 189.005 236.133 189.377 237.186Z" fill="#2F2E41"/>
<path d="M151.622 237.368L156.389 237.367L158.657 206.434L151.621 206.435L151.622 237.368Z" fill="#FFB6B6"/>
<path d="M167.956 237.186C168.105 237.607 168.183 238.964 168.183 239.453C168.183 240.956 167.459 242.175 166.565 242.175L151.8 242.175C151.19 242.175 150.696 241.343 150.696 240.318V239.284C150.696 239.284 149.966 236.176 151.469 232.346C151.469 232.346 153.338 235.345 156.131 230.647L156.955 228.138L162.916 235.472L166.22 236.156C166.943 236.305 167.584 236.133 167.956 237.186Z" fill="#2F2E41"/>
<path d="M172.287 26.1504L173.192 40.3599L162.633 38.8375L164.443 25.6429L172.287 26.1504Z" fill="#FFB6B6"/>
<path opacity="0.1" d="M172.287 26.1504L173.192 40.3599L162.633 38.8375L164.443 25.6429L172.287 26.1504Z" fill="#212121"/>
<path d="M168.516 27.9267C172.348 27.9267 175.455 22.7009 175.455 16.2546C175.455 9.80829 172.348 4.58252 168.516 4.58252C164.684 4.58252 161.577 9.80829 161.577 16.2546C161.577 22.7009 164.684 27.9267 168.516 27.9267Z" fill="#FFB6B6"/>
<path d="M173.042 34.5239L184.657 45.9422L180.851 76.8986L183.45 118.512L181.64 220.516L170.477 218.486L168.969 131.707L160.219 221.531H149.379L151.168 124.602L156.599 83.4959L153.28 38.8375L163.387 33.5089L173.042 34.5239Z" fill="#2F2E41"/>
<path d="M173.494 19.5532C173.494 19.5532 174.097 16.0008 175.455 16.2546C176.813 16.5083 177.115 14.4784 176.813 13.4634C176.511 12.4484 175.908 7.37362 175.908 7.37362C175.908 7.37362 176.209 3.82124 174.399 3.31377C172.589 2.80628 171.986 2.2988 171.684 1.28384C171.382 0.268873 166.857 -0.746087 165.348 0.776356C163.84 2.2988 162.633 5.21982 161.577 6.04298C160.521 6.86614 159.616 8.38859 160.219 10.926C160.823 13.4634 161.698 18.426 161.698 18.426C161.698 18.426 163.236 17.5233 163.538 19.0457C163.84 20.5682 162.633 18.5382 164.141 14.4784C165.65 10.4185 165.65 6.35866 168.063 7.88111C170.477 9.40355 173.192 8.89608 172.891 11.941C172.589 14.9859 173.494 19.5532 173.494 19.5532Z" fill="#2F2E41"/>
<path d="M178.667 109.409C177.215 111.995 176.831 115.352 177.81 116.906C178.789 118.46 180.759 117.623 182.211 115.036C182.8 114.016 183.235 112.773 183.48 111.412L189.55 100.323L186.396 95.6417L180.746 107.071C179.952 107.56 179.239 108.361 178.667 109.409Z" fill="#FFB6B6"/>
<path d="M184.535 45.6885L194.758 74.9854L196.273 88.3601L186.428 109.377L182.263 100.461L187.185 88.3601L179.234 64.7952L184.535 45.6885Z" fill="#2F2E41"/>
<path d="M155.791 106.681V72.138C155.791 66.8731 158.338 62.5901 161.468 62.5901H192.859C195.989 62.5901 198.535 66.8731 198.535 72.138V106.681C198.535 111.945 195.989 116.228 192.859 116.228H161.468C158.338 116.228 155.791 111.945 155.791 106.681Z" fill="#409DFE"/>
<path d="M171.057 84.3921H181.913V79.8271H171.057V84.3921Z" fill="#3F3D56"/>
<path d="M181.023 115.922V106.792H172.203V115.922H181.023Z" fill="#3F3D56"/>
<path d="M181.437 72.026V62.8961H172.617V72.026H181.437Z" fill="#3F3D56"/>
<path d="M158.968 102.811C160.42 105.398 160.804 108.755 159.825 110.309C158.847 111.863 156.876 111.026 155.424 108.438C154.835 107.418 154.4 106.176 154.156 104.815L148.085 93.7254L151.24 89.0444L156.889 100.474C157.683 100.962 158.396 101.764 158.968 102.811Z" fill="#FFB6B6"/>
<path d="M153.101 39.0912L142.877 68.3881L141.363 81.7628L151.207 102.78L155.372 93.8637L150.45 81.7628L158.401 58.1979L153.101 39.0912Z" fill="#2F2E41"/>
<path d="M25.982 178.788C31.1023 178.788 35.2532 172.711 35.2532 165.215C35.2532 157.718 31.1023 151.641 25.982 151.641C20.8616 151.641 16.7108 157.718 16.7108 165.215C16.7108 172.711 20.8616 178.788 25.982 178.788Z" fill="#C1EEF4"/>
</g>
<defs>
<clipPath id="clip0_29_1287">
<rect width="345" height="243" fill="white"/>
</clipPath>
</defs>
</svg>
