<svg width="342" height="336" viewBox="0 0 342 336" fill="none" xmlns="http://www.w3.org/2000/svg">
<g clip-path="url(#clip0_30_1716)">
<path d="M151.917 76.4019C137.84 76.4158 123.86 73.4376 110.559 67.5909C92.7261 59.7658 78.1172 48.9725 67.1381 35.5108C46.3701 10.0464 29.3433 6.20884 18.7189 7.47247C7.21811 8.84098 0.523755 16.3153 0.457512 16.3907L0 15.7434C0.067579 15.6663 6.89994 8.02235 18.6105 6.61201C25.4778 5.78552 32.6593 7.22557 39.9561 10.8935C49.0554 15.4676 58.361 23.5396 67.6142 34.8853C78.521 48.2585 93.0449 58.9858 110.782 66.7688C143.345 81.0569 180.043 77.5976 211.469 57.2776C221.874 50.5493 232.157 45.9567 242.034 43.6276C254.488 40.6897 266.299 41.3716 277.142 45.653C300.969 55.0608 317.243 54.5618 326.7 52.4876C336.904 50.2493 341.534 45.7697 341.579 45.7247L342 46.4111C341.808 46.6002 337.188 51.0695 326.817 53.3445C317.285 55.4357 300.894 55.9422 276.939 46.4831C252.683 36.9069 228.117 47.4883 211.78 58.0521C196.247 68.149 179.287 74.2215 161.886 75.9157C158.551 76.2397 155.228 76.4018 151.917 76.4019Z" fill="#3F3D56"/>
<path d="M150.533 87.1923C154.368 87.1923 157.477 83.2469 157.477 78.38C157.477 73.5131 154.368 69.5676 150.533 69.5676C146.699 69.5676 143.59 73.5131 143.59 78.38C143.59 83.2469 146.699 87.1923 150.533 87.1923Z" fill="#409DFE"/>
<path d="M258.106 51.9737C261.941 51.9737 265.05 48.0283 265.05 43.1614C265.05 38.2944 261.941 34.349 258.106 34.349C254.272 34.349 251.163 38.2944 251.163 43.1614C251.163 48.0283 254.272 51.9737 258.106 51.9737Z" fill="#409DFE"/>
<path d="M34.396 17.6247C38.2308 17.6247 41.3395 13.6793 41.3395 8.81236C41.3395 3.94543 38.2308 0 34.396 0C30.5612 0 27.4525 3.94543 27.4525 8.81236C27.4525 13.6793 30.5612 17.6247 34.396 17.6247Z" fill="#409DFE"/>
<path d="M200.326 210.652V295.797H210.875V218.149H253.069V295.797H263.617V125.507H253.069C249.573 125.507 244.208 148.611 244.208 171.828C244.208 189.327 245.818 204.325 248.108 210.652H200.326ZM253.069 210.652H252.966C253.001 210.557 253.035 210.456 253.069 210.357V210.652Z" fill="#3F3D56"/>
<path d="M239.416 83.363C230.758 83.363 223.739 93.2494 223.739 105.445V120.939H227.493L229.667 115.198L229.124 120.939H253.258L255.234 115.72L254.74 120.939H257.457V108.773C257.457 94.7396 249.38 83.363 239.416 83.363Z" fill="#2F2E41"/>
<path d="M221.452 184.595L211.826 189.787L178.376 224.3C177.146 226.218 176.392 228.557 176.21 231.019C175.97 234.99 165.862 255.758 169.472 258.507C173.082 261.256 186.077 269.502 186.799 264.005C187.521 258.507 191.371 234.99 191.371 234.99L223.618 198.339L221.452 184.595Z" fill="#2F2E41"/>
<path d="M183.671 259.423L179.579 274.694C179.579 274.694 183.911 280.497 181.745 285.384V302.182H178.376L177.414 293.325C177.414 293.325 173.576 302.07 171.638 302.182C167.575 302.417 159.529 304.251 159.288 301.502C159.048 298.754 165.381 296.074 165.381 296.074L172.119 272.556L175.007 258.202L183.671 259.423Z" fill="#2F2E41"/>
<path d="M246.48 180.625C246.48 180.625 248.646 207.502 242.389 212.388C236.132 217.275 208.457 232.852 208.457 232.852C208.457 232.852 220.249 246.901 217.843 250.261C215.436 253.62 204.607 262.783 203.163 260.95C201.719 259.118 185.596 237.128 187.521 230.103C189.446 223.078 216.158 200.172 216.158 200.172L219.287 185.817L220.249 174.211L230.356 165.964L246.48 180.625Z" fill="#2F2E41"/>
<path d="M235.455 118.048C240.995 118.048 245.487 112.348 245.487 105.316C245.487 98.2838 240.995 92.5833 235.455 92.5833C229.914 92.5833 225.422 98.2838 225.422 105.316C225.422 112.348 229.914 118.048 235.455 118.048Z" fill="#FFB9B9"/>
<path d="M243.231 110.531C243.231 110.531 242.75 122.137 250.21 125.802C257.67 129.467 231.68 153.29 231.68 153.29V126.718C231.68 126.718 235.049 122.137 231.68 115.112L243.231 110.531Z" fill="#FFB9B9"/>
<path d="M259.234 165.048L257.309 176.96L251.534 217.886C251.534 217.886 256.347 235.295 249.849 234.99C243.352 234.684 246.48 216.054 246.48 216.054L249.849 182.152V169.019L259.234 165.048Z" fill="#FFB9B9"/>
<path d="M217.843 159.245L215.677 169.935L205.81 200.172C205.81 200.172 199.072 214.526 204.607 214.221C210.142 213.916 210.142 200.172 210.142 200.172L221.452 175.738V161.994L217.843 159.245Z" fill="#FFB9B9"/>
<path d="M216.158 248.428L224.1 257.896C224.1 257.896 229.635 256.369 231.8 264.615C233.966 272.862 235.41 278.054 235.41 278.054L232.522 280.192L228.913 273.778C228.913 273.778 226.747 285.384 224.581 286.3C222.415 287.217 211.586 293.325 212.548 286.3L217.843 276.527C217.843 276.527 218.565 265.532 216.399 264.615C214.233 263.699 208.457 254.537 208.457 254.537L216.158 248.428Z" fill="#2F2E41"/>
<path d="M246.861 190.093C246.861 190.093 224.24 179.708 222.797 180.625C221.722 181.227 220.577 181.604 219.407 181.741L219.427 177.57C219.427 177.57 226.888 174.211 230.979 176.349C235.07 178.487 247.583 187.955 247.583 187.955L246.861 190.093Z" fill="#3F3D56"/>
<path d="M233.124 147.181C233.124 147.181 239.621 137.713 241.547 131.91C242.765 128.392 245 125.602 247.792 124.115C247.792 124.115 262.242 128.245 262.002 135.575C261.761 142.905 252.857 154.206 252.857 154.206C252.857 154.206 254.06 194.827 247.563 194.216C246.161 192.093 245.172 189.582 244.675 186.886C243.953 182.61 221.573 178.029 221.573 178.029C221.573 178.029 219.648 182.305 219.407 180.472C219.166 178.64 221.332 133.743 221.332 133.743L232.808 124.115L233.124 147.181Z" fill="#FEE3C3"/>
<path d="M260.148 132.625L260.309 132.739C260.824 133.106 261.252 133.639 261.55 134.285C261.848 134.931 262.005 135.666 262.005 136.415L262.002 159.081C262.004 159.697 262.111 160.305 262.317 160.863C262.522 161.421 262.821 161.916 263.192 162.313C264.119 163.314 264.979 164.756 263.205 165.506C260.317 166.728 249.007 172.837 248.766 170.699C248.526 168.561 248.044 166.117 248.766 166.117C249.331 166.117 252.699 144.216 255.405 134.852C255.57 134.279 255.831 133.758 256.171 133.325C256.51 132.893 256.92 132.559 257.371 132.347C257.822 132.136 258.304 132.051 258.784 132.099C259.263 132.146 259.729 132.326 260.148 132.625Z" fill="#FEE3C3"/>
<path d="M224.581 132.674L221.212 133.895L217.361 154.969C217.361 154.969 212.789 156.191 214.233 158.329C215.677 160.467 221.693 165.964 221.693 165.964L224.581 132.674Z" fill="#FEE3C3"/>
<path d="M243.873 89.4459C243.119 88.1601 242.141 87.1123 241.016 86.3836C239.891 85.6549 238.649 85.265 237.386 85.2441H237.078C231.143 85.2441 226.332 92.0596 226.332 100.467L228.321 100.467L228.642 97.3647L229.113 100.467H240.907L241.895 97.8424L241.648 100.467H243.968C245.051 107.291 243.495 114.115 239.301 120.939H243.253L245.23 115.69L244.736 120.939H252.27L253.752 108.866C253.752 99.824 249.612 92.1567 243.873 89.4459Z" fill="#2F2E41"/>
<path d="M42.3216 230.325C44.8533 223.329 46.6338 206.747 46.6338 187.398C46.6338 161.729 40.7016 136.182 36.8368 136.182H25.1738V324.467H36.8368V238.614H83.489V324.467H95.1521V230.325H42.3216ZM36.8368 229.999C36.8746 230.108 36.9122 230.219 36.9502 230.325H36.8368V229.999Z" fill="#3F3D56"/>
<path d="M90.9344 195.976C90.9344 195.976 104.98 203.367 100.527 207.715C96.0732 212.063 86.8233 202.498 87.1659 201.193C87.5085 199.889 85.7955 196.845 85.7955 196.845L90.9344 195.976Z" fill="#9F616A"/>
<path d="M78.6012 137.713L83.0548 142.93L84.0826 158.148L87.5085 174.236C87.5085 174.236 93.3325 189.454 92.3047 192.497C91.277 195.541 93.3325 196.41 93.3325 196.41L85.453 200.324C85.453 200.324 76.8882 188.149 76.8882 185.541C76.8882 182.932 78.6012 137.713 78.6012 137.713Z" fill="#FED100"/>
<path opacity="0.1" d="M78.6012 137.713L83.0548 142.93L84.0826 158.148L87.5085 174.236C87.5085 174.236 93.3325 189.454 92.3047 192.497C91.277 195.541 93.3325 196.41 93.3325 196.41L85.453 200.324C85.453 200.324 76.8882 188.149 76.8882 185.541C76.8882 182.932 78.6012 137.713 78.6012 137.713Z" fill="#212121"/>
<path d="M120.74 294.24C120.74 294.24 119.027 304.24 118.684 305.11C118.341 305.979 125.193 309.023 125.193 309.023L133.415 301.631C133.415 301.631 129.989 292.066 129.989 290.327L120.74 294.24Z" fill="#FED100"/>
<path d="M75.8605 196.845L78.2586 200.324C78.2586 200.324 127.934 208.15 128.962 220.324C129.989 232.499 137.184 289.892 133.073 291.631C128.962 293.37 118.341 299.892 118.341 296.414C118.341 292.936 111.49 245.108 112.86 236.412C112.86 236.412 53.5922 226.846 52.2219 215.976C50.8515 205.106 53.5922 200.324 53.5922 200.324L75.8605 196.845Z" fill="#2F2E41"/>
<path opacity="0.1" d="M75.8605 196.845L78.2586 200.324C78.2586 200.324 127.934 208.15 128.962 220.324C129.989 232.499 137.184 289.892 133.073 291.631C128.962 293.37 118.341 299.892 118.341 296.414C118.341 292.936 111.49 245.108 112.86 236.412C112.86 236.412 53.5922 226.846 52.2219 215.976C50.8515 205.106 53.5922 200.324 53.5922 200.324L75.8605 196.845Z" fill="#212121"/>
<path d="M120.054 304.24C120.054 304.24 118.684 300.327 117.999 301.631C117.314 302.936 114.916 318.154 117.314 318.154C119.712 318.154 141.637 325.111 144.721 324.241C147.804 323.371 153.628 324.676 152.943 320.328C152.258 315.98 148.832 315.545 148.832 315.545C148.832 315.545 136.156 305.979 135.471 301.197C134.786 296.414 131.017 299.023 131.017 299.023V302.066C131.017 302.066 123.823 309.023 120.054 304.24Z" fill="#2F2E41"/>
<path d="M54.9626 104.668C54.9626 104.668 57.3607 119.451 52.2219 120.756C47.083 122.06 58.731 130.756 58.731 130.756L66.268 135.973L71.7494 129.017C71.7494 129.017 66.7819 116.19 70.5503 106.625C74.3188 97.0591 54.9626 104.668 54.9626 104.668Z" fill="#9F616A"/>
<path d="M71.7494 129.017L66.268 135.973L58.731 130.756C58.731 130.756 47.083 122.06 52.2219 120.756C55.5278 119.916 55.7128 113.499 55.4285 109.029C55.3357 107.566 55.1801 106.11 54.9626 104.668C54.9626 104.668 74.3188 97.0591 70.5503 106.625C69.9778 108.102 69.5806 109.678 69.3719 111.303C68.2173 119.899 71.7494 129.017 71.7494 129.017Z" fill="#9F616A"/>
<path d="M90.9343 306.849V316.849H103.953L104.98 312.936L103.61 302.501L90.9343 306.849Z" fill="#FED100"/>
<path d="M37.148 205.541C37.148 205.541 37.148 231.194 45.3701 232.064C53.5922 232.933 83.0548 237.716 83.0548 237.716C83.0548 237.716 84.7678 280.326 87.8511 294.24C90.9344 308.153 88.1937 309.023 90.9344 309.893C93.6751 310.762 105.323 307.719 104.98 304.675C104.638 301.631 103.268 224.672 103.268 224.672C103.268 224.672 106.351 208.15 65.2402 200.324L37.148 205.541Z" fill="#2F2E41"/>
<path d="M91.9621 313.806C91.9621 313.806 89.9066 308.153 89.564 309.893C89.2214 311.632 85.1104 326.85 89.2214 328.154C93.3325 329.458 106.351 336.415 114.916 335.98C123.48 335.546 124.508 335.111 124.508 335.111C124.508 335.111 126.906 330.763 123.823 328.154C120.74 325.545 108.064 310.327 107.379 308.588C106.693 306.849 101.555 305.545 101.555 308.588C101.555 311.632 94.3602 317.719 91.9621 313.806Z" fill="#2F2E41"/>
<path opacity="0.1" d="M70.5504 106.625C69.9778 108.102 69.5806 109.678 69.3719 111.303C67.6658 112.612 66.5249 112.277 64.3838 112.277C61.208 112.277 59.9267 107.125 57.8746 104.451C57.7136 101.968 54.9626 104.668 54.9626 104.668C54.9626 104.668 74.3188 97.0591 70.5504 106.625Z" fill="#212121"/>
<path d="M63.5273 112.06C69.7711 112.06 74.8327 105.636 74.8327 97.7114C74.8327 89.787 69.7711 83.363 63.5273 83.363C57.2835 83.363 52.2219 89.787 52.2219 97.7114C52.2219 105.636 57.2835 112.06 63.5273 112.06Z" fill="#9F616A"/>
<path d="M83.0548 142.93C83.0548 142.93 81.3419 158.583 80.3141 164.235C79.2864 169.888 77.916 195.976 77.2308 199.454C76.5457 202.932 72.4346 203.802 64.2125 202.498C63.6963 202.415 63.1772 202.366 62.6571 202.35C57.5937 202.145 51.8005 204.55 46.439 206.437C43.3557 207.524 40.4128 208.437 37.8332 208.585C33.9276 208.811 32.7834 203.315 32.917 197.367C33.0438 191.832 34.2805 185.897 35.435 183.801C37.5146 180.027 35.4693 146.143 36.2367 134.969V134.965C36.3532 133.26 36.5347 132.086 36.8054 131.626C38.8609 128.147 52.2219 119.451 53.719 119.803C55.2127 120.156 67.9809 130.321 67.9809 130.321C71.0642 130.321 70.9649 126.077 70.9649 126.077C70.9649 126.077 73.1198 131.191 77.2308 132.495C81.3419 133.799 83.0548 142.93 83.0548 142.93Z" fill="#FED100"/>
<path d="M60.1537 199.299C60.1537 199.299 82.2219 200.191 78.356 203.518C74.4901 206.846 57.3607 209.889 57.0181 205.541C56.6755 201.193 60.1537 199.299 60.1537 199.299Z" fill="#9F616A"/>
<path opacity="0.1" d="M62.6571 202.35C62.729 204.019 59.1901 207.78 58.0459 210.324C57.4121 211.733 52.5062 209.876 46.439 206.437C41.7831 203.785 37.2664 200.755 32.917 197.367C33.0437 191.832 34.2805 185.897 35.435 183.801C37.5146 180.027 35.4693 146.144 36.2367 134.969V134.965C36.4197 134.847 36.6098 134.748 36.8054 134.669H40.9164C54.9626 142.93 38.8609 178.584 38.8609 178.584C38.8609 178.584 60.1014 200.758 62.1569 201.628C62.2917 201.66 62.4141 201.749 62.5047 201.88C62.5954 202.011 62.649 202.176 62.6571 202.35Z" fill="#212121"/>
<path d="M40.9164 132.06H36.8054C36.8054 132.06 33.0369 133.365 29.9536 142.061C26.8703 150.757 15.5649 177.714 25.5 188.149C35.435 198.584 56.6755 210.759 58.0459 207.715C59.4162 204.672 64.2125 199.889 62.1569 199.019C60.1014 198.15 38.8609 175.975 38.8609 175.975C38.8609 175.975 54.9626 140.322 40.9164 132.06Z" fill="#FED100"/>
<path d="M61.788 91.0347C61.788 91.0347 62.2842 82.3181 68.4047 85.8722C74.5253 89.4264 74.1259 79.63 72.2763 77.8989C70.4267 76.1677 70.4853 75.7393 63.7206 76.8976C56.9558 78.0558 43.8224 80.0182 48.069 97.2811C52.3156 114.544 56.1617 110.103 56.1617 110.103C56.1617 110.103 52.7861 94.5688 56.2063 97.5283L59.6265 100.488L61.4314 100.003L61.788 91.0347Z" fill="#2F2E41"/>
<path d="M314.337 216.549C314.337 208.701 268.386 202.339 211.702 202.339C155.018 202.339 109.067 208.701 109.067 216.549C109.067 219.591 115.973 222.409 127.728 224.72V321.941H133.326V225.723C152.153 228.803 180.275 230.759 211.702 230.759C243.389 230.759 271.717 228.771 290.544 225.646V321.941H296.143V224.627C307.612 222.333 314.337 219.55 314.337 216.549Z" fill="#3F3D56"/>
<path d="M224.56 216.846C236.102 216.846 245.458 213.926 245.458 210.324C245.458 206.722 236.102 203.802 224.56 203.802C213.019 203.802 203.662 206.722 203.662 210.324C203.662 213.926 213.019 216.846 224.56 216.846Z" fill="#F2F2F2"/>
<path d="M224.56 215.67C234.021 215.67 241.69 213.276 241.69 210.324C241.69 207.371 234.021 204.978 224.56 204.978C215.1 204.978 207.431 207.371 207.431 210.324C207.431 213.276 215.1 215.67 224.56 215.67Z" fill="#FEE3C3"/>
<path d="M146.793 222.063C158.334 222.063 167.691 219.143 167.691 215.541C167.691 211.94 158.334 209.02 146.793 209.02C135.251 209.02 125.895 211.94 125.895 215.541C125.895 219.143 135.251 222.063 146.793 222.063Z" fill="#F2F2F2"/>
<path d="M146.793 220.887C156.253 220.887 163.922 218.494 163.922 215.542C163.922 212.589 156.253 210.196 146.793 210.196C137.332 210.196 129.663 212.589 129.663 215.542C129.663 218.494 137.332 220.887 146.793 220.887Z" fill="#FEE3C3"/>
<path d="M224.074 209.863C229.576 209.863 234.037 208.97 234.037 207.867C234.037 206.764 229.576 205.871 224.074 205.871C218.572 205.871 214.111 206.764 214.111 207.867C214.111 208.97 218.572 209.863 224.074 209.863Z" fill="#9F616A"/>
<path d="M218.765 207.118C220.502 207.118 221.911 206.15 221.911 204.956C221.911 203.761 220.502 202.793 218.765 202.793C217.027 202.793 215.619 203.761 215.619 204.956C215.619 206.15 217.027 207.118 218.765 207.118Z" fill="#409DFE"/>
<path d="M217.585 207.118C219.323 207.118 220.731 206.15 220.731 204.956C220.731 203.761 219.323 202.793 217.585 202.793C215.848 202.793 214.439 203.761 214.439 204.956C214.439 206.15 215.848 207.118 217.585 207.118Z" fill="#409DFE"/>
<path d="M231.349 207.617C233.087 207.617 234.495 206.649 234.495 205.455C234.495 204.26 233.087 203.292 231.349 203.292C229.612 203.292 228.203 204.26 228.203 205.455C228.203 206.649 229.612 207.617 231.349 207.617Z" fill="#409DFE"/>
<path d="M224.139 207.118C225.877 207.118 227.286 206.15 227.286 204.956C227.286 203.761 225.877 202.793 224.139 202.793C222.402 202.793 220.993 203.761 220.993 204.956C220.993 206.15 222.402 207.118 224.139 207.118Z" fill="#409DFE"/>
<path d="M229.514 207.118C231.252 207.118 232.66 206.15 232.66 204.956C232.66 203.761 231.252 202.793 229.514 202.793C227.777 202.793 226.368 203.761 226.368 204.956C226.368 206.15 227.777 207.118 229.514 207.118Z" fill="#409DFE"/>
<path d="M233.578 203.625C227.892 206.073 221.512 206.073 214.439 203.625V203.288C214.438 200.742 215.208 198.293 216.59 196.447C217.971 194.602 219.859 193.501 221.863 193.372C223.549 193.265 225.238 193.267 226.924 193.381C228.727 193.514 230.421 194.518 231.658 196.187C232.895 197.855 233.582 200.062 233.578 202.353V203.625Z" fill="#3F3D56"/>
<path d="M230.786 212.793C226.584 213.331 222.35 213.331 218.148 212.793C217.151 212.669 216.227 212.079 215.553 211.138C214.88 210.197 214.506 208.972 214.505 207.701H234.43C234.428 208.972 234.054 210.197 233.381 211.138C232.708 212.079 231.783 212.669 230.786 212.793Z" fill="#3F3D56"/>
<path d="M221.387 196.471C220.93 196.712 220.44 196.837 219.945 196.837C219.45 196.837 218.96 196.712 218.503 196.471C218.96 196.229 219.45 196.105 219.945 196.105C220.44 196.105 220.93 196.229 221.387 196.471Z" fill="#FEE3C3"/>
<path d="M224.271 197.968C223.814 198.21 223.324 198.334 222.829 198.334C222.334 198.334 221.844 198.21 221.387 197.968C221.844 197.726 222.334 197.602 222.829 197.602C223.324 197.602 223.814 197.726 224.271 197.968Z" fill="#FEE3C3"/>
<path d="M224.533 195.306C224.076 195.548 223.586 195.672 223.091 195.672C222.596 195.672 222.106 195.548 221.649 195.306C222.106 195.064 222.596 194.94 223.091 194.94C223.586 194.94 224.076 195.064 224.533 195.306Z" fill="#FEE3C3"/>
<path d="M229.907 195.306C229.45 195.548 228.96 195.672 228.465 195.672C227.97 195.672 227.48 195.548 227.023 195.306C227.48 195.064 227.97 194.94 228.465 194.94C228.96 194.94 229.45 195.064 229.907 195.306Z" fill="#FEE3C3"/>
<path d="M228.465 196.803C228.008 197.045 227.518 197.169 227.023 197.169C226.528 197.169 226.038 197.045 225.581 196.803C226.038 196.562 226.528 196.437 227.023 196.437C227.518 196.437 228.008 196.562 228.465 196.803Z" fill="#FEE3C3"/>
<path d="M146.649 215.081C152.151 215.081 156.612 214.187 156.612 213.085C156.612 211.982 152.151 211.088 146.649 211.088C141.147 211.088 136.686 211.982 136.686 213.085C136.686 214.187 141.147 215.081 146.649 215.081Z" fill="#9F616A"/>
<path d="M141.34 212.336C143.077 212.336 144.486 211.368 144.486 210.173C144.486 208.979 143.077 208.01 141.34 208.01C139.602 208.01 138.194 208.979 138.194 210.173C138.194 211.368 139.602 212.336 141.34 212.336Z" fill="#409DFE"/>
<path d="M140.16 212.336C141.898 212.336 143.306 211.368 143.306 210.173C143.306 208.979 141.898 208.01 140.16 208.01C138.423 208.01 137.014 208.979 137.014 210.173C137.014 211.368 138.423 212.336 140.16 212.336Z" fill="#409DFE"/>
<path d="M153.924 212.835C155.662 212.835 157.07 211.867 157.07 210.672C157.07 209.478 155.662 208.509 153.924 208.509C152.187 208.509 150.778 209.478 150.778 210.672C150.778 211.867 152.187 212.835 153.924 212.835Z" fill="#409DFE"/>
<path d="M146.714 212.336C148.452 212.336 149.861 211.368 149.861 210.173C149.861 208.979 148.452 208.01 146.714 208.01C144.977 208.01 143.568 208.979 143.568 210.173C143.568 211.368 144.977 212.336 146.714 212.336Z" fill="#409DFE"/>
<path d="M152.089 212.336C153.827 212.336 155.235 211.368 155.235 210.173C155.235 208.979 153.827 208.01 152.089 208.01C150.352 208.01 148.943 208.979 148.943 210.173C148.943 211.368 150.352 212.336 152.089 212.336Z" fill="#409DFE"/>
<path d="M156.153 208.842C150.467 211.291 144.087 211.291 137.014 208.842V208.505C137.013 205.959 137.783 203.51 139.165 201.665C140.546 199.819 142.434 198.718 144.438 198.59C146.124 198.482 147.813 198.485 149.499 198.598C151.302 198.731 152.996 199.735 154.233 201.404C155.47 203.073 156.157 205.28 156.153 207.571V208.842Z" fill="#3F3D56"/>
<path d="M153.361 218.01C149.159 218.549 144.925 218.549 140.723 218.01C139.726 217.886 138.802 217.296 138.128 216.355C137.455 215.414 137.081 214.189 137.08 212.918H157.005C157.003 214.189 156.629 215.414 155.956 216.355C155.283 217.296 154.358 217.886 153.361 218.01Z" fill="#3F3D56"/>
<path d="M143.962 201.688C143.505 201.93 143.015 202.054 142.52 202.054C142.025 202.054 141.535 201.93 141.078 201.688C141.535 201.447 142.025 201.322 142.52 201.322C143.015 201.322 143.505 201.447 143.962 201.688Z" fill="#FEE3C3"/>
<path d="M146.846 203.186C146.389 203.427 145.899 203.552 145.404 203.552C144.909 203.552 144.419 203.427 143.962 203.186C144.419 202.944 144.909 202.82 145.404 202.82C145.899 202.82 146.389 202.944 146.846 203.186Z" fill="#FEE3C3"/>
<path d="M147.108 200.524C146.651 200.765 146.161 200.89 145.666 200.89C145.171 200.89 144.681 200.765 144.224 200.524C144.681 200.282 145.171 200.158 145.666 200.158C146.161 200.158 146.651 200.282 147.108 200.524Z" fill="#FEE3C3"/>
<path d="M152.482 200.524C152.025 200.765 151.535 200.89 151.04 200.89C150.545 200.89 150.055 200.765 149.598 200.524C150.055 200.282 150.545 200.158 151.04 200.158C151.535 200.158 152.025 200.282 152.482 200.524Z" fill="#FEE3C3"/>
<path d="M151.04 202.021C150.583 202.263 150.093 202.387 149.598 202.387C149.103 202.387 148.613 202.263 148.156 202.021C148.613 201.779 149.103 201.655 149.598 201.655C150.093 201.655 150.583 201.779 151.04 202.021Z" fill="#FEE3C3"/>
<path d="M242.538 208.557L242.586 209.904L242.648 211.65C242.648 211.65 236.327 212.104 235.053 213.812C235.024 213.848 234.996 213.888 234.972 213.93L232.44 213.227L232.434 211.644C232.434 211.644 232.468 211.619 232.536 211.572C232.552 211.562 232.571 211.549 232.591 211.536C235.689 209.611 239.089 208.592 242.538 208.557Z" fill="#409DFE"/>
<path opacity="0.1" d="M242.538 208.557L242.586 209.904C239.783 210.014 234.478 212.134 234.478 212.134L232.536 211.572C235.648 209.622 239.068 208.591 242.538 208.557Z" fill="#212121"/>
<path opacity="0.1" d="M232.591 211.536L234.478 212.134L235.053 213.812C235.024 213.848 234.996 213.888 234.972 213.93L232.44 213.227L232.434 211.644C232.434 211.644 232.468 211.619 232.536 211.572C232.552 211.562 232.571 211.549 232.591 211.536Z" fill="white"/>
<path d="M166.141 214.209L166.189 215.556L166.251 217.303C166.251 217.303 159.929 217.756 158.656 219.464C158.626 219.501 158.599 219.54 158.575 219.582L156.043 218.879L156.036 217.296C156.036 217.296 156.071 217.271 156.139 217.225C156.155 217.215 156.174 217.201 156.193 217.188C159.292 215.263 162.691 214.245 166.141 214.209Z" fill="#409DFE"/>
<path opacity="0.1" d="M166.141 214.209L166.189 215.556C163.386 215.666 158.081 217.787 158.081 217.787L156.139 217.225C159.251 215.274 162.67 214.243 166.141 214.209Z" fill="#212121"/>
<path opacity="0.1" d="M156.193 217.188L158.081 217.787L158.656 219.464C158.626 219.501 158.599 219.54 158.575 219.582L156.043 218.879L156.036 217.296C156.036 217.296 156.071 217.271 156.139 217.225C156.155 217.215 156.174 217.202 156.193 217.188Z" fill="white"/>
<path d="M280.61 168.216C280.07 167.532 279.438 166.978 278.743 166.58V149.685C278.743 149.487 278.681 149.297 278.571 149.157C278.461 149.017 278.311 148.938 278.155 148.938H274.859C274.703 148.938 274.554 149.017 274.443 149.157C274.333 149.297 274.271 149.487 274.271 149.685V166.256C273.08 166.757 272.043 167.722 271.308 169.013C270.574 170.305 270.178 171.857 270.177 173.45V209.691C270.177 210.127 270.245 210.559 270.377 210.962C270.508 211.365 270.701 211.731 270.944 212.039C271.187 212.348 271.475 212.592 271.793 212.759C272.11 212.926 272.451 213.012 272.794 213.012H279.853C280.544 213.012 281.206 212.664 281.695 212.044C282.183 211.424 282.458 210.583 282.458 209.706V173.877C282.459 172.825 282.296 171.784 281.979 170.812C281.662 169.841 281.196 168.959 280.61 168.216Z" fill="#3F3D56"/>
<path d="M282.458 178.762H270.177V199.351H282.458V178.762Z" fill="#409DFE"/>
<path d="M279.009 150.093H278.743V149.685C278.743 149.487 278.681 149.297 278.571 149.157C278.461 149.017 278.311 148.938 278.155 148.938H274.859C274.703 148.938 274.554 149.017 274.443 149.157C274.333 149.297 274.271 149.487 274.271 149.685V150.093H274.006V151.824H274.271V160.675H278.743V151.824H279.009V150.093Z" fill="#409DFE"/>
<path d="M182.283 182.88C181.958 182 181.701 181.377 181.611 181.163C176.099 182.889 172.421 181.43 171.841 181.172C171.558 181.852 169.787 186.197 169.072 190.363C168.425 194.121 168.8 196.64 170.187 197.851L170.228 197.888L170.237 197.895C171.768 199.175 173.228 200.309 174.576 201.265C174.758 201.393 174.929 201.512 175.09 201.622L175.107 201.634L175.119 201.654C175.305 201.95 175.477 202.258 175.636 202.578C175.934 203.107 176.115 203.728 176.159 204.375V223.038L176.066 223.041C172.55 223.132 170.374 223.888 170.374 224.537C170.374 225.249 172.984 226.042 176.728 226.042C180.473 226.042 183.083 225.249 183.083 224.537C183.083 223.898 180.943 223.146 177.487 223.044L177.394 223.042L177.481 205.778C177.483 204.609 177.697 203.456 178.106 202.41C178.176 202.234 178.251 202.062 178.329 201.901C178.392 201.771 178.458 201.645 178.527 201.525L178.539 201.503L178.558 201.49C178.731 201.37 178.915 201.24 179.11 201.1L179.132 201.084C180.409 200.169 181.784 199.097 183.22 197.895C184.503 196.822 184.949 194.654 184.547 191.45C184.165 188.395 183.105 185.103 182.283 182.88Z" fill="#FEE3C3"/>
<path d="M182.612 197.504C181.106 198.764 179.863 199.708 178.912 200.389H178.911C177.524 200.269 176.131 200.319 174.752 200.537C173.777 199.847 172.462 198.857 170.845 197.504C170.829 197.491 170.814 197.478 170.799 197.464V197.463C169.315 196.167 169.278 193.424 169.761 190.619C170.989 190.446 172.947 190.521 175.577 191.714C178.692 193.126 181.953 192.328 183.843 191.601C184.153 194.076 183.964 196.373 182.612 197.504Z" fill="#409DFE"/>
<path d="M173.659 189.604C173.894 189.604 174.085 189.361 174.085 189.062C174.085 188.764 173.894 188.521 173.659 188.521C173.423 188.521 173.232 188.764 173.232 189.062C173.232 189.361 173.423 189.604 173.659 189.604Z" fill="#409DFE"/>
<path d="M172.465 194.582C172.7 194.582 172.891 194.34 172.891 194.041C172.891 193.742 172.7 193.5 172.465 193.5C172.229 193.5 172.038 193.742 172.038 194.041C172.038 194.34 172.229 194.582 172.465 194.582Z" fill="white"/>
<path d="M174.682 190.686C174.823 190.686 174.938 190.54 174.938 190.361C174.938 190.182 174.823 190.036 174.682 190.036C174.541 190.036 174.426 190.182 174.426 190.361C174.426 190.54 174.541 190.686 174.682 190.686Z" fill="#409DFE"/>
<path d="M175.705 196.855C175.846 196.855 175.961 196.709 175.961 196.53C175.961 196.351 175.846 196.205 175.705 196.205C175.564 196.205 175.449 196.351 175.449 196.53C175.449 196.709 175.564 196.855 175.705 196.855Z" fill="white"/>
<path d="M173.914 197.179C174.056 197.179 174.17 197.034 174.17 196.855C174.17 196.675 174.056 196.53 173.914 196.53C173.773 196.53 173.659 196.675 173.659 196.855C173.659 197.034 173.773 197.179 173.914 197.179Z" fill="white"/>
<path d="M179.116 186.357C179.257 186.357 179.372 186.212 179.372 186.032C179.372 185.853 179.257 185.708 179.116 185.708C178.975 185.708 178.86 185.853 178.86 186.032C178.86 186.212 178.975 186.357 179.116 186.357Z" fill="#409DFE"/>
<path d="M202.283 165.286C201.958 164.406 201.701 163.783 201.611 163.569C196.099 165.295 192.421 163.836 191.841 163.578C191.558 164.258 189.787 168.603 189.071 172.769C188.425 176.527 188.8 179.046 190.187 180.256L190.228 180.293L190.237 180.301C191.767 181.581 193.227 182.715 194.576 183.67C194.758 183.799 194.929 183.918 195.09 184.028L195.107 184.04L195.119 184.059C195.304 184.355 195.477 184.664 195.636 184.984C195.934 185.513 196.114 186.133 196.159 186.781V205.444L196.066 205.447C192.55 205.538 190.374 206.294 190.374 206.943C190.374 207.654 192.984 208.447 196.728 208.447C200.473 208.447 203.083 207.654 203.083 206.943C203.083 206.304 200.943 205.551 197.487 205.45L197.393 205.447L197.48 188.184C197.482 187.015 197.696 185.862 198.106 184.815C198.176 184.639 198.251 184.468 198.329 184.307C198.392 184.177 198.458 184.05 198.526 183.931L198.539 183.909L198.558 183.896C198.731 183.776 198.915 183.646 199.109 183.506L199.132 183.49C200.409 182.575 201.784 181.502 203.22 180.301C204.503 179.228 204.949 177.059 204.547 173.855C204.164 170.8 203.104 167.509 202.283 165.286Z" fill="#FEE3C3"/>
<path d="M202.612 179.909C201.106 181.169 199.863 182.114 198.912 182.795H198.911C197.524 182.675 196.131 182.724 194.752 182.943C193.777 182.252 192.462 181.262 190.844 179.909C190.829 179.896 190.814 179.883 190.798 179.869V179.868C189.315 178.573 189.278 175.829 189.761 173.024C190.989 172.851 192.946 172.927 195.577 174.119C198.692 175.532 201.953 174.733 203.842 174.007C204.153 176.482 203.964 178.779 202.612 179.909Z" fill="#409DFE"/>
<path d="M193.658 172.009C193.894 172.009 194.085 171.767 194.085 171.468C194.085 171.169 193.894 170.927 193.658 170.927C193.423 170.927 193.232 171.169 193.232 171.468C193.232 171.767 193.423 172.009 193.658 172.009Z" fill="#409DFE"/>
<path d="M192.465 176.988C192.7 176.988 192.891 176.745 192.891 176.446C192.891 176.148 192.7 175.905 192.465 175.905C192.229 175.905 192.038 176.148 192.038 176.446C192.038 176.745 192.229 176.988 192.465 176.988Z" fill="white"/>
<path d="M194.682 173.091C194.823 173.091 194.937 172.946 194.937 172.767C194.937 172.588 194.823 172.442 194.682 172.442C194.54 172.442 194.426 172.588 194.426 172.767C194.426 172.946 194.54 173.091 194.682 173.091Z" fill="#409DFE"/>
<path d="M195.705 179.26C195.846 179.26 195.961 179.115 195.961 178.936C195.961 178.756 195.846 178.611 195.705 178.611C195.564 178.611 195.449 178.756 195.449 178.936C195.449 179.115 195.564 179.26 195.705 179.26Z" fill="white"/>
<path d="M193.914 179.585C194.055 179.585 194.17 179.44 194.17 179.26C194.17 179.081 194.055 178.936 193.914 178.936C193.773 178.936 193.658 179.081 193.658 179.26C193.658 179.44 193.773 179.585 193.914 179.585Z" fill="white"/>
<path d="M199.116 168.763C199.257 168.763 199.372 168.617 199.372 168.438C199.372 168.259 199.257 168.113 199.116 168.113C198.975 168.113 198.86 168.259 198.86 168.438C198.86 168.617 198.975 168.763 199.116 168.763Z" fill="#409DFE"/>
</g>
<defs>
<clipPath id="clip0_30_1716">
<rect width="342" height="336" fill="white"/>
</clipPath>
</defs>
</svg>
